<svg width="489" height="192" viewBox="0 0 489 192" fill="none" xmlns="http://www.w3.org/2000/svg">
<path d="M33.536 110.392C33.8773 111.032 33.8987 111.672 33.6 112.312C33.3867 112.995 33.024 113.507 32.512 113.848C32.256 114.061 32.0213 114.253 31.808 114.424C31.5947 114.552 31.36 114.659 31.104 114.744C30.6347 115 30.08 115.085 29.44 115C29.184 115 28.9493 114.957 28.736 114.872C28.5227 114.787 28.3093 114.68 28.096 114.552C27.8827 114.424 27.648 114.296 27.392 114.168C27.1787 113.997 26.9653 113.827 26.752 113.656C26.496 113.443 26.2613 113.251 26.048 113.08C25.8347 112.909 25.6427 112.717 25.472 112.504C25.2587 112.291 25.0667 112.077 24.896 111.864C24.7253 111.651 24.5547 111.459 24.384 111.288L23.616 110.456L11.328 97.592L11.52 110.456V111.032C11.52 111.203 11.4987 111.395 11.456 111.608C11.4133 111.779 11.3707 111.971 11.328 112.184C11.2 112.739 11.0507 113.229 10.88 113.656C10.7947 113.912 10.6667 114.125 10.496 114.296C10.368 114.467 10.2187 114.637 10.048 114.808C9.57867 115.235 9.024 115.469 8.384 115.512C7.744 115.725 7.14667 115.789 6.592 115.704C6.08 115.661 5.54667 115.512 4.992 115.256C4.56533 115 4.18133 114.573 3.84 113.976C3.75467 113.805 3.69067 113.699 3.648 113.656C3.648 113.613 3.60533 113.464 3.52 113.208C3.264 112.781 3.136 112.355 3.136 111.928C3.09333 111.672 3.05067 111.437 3.008 111.224C3.008 111.011 2.98667 110.776 2.944 110.52C2.90133 110.349 2.88 110.179 2.88 110.008C2.88 109.837 2.88 109.667 2.88 109.496C2.92267 109.283 2.944 109.112 2.944 108.984C2.944 108.813 2.944 108.621 2.944 108.408L2.88 103.352L2.816 93.944C2.816 91.2133 2.752 88.2693 2.624 85.112C2.58133 83.576 2.56 82.2107 2.56 81.016C2.56 79.8213 2.58133 78.4773 2.624 76.984V76.728C2.70933 76.2587 2.752 75.8107 2.752 75.384C2.752 74.9147 2.77333 74.4667 2.816 74.04C2.816 73.1867 3.008 72.3333 3.392 71.48C3.648 70.84 4.096 70.328 4.736 69.944C5.07733 69.7307 5.39733 69.6027 5.696 69.56C6.03733 69.4747 6.4 69.3893 6.784 69.304C7.08267 69.304 7.36 69.3253 7.616 69.368C7.91467 69.4107 8.192 69.4533 8.448 69.496C9.00267 69.5813 9.51467 69.816 9.984 70.2C10.112 70.328 10.2187 70.4773 10.304 70.648C10.432 70.8187 10.5387 71.032 10.624 71.288C10.8373 71.6293 10.9867 72.12 11.072 72.76C11.1147 73.016 11.136 73.272 11.136 73.528C11.1787 73.784 11.2 74.0613 11.2 74.36V76.984L11.264 84.792C11.9467 84.1947 12.608 83.576 13.248 82.936C13.9307 82.296 14.592 81.6133 15.232 80.888C16.384 79.6933 17.5147 78.5413 18.624 77.432C19.776 76.28 20.928 75.1493 22.08 74.04L22.272 73.848C22.6133 73.5067 22.9547 73.1867 23.296 72.888C23.68 72.5467 24.0427 72.2267 24.384 71.928C25.024 71.2027 25.8133 70.6907 26.752 70.392C27.3493 70.008 28.0533 69.8587 28.864 69.944C29.248 69.9867 29.5893 70.072 29.888 70.2C30.2293 70.328 30.5493 70.4987 30.848 70.712C31.0613 70.9253 31.2747 71.1173 31.488 71.288C31.7013 71.416 31.872 71.5867 32 71.8C32.3413 72.0987 32.5547 72.5467 32.64 73.144C32.64 73.6133 32.5547 74.04 32.384 74.424C32.256 74.6373 32.128 74.8507 32 75.064C31.872 75.2773 31.7227 75.4907 31.552 75.704C31.3387 75.96 31.1467 76.1947 30.976 76.408C30.8053 76.6213 30.6133 76.8347 30.4 77.048C30.2293 77.2613 30.0373 77.4533 29.824 77.624C29.6533 77.7947 29.4827 77.9867 29.312 78.2L28.48 79.032L16.512 91.256C17.152 91.896 17.8133 92.5787 18.496 93.304C19.2213 93.9867 19.904 94.6693 20.544 95.352C21.184 95.992 21.7813 96.6107 22.336 97.208C22.8907 97.7627 23.36 98.232 23.744 98.616C24.896 99.8107 26.0053 101.005 27.072 102.2C28.1387 103.352 29.184 104.525 30.208 105.72L30.4 105.912C30.7413 106.253 31.0613 106.616 31.36 107C31.6587 107.341 31.936 107.683 32.192 108.024C32.832 108.749 33.28 109.539 33.536 110.392ZM47.0615 90.744C47.0615 91.9387 47.0615 93.2827 47.0615 94.776C47.1042 96.2693 47.1255 97.8267 47.1255 99.448C47.1255 101.027 47.1255 102.605 47.1255 104.184C47.1255 105.72 47.1042 107.149 47.0615 108.472C47.0188 109.112 46.9548 109.816 46.8695 110.584C46.7842 111.309 46.6135 111.992 46.3575 112.632C46.1015 113.272 45.6962 113.805 45.1415 114.232C44.6295 114.616 43.9255 114.787 43.0295 114.744C41.7068 114.659 40.7468 114.083 40.1495 113.016C39.5948 111.949 39.2748 110.456 39.1895 108.536C39.1895 107.555 39.1682 106.424 39.1255 105.144C39.1255 103.864 39.1042 102.563 39.0615 101.24C39.0615 99.9173 39.0615 98.6373 39.0615 97.4C39.0615 96.12 39.0615 94.968 39.0615 93.944C39.0615 93.3467 39.0402 92.6213 38.9975 91.768C38.9975 90.9147 39.0188 90.04 39.0615 89.144C39.1042 88.248 39.2108 87.3947 39.3815 86.584C39.5522 85.7307 39.8295 85.0267 40.2135 84.472C40.5122 84.1307 40.9388 83.8747 41.4935 83.704C42.0482 83.4907 42.6242 83.384 43.2215 83.384C43.8615 83.384 44.4588 83.4907 45.0135 83.704C45.6108 83.9173 46.0375 84.216 46.2935 84.6C46.4642 84.856 46.5922 85.2187 46.6775 85.688C46.7628 86.1573 46.8268 86.6907 46.8695 87.288C46.9548 87.8427 46.9975 88.44 46.9975 89.08C47.0402 89.6773 47.0615 90.232 47.0615 90.744ZM44.6295 77.816C43.3068 78.1573 42.1975 78.0293 41.3015 77.432C40.4482 76.792 39.9148 75.8533 39.7015 74.616C39.5308 73.72 39.5948 72.9307 39.8935 72.248C40.1922 71.5653 40.6402 71.0533 41.2375 70.712C41.8348 70.328 42.5175 70.1573 43.2855 70.2C44.0535 70.2427 44.8215 70.5413 45.5895 71.096C46.3148 71.608 46.8268 72.2053 47.1255 72.888C47.4668 73.5707 47.5735 74.232 47.4455 74.872C47.3602 75.512 47.0828 76.1093 46.6135 76.664C46.1442 77.176 45.4828 77.56 44.6295 77.816ZM53.4365 92.152C53.4365 91.1707 53.4152 90.1253 53.3725 89.016C53.3725 87.9067 53.5645 86.904 53.9485 86.008C54.2898 85.1973 54.8445 84.6213 55.6125 84.28C56.4232 83.896 57.2125 83.8107 57.9805 84.024C58.7485 84.152 59.3458 84.3867 59.7725 84.728C60.1992 85.0693 60.4978 85.4747 60.6685 85.944C60.8818 86.3707 61.0098 86.8827 61.0525 87.48C61.0952 88.0347 61.1378 88.5893 61.1805 89.144C61.6072 88.376 62.1405 87.7573 62.7805 87.288C63.4205 86.8187 64.0818 86.4347 64.7645 86.136C65.4472 85.8373 66.0872 85.624 66.6845 85.496C67.3245 85.368 67.8152 85.304 68.1565 85.304C69.7778 85.304 71.3778 85.6667 72.9565 86.392C74.5778 87.0747 75.9218 88.056 76.9885 89.336C77.5858 90.104 78.0338 90.9147 78.3325 91.768C78.6738 92.5787 78.9085 93.432 79.0365 94.328C79.2072 95.224 79.3138 96.1413 79.3565 97.08C79.3992 97.976 79.4418 98.8933 79.4845 99.832C79.6978 102.563 79.6978 105.272 79.4845 107.96C79.4418 108.515 79.4205 109.155 79.4205 109.88C79.4205 110.605 79.3565 111.331 79.2285 112.056C79.1432 112.739 78.9512 113.357 78.6525 113.912C78.3965 114.424 77.9485 114.744 77.3085 114.872C76.4125 115.085 75.6658 115.128 75.0685 115C74.5138 114.915 74.0658 114.723 73.7245 114.424C73.3832 114.125 73.1272 113.741 72.9565 113.272C72.7858 112.803 72.6365 112.269 72.5085 111.672C72.4232 111.203 72.3378 110.669 72.2525 110.072C72.2098 109.432 72.1672 108.792 72.1245 108.152C72.1245 107.512 72.1032 106.893 72.0605 106.296C72.0605 105.656 72.0605 105.08 72.0605 104.568C72.0605 103.757 72.0392 102.861 71.9965 101.88C71.9538 100.899 71.9538 99.9813 71.9965 99.128C71.9965 97.1227 71.4632 95.608 70.3965 94.584C69.3725 93.5173 67.9645 93.0693 66.1725 93.24C64.8072 93.4107 63.6125 93.9653 62.5885 94.904C61.5645 95.8 61.0738 96.9733 61.1165 98.424C61.1165 98.9787 61.1165 99.4907 61.1165 99.96C61.1165 100.429 61.0952 100.899 61.0525 101.368C61.0525 101.837 61.0525 102.349 61.0525 102.904C61.0525 103.459 61.0525 104.077 61.0525 104.76C61.0525 106.168 61.0525 107.661 61.0525 109.24C61.0525 110.776 60.8605 112.035 60.4765 113.016C60.1352 114.04 59.5592 114.744 58.7485 115.128C57.9378 115.512 56.9778 115.405 55.8685 114.808C55.3992 114.552 55.0152 114.211 54.7165 113.784C54.4605 113.315 54.2472 112.824 54.0765 112.312C53.9485 111.8 53.8632 111.288 53.8205 110.776C53.7778 110.221 53.7352 109.709 53.6925 109.24C53.5645 107.832 53.4792 106.531 53.4365 105.336C53.4365 104.099 53.4365 102.776 53.4365 101.368V92.152ZM111.37 102.904C111.37 104.269 111.327 105.741 111.242 107.32C111.199 108.899 111.135 110.371 111.05 111.736C111.05 113.016 110.986 114.296 110.858 115.576C110.773 116.685 110.602 117.88 110.346 119.16C110.09 120.483 109.727 121.699 109.258 122.808C108.661 124.259 107.85 125.496 106.826 126.52C105.802 127.587 104.479 128.355 102.858 128.824C101.493 129.165 100.213 129.379 99.018 129.464C97.8233 129.592 96.5433 129.571 95.178 129.4C94.282 129.272 93.322 129.016 92.298 128.632C91.274 128.291 90.314 127.843 89.418 127.288C88.522 126.733 87.7327 126.072 87.05 125.304C86.3673 124.579 85.898 123.747 85.642 122.808C85.3433 121.656 85.322 120.653 85.578 119.8C85.8767 118.947 86.3247 118.328 86.922 117.944C87.5193 117.56 88.2233 117.496 89.034 117.752C89.8447 118.008 90.6127 118.669 91.338 119.736C91.85 120.504 92.5967 121.123 93.578 121.592C94.5593 122.061 95.6047 122.339 96.714 122.424C97.8233 122.509 98.89 122.36 99.914 121.976C100.981 121.635 101.813 121.016 102.41 120.12C102.837 119.48 103.135 118.563 103.306 117.368C103.519 116.173 103.647 115 103.69 113.848C101.514 114.744 99.274 115.085 96.97 114.872C94.7087 114.616 92.6393 113.912 90.762 112.76C88.9273 111.565 87.434 109.987 86.282 108.024C85.1727 106.019 84.7033 103.757 84.874 101.24C85.002 99.064 85.45 97.016 86.218 95.096C87.0287 93.176 88.3513 91.576 90.186 90.296C91.6793 89.272 93.3647 88.6107 95.242 88.312C97.1193 87.9707 98.9327 87.8 100.682 87.8C101.706 87.8 102.709 87.8 103.69 87.8C104.714 87.8 105.653 87.928 106.506 88.184C107.359 88.44 108.127 88.8667 108.81 89.464C109.493 90.0613 110.005 90.936 110.346 92.088C110.901 93.88 111.199 95.6507 111.242 97.4C111.327 99.1493 111.37 100.984 111.37 102.904ZM99.018 108.216C99.4447 108.216 99.85 108.173 100.234 108.088C100.661 108.003 101.066 107.896 101.45 107.768C102.175 107.512 102.709 107.171 103.05 106.744C103.434 106.317 103.69 105.848 103.818 105.336C103.946 104.781 103.989 104.184 103.946 103.544C103.946 102.904 103.946 102.243 103.946 101.56C103.946 101.005 103.925 100.387 103.882 99.704C103.882 99.0213 103.839 98.3813 103.754 97.784C103.669 97.144 103.541 96.5893 103.37 96.12C103.199 95.6507 102.943 95.352 102.602 95.224C102.005 95.0533 101.322 94.9467 100.554 94.904C99.786 94.8187 99.018 94.8187 98.25 94.904C97.482 94.9467 96.7353 95.096 96.01 95.352C95.3273 95.5653 94.7513 95.864 94.282 96.248C93.642 96.8027 93.1513 97.4853 92.81 98.296C92.4687 99.1067 92.2553 99.96 92.17 100.856C92.1273 101.752 92.1913 102.627 92.362 103.48C92.5753 104.333 92.938 105.101 93.45 105.784C94.0473 106.637 94.858 107.256 95.882 107.64C96.906 108.024 97.9513 108.216 99.018 108.216ZM136.528 70.264C137.339 70.0507 138.043 70.0293 138.64 70.2C139.28 70.328 139.813 70.6053 140.24 71.032C140.709 71.4587 141.051 71.992 141.264 72.632C141.52 73.272 141.648 73.976 141.648 74.744C141.691 76.8773 141.691 78.5413 141.648 79.736C141.648 80.9307 141.648 81.976 141.648 82.872V102.52C141.648 104.824 141.648 106.744 141.648 108.28C141.648 109.816 141.563 111.075 141.392 112.056C141.264 112.995 141.008 113.699 140.624 114.168C140.283 114.637 139.749 114.957 139.024 115.128C138.299 115.341 137.339 115.448 136.144 115.448C134.992 115.448 133.541 115.448 131.792 115.448C127.184 115.448 123.536 114.36 120.848 112.184C118.203 110.008 116.795 106.552 116.624 101.816C116.539 99.768 116.795 97.8907 117.392 96.184C117.989 94.4773 118.864 93.0267 120.016 91.832C121.211 90.5947 122.661 89.656 124.368 89.016C126.117 88.3333 128.101 88.0133 130.32 88.056H133.84V76.6C133.84 75.9173 133.84 75.256 133.84 74.616C133.84 73.9333 133.904 73.3147 134.032 72.76C134.16 72.1627 134.416 71.6507 134.8 71.224C135.184 70.7973 135.76 70.4773 136.528 70.264ZM125.392 105.784C126.288 107.021 127.909 107.704 130.256 107.832C130.725 107.875 131.173 107.896 131.6 107.896C132.027 107.853 132.411 107.789 132.752 107.704C133.136 107.661 133.499 107.597 133.84 107.512V95.672C132.347 95.416 130.981 95.2667 129.744 95.224C128.549 95.1387 127.355 95.5653 126.16 96.504C125.52 97.016 125.029 97.6773 124.688 98.488C124.347 99.256 124.155 100.088 124.112 100.984C124.069 101.837 124.155 102.691 124.368 103.544C124.581 104.397 124.923 105.144 125.392 105.784ZM155.066 86.072C156.474 85.3893 157.946 84.8987 159.482 84.6C161.018 84.3013 162.533 84.2373 164.026 84.408C165.562 84.5787 167.034 84.984 168.442 85.624C169.893 86.264 171.215 87.16 172.41 88.312C173.391 89.2933 174.245 90.488 174.97 91.896C175.695 93.2613 176.229 94.6053 176.57 95.928C177.295 98.2747 177.402 100.643 176.89 103.032C176.378 105.421 175.503 107.64 174.266 109.688C173.669 110.627 172.922 111.48 172.026 112.248C171.173 112.973 170.255 113.571 169.274 114.04C167.994 114.637 166.607 115.043 165.114 115.256C163.621 115.512 162.17 115.576 160.762 115.448C158.202 115.32 155.941 114.68 153.978 113.528C152.058 112.376 150.501 110.904 149.306 109.112C148.154 107.32 147.386 105.293 147.002 103.032C146.661 100.728 146.81 98.3813 147.45 95.992C148.133 93.432 149.114 91.3627 150.394 89.784C151.717 88.1627 153.274 86.9253 155.066 86.072ZM156.986 94.648C156.346 95.2453 155.855 95.992 155.514 96.888C155.173 97.784 154.959 98.7227 154.874 99.704C154.789 100.643 154.853 101.603 155.066 102.584C155.322 103.523 155.706 104.376 156.218 105.144C156.645 105.784 157.413 106.317 158.522 106.744C159.631 107.171 160.783 107.427 161.978 107.512C163.343 107.597 164.538 107.235 165.562 106.424C166.586 105.571 167.354 104.525 167.866 103.288C168.421 102.051 168.677 100.707 168.634 99.256C168.591 97.8053 168.207 96.4827 167.482 95.288C166.97 94.4347 166.245 93.816 165.306 93.432C164.41 93.0053 163.45 92.792 162.426 92.792C161.445 92.7493 160.463 92.8987 159.482 93.24C158.501 93.5387 157.669 94.008 156.986 94.648ZM216.998 100.088C217.083 101.453 217.126 102.755 217.126 103.992C217.126 105.187 217.083 106.467 216.998 107.832C216.998 108.344 216.998 108.92 216.998 109.56C216.998 110.2 216.955 110.819 216.87 111.416C216.785 112.013 216.635 112.568 216.422 113.08C216.209 113.592 215.889 113.997 215.462 114.296C214.95 114.637 214.374 114.872 213.734 115C213.094 115.085 212.497 115.043 211.942 114.872C211.387 114.701 210.897 114.381 210.47 113.912C210.086 113.443 209.873 112.781 209.83 111.928C209.702 109.965 209.638 108.003 209.638 106.04C209.638 105.059 209.617 104.12 209.574 103.224C209.574 102.328 209.595 101.069 209.638 99.448C209.638 98.6373 209.574 97.72 209.446 96.696C209.318 95.6293 208.998 94.8827 208.486 94.456C208.102 94.1147 207.675 93.9227 207.206 93.88C206.737 93.7947 206.267 93.8373 205.798 94.008C205.371 94.1787 204.987 94.4987 204.646 94.968C204.305 95.3947 204.07 95.9493 203.942 96.632C203.942 97.1867 203.921 97.7627 203.878 98.36C203.878 98.9147 203.899 99.448 203.942 99.96C203.985 101.325 204.006 102.627 204.006 103.864C204.006 105.059 203.985 106.339 203.942 107.704C203.899 108.259 203.878 108.856 203.878 109.496C203.921 110.136 203.921 110.776 203.878 111.416C203.835 112.013 203.707 112.568 203.494 113.08C203.323 113.592 203.003 113.997 202.534 114.296C202.022 114.637 201.467 114.851 200.87 114.936C200.315 114.979 199.782 114.893 199.27 114.68C198.801 114.424 198.374 114.04 197.99 113.528C197.649 113.016 197.457 112.333 197.414 111.48C197.329 110.499 197.265 109.603 197.222 108.792C197.222 107.939 197.222 107.043 197.222 106.104C197.222 105.123 197.243 104.12 197.286 103.096C197.329 102.029 197.307 101.005 197.222 100.024C197.222 99.7253 197.201 99.384 197.158 99C197.158 98.5733 197.137 98.1467 197.094 97.72C197.094 97.2933 197.051 96.888 196.966 96.504C196.923 96.0773 196.838 95.736 196.71 95.48C196.369 94.8827 195.75 94.4987 194.854 94.328C194.001 94.1573 193.275 94.2213 192.678 94.52C192.081 94.8187 191.633 95.2027 191.334 95.672C191.035 96.1413 190.822 96.6533 190.694 97.208C190.566 97.7627 190.502 98.36 190.502 99C190.502 99.5973 190.502 100.173 190.502 100.728C190.502 103.501 190.502 105.912 190.502 107.96C190.545 109.965 190.331 111.587 189.862 112.824C189.649 113.464 189.201 113.955 188.518 114.296C187.878 114.637 187.174 114.808 186.406 114.808C185.681 114.808 184.998 114.637 184.358 114.296C183.718 113.955 183.291 113.421 183.078 112.696C182.95 112.227 182.822 111.565 182.694 110.712C182.609 109.816 182.545 108.835 182.502 107.768C182.459 106.701 182.438 105.635 182.438 104.568C182.438 103.459 182.438 102.456 182.438 101.56V92.344C182.395 91.3627 182.374 90.296 182.374 89.144C182.374 87.992 182.545 86.9467 182.886 86.008C183.185 85.1973 183.654 84.6853 184.294 84.472C184.934 84.216 185.595 84.1093 186.278 84.152C187.046 84.152 187.643 84.3653 188.07 84.792C188.539 85.176 188.881 85.6667 189.094 86.264C189.307 86.8187 189.435 87.4587 189.478 88.184C189.521 88.8667 189.563 89.528 189.606 90.168C190.075 89.1013 190.63 88.2267 191.27 87.544C191.953 86.8187 192.913 86.3493 194.15 86.136C197.307 85.5387 199.825 86.3493 201.702 88.568C202.555 87.7147 203.643 87.0107 204.966 86.456C205.99 86.072 207.035 85.9013 208.102 85.944C209.169 85.944 210.171 86.136 211.11 86.52C212.091 86.904 212.966 87.4587 213.734 88.184C214.545 88.9093 215.185 89.784 215.654 90.808C216.294 92.1733 216.657 93.688 216.742 95.352C216.827 97.016 216.913 98.5947 216.998 100.088ZM242.6 85.112C243.325 84.9413 244.05 84.984 244.776 85.24C245.544 85.496 246.248 85.9227 246.888 86.52C247.186 86.8187 247.4 87.1813 247.528 87.608C247.698 88.0347 247.784 88.4827 247.784 88.952C247.784 89.464 247.698 90.0187 247.528 90.616C247.4 91.1707 247.208 91.5973 246.952 91.896C246.61 92.28 246.162 92.5787 245.608 92.792C245.053 93.0053 244.52 93.1547 244.008 93.24C243.496 93.2827 243.048 93.304 242.664 93.304C242.322 93.304 242.13 93.304 242.088 93.304L229.544 93.368C229.032 93.4107 228.498 93.4533 227.944 93.496C227.432 93.496 226.92 93.4747 226.408 93.432C225.896 93.3467 225.405 93.2187 224.936 93.048C224.509 92.8347 224.104 92.5573 223.72 92.216C223.25 91.7467 222.888 91.2987 222.632 90.872C222.376 90.4027 222.248 89.8693 222.248 89.272C222.248 88.5467 222.44 87.8427 222.824 87.16C223.25 86.4347 223.826 85.944 224.552 85.688C225.448 85.304 226.365 85.1333 227.304 85.176C228.285 85.176 229.266 85.1547 230.248 85.112H242.6ZM286.544 104.248C287.099 105.485 287.12 106.701 286.608 107.896C286.096 109.048 285.285 110.115 284.176 111.096C283.067 112.077 281.787 112.931 280.336 113.656C278.928 114.381 277.584 114.893 276.304 115.192C274.896 115.491 273.403 115.619 271.824 115.576C270.288 115.576 268.731 115.384 267.152 115C265.616 114.659 264.101 114.147 262.608 113.464C261.157 112.739 259.813 111.864 258.576 110.84C257.083 109.603 255.909 108.131 255.056 106.424C254.245 104.675 253.648 102.819 253.264 100.856C252.88 98.8933 252.667 96.9307 252.624 94.968C252.624 92.9627 252.688 91.0853 252.816 89.336C252.944 87.7573 253.264 86.1147 253.776 84.408C254.288 82.7013 254.992 81.0373 255.888 79.416C256.827 77.752 257.936 76.216 259.216 74.808C260.539 73.4 262.075 72.2053 263.824 71.224C265.147 70.456 266.619 69.944 268.24 69.688C269.904 69.3893 271.568 69.3253 273.232 69.496C274.939 69.624 276.539 69.9867 278.032 70.584C279.568 71.1387 280.869 71.9067 281.936 72.888C282.619 73.4853 283.323 74.3173 284.048 75.384C284.816 76.4507 285.371 77.5387 285.712 78.648C286.053 79.7573 286.053 80.8027 285.712 81.784C285.413 82.7227 284.56 83.3627 283.152 83.704C282.555 83.8747 282.021 83.9173 281.552 83.832C281.083 83.704 280.656 83.512 280.272 83.256C279.888 82.9573 279.525 82.616 279.184 82.232C278.843 81.848 278.523 81.464 278.224 81.08C277.2 79.8427 276.005 79.0107 274.64 78.584C273.275 78.1147 271.909 78.008 270.544 78.264C269.221 78.4773 267.963 79.032 266.768 79.928C265.616 80.7813 264.72 81.8907 264.08 83.256C263.397 84.7067 262.843 86.3067 262.416 88.056C262.032 89.7627 261.819 91.512 261.776 93.304C261.733 95.0533 261.883 96.76 262.224 98.424C262.608 100.088 263.248 101.56 264.144 102.84C264.827 103.864 265.659 104.696 266.64 105.336C267.664 105.976 268.752 106.424 269.904 106.68C271.056 106.936 272.208 106.979 273.36 106.808C274.555 106.637 275.707 106.253 276.816 105.656C277.157 105.485 277.52 105.251 277.904 104.952C278.331 104.611 278.757 104.269 279.184 103.928C279.611 103.587 280.037 103.267 280.464 102.968C280.933 102.669 281.424 102.456 281.936 102.328C282.704 102.072 283.536 102.093 284.432 102.392C285.371 102.691 286.075 103.309 286.544 104.248ZM300.635 109.88C300.592 110.093 300.549 110.307 300.507 110.52C300.507 110.691 300.507 110.883 300.507 111.096L300.123 112.44C300.037 112.611 299.973 112.717 299.931 112.76L299.739 113.144C299.525 113.613 299.141 113.997 298.587 114.296C297.563 114.808 296.475 114.936 295.323 114.68C294.597 114.595 294.021 114.381 293.595 114.04C293.168 113.741 292.869 113.379 292.699 112.952C292.528 112.525 292.4 112.099 292.315 111.672C292.187 111.245 292.123 110.861 292.123 110.52V74.68C292.123 74.3813 292.123 74.1253 292.123 73.912C292.165 73.656 292.208 73.4213 292.251 73.208C292.293 72.9093 292.336 72.6533 292.379 72.44C292.464 72.2267 292.549 71.992 292.635 71.736C292.763 71.3093 292.997 70.968 293.339 70.712C293.851 70.328 294.341 70.1147 294.811 70.072C295.109 69.9867 295.387 69.944 295.643 69.944C295.899 69.9013 296.197 69.88 296.539 69.88C297.136 69.88 297.819 70.0507 298.587 70.392C299.184 70.7333 299.611 71.2027 299.867 71.8C300.293 72.6533 300.507 73.4427 300.507 74.168C300.549 74.5947 300.571 75.2347 300.571 76.088C300.613 76.9413 300.635 77.5813 300.635 78.008V78.264C300.72 79.6293 300.763 80.952 300.763 82.232C300.763 83.4693 300.741 84.8347 300.699 86.328C300.699 87.7787 300.677 89.1867 300.635 90.552C300.635 91.8747 300.635 93.1973 300.635 94.52V107.96C300.635 108.131 300.635 108.301 300.635 108.472C300.677 108.6 300.699 108.749 300.699 108.92C300.699 109.347 300.677 109.667 300.635 109.88ZM314.129 86.072C315.537 85.3893 317.009 84.8987 318.545 84.6C320.081 84.3013 321.595 84.2373 323.089 84.408C324.625 84.5787 326.097 84.984 327.505 85.624C328.955 86.264 330.278 87.16 331.473 88.312C332.454 89.2933 333.307 90.488 334.033 91.896C334.758 93.2613 335.291 94.6053 335.632 95.928C336.358 98.2747 336.465 100.643 335.953 103.032C335.441 105.421 334.566 107.64 333.329 109.688C332.731 110.627 331.985 111.48 331.089 112.248C330.235 112.973 329.318 113.571 328.337 114.04C327.057 114.637 325.67 115.043 324.177 115.256C322.683 115.512 321.233 115.576 319.825 115.448C317.265 115.32 315.003 114.68 313.041 113.528C311.121 112.376 309.563 110.904 308.369 109.112C307.217 107.32 306.449 105.293 306.065 103.032C305.723 100.728 305.873 98.3813 306.513 95.992C307.195 93.432 308.177 91.3627 309.457 89.784C310.779 88.1627 312.337 86.9253 314.129 86.072ZM316.049 94.648C315.409 95.2453 314.918 95.992 314.577 96.888C314.235 97.784 314.022 98.7227 313.937 99.704C313.851 100.643 313.915 101.603 314.129 102.584C314.385 103.523 314.769 104.376 315.281 105.144C315.707 105.784 316.475 106.317 317.585 106.744C318.694 107.171 319.846 107.427 321.041 107.512C322.406 107.597 323.601 107.235 324.625 106.424C325.649 105.571 326.417 104.525 326.929 103.288C327.483 102.051 327.739 100.707 327.697 99.256C327.654 97.8053 327.27 96.4827 326.545 95.288C326.033 94.4347 325.307 93.816 324.369 93.432C323.473 93.0053 322.513 92.792 321.489 92.792C320.507 92.7493 319.526 92.8987 318.545 93.24C317.563 93.5387 316.731 94.008 316.049 94.648ZM367.677 99.768C367.591 101.176 367.506 102.605 367.421 104.056C367.335 105.464 367.101 106.829 366.717 108.152C366.375 109.475 365.821 110.669 365.053 111.736C364.327 112.803 363.282 113.656 361.917 114.296C360.722 114.893 359.442 115.299 358.077 115.512C356.711 115.768 355.346 115.875 353.981 115.832C352.615 115.789 351.293 115.576 350.013 115.192C348.733 114.851 347.581 114.36 346.557 113.72C345.533 113.08 344.701 112.248 344.061 111.224C343.421 110.2 342.909 109.091 342.525 107.896C342.183 106.701 341.949 105.464 341.821 104.184C341.693 102.904 341.607 101.709 341.565 100.6C341.394 97.656 341.394 94.7547 341.565 91.896C341.565 91.3413 341.565 90.7227 341.565 90.04C341.565 89.3147 341.607 88.6107 341.693 87.928C341.821 87.2453 342.013 86.6267 342.269 86.072C342.525 85.4747 342.951 85.0267 343.549 84.728C344.829 84.0453 346.002 84.0027 347.069 84.6C348.178 85.1973 348.839 86.4347 349.053 88.312C349.181 89.2933 349.223 90.3813 349.181 91.576C349.181 92.7707 349.223 93.8587 349.309 94.84C349.351 96.2907 349.394 97.8693 349.437 99.576C349.479 101.24 349.714 102.733 350.141 104.056C350.61 105.379 351.357 106.381 352.381 107.064C353.447 107.704 355.026 107.725 357.117 107.128C358.098 106.829 358.738 106.083 359.037 104.888C359.378 103.693 359.549 101.923 359.549 99.576C359.549 98.552 359.527 97.4213 359.485 96.184C359.442 94.9467 359.421 93.7307 359.421 92.536C359.421 91.2987 359.442 90.168 359.485 89.144C359.57 88.0773 359.698 87.2667 359.869 86.712C360.082 85.944 360.53 85.368 361.213 84.984C361.895 84.6 362.621 84.408 363.389 84.408C364.157 84.3653 364.882 84.5147 365.565 84.856C366.247 85.1973 366.717 85.752 366.973 86.52C367.229 87.2027 367.399 88.0773 367.485 89.144C367.613 90.168 367.698 91.2987 367.741 92.536C367.783 93.7307 367.783 94.968 367.741 96.248C367.741 97.4853 367.719 98.6587 367.677 99.768ZM392.903 70.264C393.714 70.0507 394.418 70.0293 395.015 70.2C395.655 70.328 396.188 70.6053 396.615 71.032C397.084 71.4587 397.426 71.992 397.639 72.632C397.895 73.272 398.023 73.976 398.023 74.744C398.066 76.8773 398.066 78.5413 398.023 79.736C398.023 80.9307 398.023 81.976 398.023 82.872V102.52C398.023 104.824 398.023 106.744 398.023 108.28C398.023 109.816 397.938 111.075 397.767 112.056C397.639 112.995 397.383 113.699 396.999 114.168C396.658 114.637 396.124 114.957 395.399 115.128C394.674 115.341 393.714 115.448 392.519 115.448C391.367 115.448 389.916 115.448 388.167 115.448C383.559 115.448 379.911 114.36 377.223 112.184C374.578 110.008 373.17 106.552 372.999 101.816C372.914 99.768 373.17 97.8907 373.767 96.184C374.364 94.4773 375.239 93.0267 376.391 91.832C377.586 90.5947 379.036 89.656 380.743 89.016C382.492 88.3333 384.476 88.0133 386.695 88.056H390.215V76.6C390.215 75.9173 390.215 75.256 390.215 74.616C390.215 73.9333 390.279 73.3147 390.407 72.76C390.535 72.1627 390.791 71.6507 391.175 71.224C391.559 70.7973 392.135 70.4773 392.903 70.264ZM381.767 105.784C382.663 107.021 384.284 107.704 386.631 107.832C387.1 107.875 387.548 107.896 387.975 107.896C388.402 107.853 388.786 107.789 389.127 107.704C389.511 107.661 389.874 107.597 390.215 107.512V95.672C388.722 95.416 387.356 95.2667 386.119 95.224C384.924 95.1387 383.73 95.5653 382.535 96.504C381.895 97.016 381.404 97.6773 381.063 98.488C380.722 99.256 380.53 100.088 380.487 100.984C380.444 101.837 380.53 102.691 380.743 103.544C380.956 104.397 381.298 105.144 381.767 105.784Z" fill="white"/>
<path fill-rule="evenodd" clip-rule="evenodd" d="M384.153 49.9988L385.252 57.9119L391.888 53.4648C392.062 53.3489 392.235 53.234 392.41 53.1203L394.73 51.6068L394.677 48.8374C394.671 48.5589 394.669 48.2797 394.669 48C394.669 24.2518 413.921 5 437.669 5C461.417 5 480.669 24.2518 480.669 48C480.669 59.166 476.419 69.3279 469.441 76.9752L467.523 79.0772L468.35 81.7999C469.855 86.7504 470.669 92.0225 470.669 97.5C470.669 104.676 469.273 111.502 466.752 117.716L465.115 121.751L468.886 123.927C477.733 129.031 483.669 138.575 483.669 149.5C483.669 165.792 470.461 179 454.169 179C439.481 179 427.292 168.261 425.042 154.208L424.362 149.965L420.066 149.998C419.933 149.999 419.801 150 419.669 150C409.25 150 399.567 146.789 391.488 141.264L385.158 136.935L383.751 144.474C379.21 168.791 358.427 187 333.669 187C309.444 187 289.026 169.57 283.903 146.035L282.416 139.205L276.433 142.819C268.87 147.386 260.071 150 250.669 150C237.482 150 225.42 144.83 216.34 136.324C215.276 137.61 214.162 138.852 213 140.048C222.947 149.337 236.164 155 250.669 155C259.174 155 267.235 153.053 274.455 149.57C276.017 148.817 277.539 147.992 279.017 147.099C279.388 148.801 279.832 150.475 280.346 152.117C287.591 175.256 308.726 192 333.669 192C359.161 192 380.675 174.511 387.45 150.58C387.93 148.882 388.337 147.151 388.666 145.391C390.13 146.393 391.644 147.326 393.201 148.185C401.083 152.533 410.095 155 419.669 155L419.811 155C419.909 155 420.007 154.999 420.105 154.998C422.738 171.439 436.986 184 454.169 184C473.223 184 488.669 168.554 488.669 149.5C488.669 136.716 481.716 125.556 471.385 119.596C474.145 112.793 475.669 105.329 475.669 97.5C475.669 91.5252 474.781 85.7632 473.134 80.3455C480.92 71.8132 485.669 60.4611 485.669 48C485.669 21.4903 464.178 0 437.669 0C415.172 0 396.291 15.4761 391.089 36.3626C390.161 40.0886 389.669 43.9868 389.669 48C389.669 48.3116 389.672 48.6224 389.678 48.9326C389.486 49.0576 389.295 49.1838 389.105 49.3111C389.088 49.1888 389.071 49.0666 389.053 48.9445C389.007 48.6288 388.959 48.314 388.908 48C388.89 47.8897 388.872 47.7794 388.854 47.6693C388.215 43.8625 387.212 40.1837 385.882 36.6722C377.756 15.2113 357.443 0 333.669 0C307.807 0 286.04 18.0005 279.603 42.4651C279.161 44.1445 278.791 45.8544 278.497 47.591C276.994 46.7055 275.447 45.8896 273.861 45.1474C266.794 41.8417 258.941 40 250.669 40C236.653 40 223.84 45.2869 214.018 54.0245C215.151 55.2472 216.236 56.5153 217.27 57.8258C226.235 49.8268 237.927 45 250.669 45C259.876 45 268.504 47.5071 275.959 51.899L282.216 55.5849L283.427 48.425C287.617 23.6602 308.607 5 333.669 5C359.259 5 380.606 24.4581 384.153 49.9988Z" fill="white"/>
</svg>
