<svg width="354" height="100" viewBox="0 0 354 100" fill="none" xmlns="http://www.w3.org/2000/svg">
<path d="M36.536 54.392C36.8773 55.032 36.8987 55.672 36.6 56.312C36.3867 56.9947 36.024 57.5067 35.512 57.848C35.256 58.0613 35.0213 58.2533 34.808 58.424C34.5947 58.552 34.36 58.6587 34.104 58.744C33.6347 59 33.08 59.0853 32.44 59C32.184 59 31.9493 58.9573 31.736 58.872C31.5227 58.7867 31.3093 58.68 31.096 58.552C30.8827 58.424 30.648 58.296 30.392 58.168C30.1787 57.9973 29.9653 57.8267 29.752 57.656C29.496 57.4427 29.2613 57.2507 29.048 57.08C28.8347 56.9093 28.6427 56.7173 28.472 56.504C28.2587 56.2907 28.0667 56.0773 27.896 55.864C27.7253 55.6507 27.5547 55.4587 27.384 55.288L26.616 54.456L14.328 41.592L14.52 54.456V55.032C14.52 55.2027 14.4987 55.3947 14.456 55.608C14.4133 55.7787 14.3707 55.9707 14.328 56.184C14.2 56.7387 14.0507 57.2293 13.88 57.656C13.7947 57.912 13.6667 58.1253 13.496 58.296C13.368 58.4667 13.2187 58.6373 13.048 58.808C12.5787 59.2347 12.024 59.4693 11.384 59.512C10.744 59.7253 10.1467 59.7893 9.592 59.704C9.08 59.6613 8.54667 59.512 7.992 59.256C7.56533 59 7.18133 58.5733 6.84 57.976C6.75467 57.8053 6.69067 57.6987 6.648 57.656C6.648 57.6133 6.60533 57.464 6.52 57.208C6.264 56.7813 6.136 56.3547 6.136 55.928C6.09333 55.672 6.05067 55.4373 6.008 55.224C6.008 55.0107 5.98667 54.776 5.944 54.52C5.90133 54.3493 5.88 54.1787 5.88 54.008C5.88 53.8373 5.88 53.6667 5.88 53.496C5.92267 53.2827 5.944 53.112 5.944 52.984C5.944 52.8133 5.944 52.6213 5.944 52.408L5.88 47.352L5.816 37.944C5.816 35.2133 5.752 32.2693 5.624 29.112C5.58133 27.576 5.56 26.2107 5.56 25.016C5.56 23.8213 5.58133 22.4773 5.624 20.984V20.728C5.70933 20.2587 5.752 19.8107 5.752 19.384C5.752 18.9147 5.77333 18.4667 5.816 18.04C5.816 17.1867 6.008 16.3333 6.392 15.48C6.648 14.84 7.096 14.328 7.736 13.944C8.07733 13.7307 8.39733 13.6027 8.696 13.56C9.03733 13.4747 9.4 13.3893 9.784 13.304C10.0827 13.304 10.36 13.3253 10.616 13.368C10.9147 13.4107 11.192 13.4533 11.448 13.496C12.0027 13.5813 12.5147 13.816 12.984 14.2C13.112 14.328 13.2187 14.4773 13.304 14.648C13.432 14.8187 13.5387 15.032 13.624 15.288C13.8373 15.6293 13.9867 16.12 14.072 16.76C14.1147 17.016 14.136 17.272 14.136 17.528C14.1787 17.784 14.2 18.0613 14.2 18.36V20.984L14.264 28.792C14.9467 28.1947 15.608 27.576 16.248 26.936C16.9307 26.296 17.592 25.6133 18.232 24.888C19.384 23.6933 20.5147 22.5413 21.624 21.432C22.776 20.28 23.928 19.1493 25.08 18.04L25.272 17.848C25.6133 17.5067 25.9547 17.1867 26.296 16.888C26.68 16.5467 27.0427 16.2267 27.384 15.928C28.024 15.2027 28.8133 14.6907 29.752 14.392C30.3493 14.008 31.0533 13.8587 31.864 13.944C32.248 13.9867 32.5893 14.072 32.888 14.2C33.2293 14.328 33.5493 14.4987 33.848 14.712C34.0613 14.9253 34.2747 15.1173 34.488 15.288C34.7013 15.416 34.872 15.5867 35 15.8C35.3413 16.0987 35.5547 16.5467 35.64 17.144C35.64 17.6133 35.5547 18.04 35.384 18.424C35.256 18.6373 35.128 18.8507 35 19.064C34.872 19.2773 34.7227 19.4907 34.552 19.704C34.3387 19.96 34.1467 20.1947 33.976 20.408C33.8053 20.6213 33.6133 20.8347 33.4 21.048C33.2293 21.2613 33.0373 21.4533 32.824 21.624C32.6533 21.7947 32.4827 21.9867 32.312 22.2L31.48 23.032L19.512 35.256C20.152 35.896 20.8133 36.5787 21.496 37.304C22.2213 37.9867 22.904 38.6693 23.544 39.352C24.184 39.992 24.7813 40.6107 25.336 41.208C25.8907 41.7627 26.36 42.232 26.744 42.616C27.896 43.8107 29.0053 45.0053 30.072 46.2C31.1387 47.352 32.184 48.5253 33.208 49.72L33.4 49.912C33.7413 50.2533 34.0613 50.616 34.36 51C34.6587 51.3413 34.936 51.6827 35.192 52.024C35.832 52.7493 36.28 53.5387 36.536 54.392ZM50.0615 34.744C50.0615 35.9387 50.0615 37.2827 50.0615 38.776C50.1042 40.2693 50.1255 41.8267 50.1255 43.448C50.1255 45.0267 50.1255 46.6053 50.1255 48.184C50.1255 49.72 50.1042 51.1493 50.0615 52.472C50.0188 53.112 49.9548 53.816 49.8695 54.584C49.7842 55.3093 49.6135 55.992 49.3575 56.632C49.1015 57.272 48.6962 57.8053 48.1415 58.232C47.6295 58.616 46.9255 58.7867 46.0295 58.744C44.7068 58.6587 43.7468 58.0827 43.1495 57.016C42.5948 55.9493 42.2748 54.456 42.1895 52.536C42.1895 51.5547 42.1682 50.424 42.1255 49.144C42.1255 47.864 42.1042 46.5627 42.0615 45.24C42.0615 43.9173 42.0615 42.6373 42.0615 41.4C42.0615 40.12 42.0615 38.968 42.0615 37.944C42.0615 37.3467 42.0402 36.6213 41.9975 35.768C41.9975 34.9147 42.0188 34.04 42.0615 33.144C42.1042 32.248 42.2108 31.3947 42.3815 30.584C42.5522 29.7307 42.8295 29.0267 43.2135 28.472C43.5122 28.1307 43.9388 27.8747 44.4935 27.704C45.0482 27.4907 45.6242 27.384 46.2215 27.384C46.8615 27.384 47.4588 27.4907 48.0135 27.704C48.6108 27.9173 49.0375 28.216 49.2935 28.6C49.4642 28.856 49.5922 29.2187 49.6775 29.688C49.7628 30.1573 49.8268 30.6907 49.8695 31.288C49.9548 31.8427 49.9975 32.44 49.9975 33.08C50.0402 33.6773 50.0615 34.232 50.0615 34.744ZM47.6295 21.816C46.3068 22.1573 45.1975 22.0293 44.3015 21.432C43.4482 20.792 42.9148 19.8533 42.7015 18.616C42.5308 17.72 42.5948 16.9307 42.8935 16.248C43.1922 15.5653 43.6402 15.0533 44.2375 14.712C44.8348 14.328 45.5175 14.1573 46.2855 14.2C47.0535 14.2427 47.8215 14.5413 48.5895 15.096C49.3148 15.608 49.8268 16.2053 50.1255 16.888C50.4668 17.5707 50.5735 18.232 50.4455 18.872C50.3602 19.512 50.0828 20.1093 49.6135 20.664C49.1442 21.176 48.4828 21.56 47.6295 21.816ZM56.4365 36.152C56.4365 35.1707 56.4152 34.1253 56.3725 33.016C56.3725 31.9067 56.5645 30.904 56.9485 30.008C57.2898 29.1973 57.8445 28.6213 58.6125 28.28C59.4232 27.896 60.2125 27.8107 60.9805 28.024C61.7485 28.152 62.3458 28.3867 62.7725 28.728C63.1992 29.0693 63.4978 29.4747 63.6685 29.944C63.8818 30.3707 64.0098 30.8827 64.0525 31.48C64.0952 32.0347 64.1378 32.5893 64.1805 33.144C64.6072 32.376 65.1405 31.7573 65.7805 31.288C66.4205 30.8187 67.0818 30.4347 67.7645 30.136C68.4472 29.8373 69.0872 29.624 69.6845 29.496C70.3245 29.368 70.8152 29.304 71.1565 29.304C72.7778 29.304 74.3778 29.6667 75.9565 30.392C77.5778 31.0747 78.9218 32.056 79.9885 33.336C80.5858 34.104 81.0338 34.9147 81.3325 35.768C81.6738 36.5787 81.9085 37.432 82.0365 38.328C82.2072 39.224 82.3138 40.1413 82.3565 41.08C82.3992 41.976 82.4418 42.8933 82.4845 43.832C82.6978 46.5627 82.6978 49.272 82.4845 51.96C82.4418 52.5147 82.4205 53.1547 82.4205 53.88C82.4205 54.6053 82.3565 55.3307 82.2285 56.056C82.1432 56.7387 81.9512 57.3573 81.6525 57.912C81.3965 58.424 80.9485 58.744 80.3085 58.872C79.4125 59.0853 78.6658 59.128 78.0685 59C77.5138 58.9147 77.0658 58.7227 76.7245 58.424C76.3832 58.1253 76.1272 57.7413 75.9565 57.272C75.7858 56.8027 75.6365 56.2693 75.5085 55.672C75.4232 55.2027 75.3378 54.6693 75.2525 54.072C75.2098 53.432 75.1672 52.792 75.1245 52.152C75.1245 51.512 75.1032 50.8933 75.0605 50.296C75.0605 49.656 75.0605 49.08 75.0605 48.568C75.0605 47.7573 75.0392 46.8613 74.9965 45.88C74.9538 44.8987 74.9538 43.9813 74.9965 43.128C74.9965 41.1227 74.4632 39.608 73.3965 38.584C72.3725 37.5173 70.9645 37.0693 69.1725 37.24C67.8072 37.4107 66.6125 37.9653 65.5885 38.904C64.5645 39.8 64.0738 40.9733 64.1165 42.424C64.1165 42.9787 64.1165 43.4907 64.1165 43.96C64.1165 44.4293 64.0952 44.8987 64.0525 45.368C64.0525 45.8373 64.0525 46.3493 64.0525 46.904C64.0525 47.4587 64.0525 48.0773 64.0525 48.76C64.0525 50.168 64.0525 51.6613 64.0525 53.24C64.0525 54.776 63.8605 56.0347 63.4765 57.016C63.1352 58.04 62.5592 58.744 61.7485 59.128C60.9378 59.512 59.9778 59.4053 58.8685 58.808C58.3992 58.552 58.0152 58.2107 57.7165 57.784C57.4605 57.3147 57.2472 56.824 57.0765 56.312C56.9485 55.8 56.8632 55.288 56.8205 54.776C56.7778 54.2213 56.7352 53.7093 56.6925 53.24C56.5645 51.832 56.4792 50.5307 56.4365 49.336C56.4365 48.0987 56.4365 46.776 56.4365 45.368V36.152ZM114.37 46.904C114.37 48.2693 114.327 49.7413 114.242 51.32C114.199 52.8987 114.135 54.3707 114.05 55.736C114.05 57.016 113.986 58.296 113.858 59.576C113.773 60.6853 113.602 61.88 113.346 63.16C113.09 64.4827 112.727 65.6987 112.258 66.808C111.661 68.2587 110.85 69.496 109.826 70.52C108.802 71.5867 107.479 72.3547 105.858 72.824C104.493 73.1653 103.213 73.3787 102.018 73.464C100.823 73.592 99.5433 73.5707 98.178 73.4C97.282 73.272 96.322 73.016 95.298 72.632C94.274 72.2907 93.314 71.8427 92.418 71.288C91.522 70.7333 90.7327 70.072 90.05 69.304C89.3673 68.5787 88.898 67.7467 88.642 66.808C88.3433 65.656 88.322 64.6533 88.578 63.8C88.8767 62.9467 89.3247 62.328 89.922 61.944C90.5193 61.56 91.2233 61.496 92.034 61.752C92.8447 62.008 93.6127 62.6693 94.338 63.736C94.85 64.504 95.5967 65.1227 96.578 65.592C97.5593 66.0613 98.6047 66.3387 99.714 66.424C100.823 66.5093 101.89 66.36 102.914 65.976C103.981 65.6347 104.813 65.016 105.41 64.12C105.837 63.48 106.135 62.5627 106.306 61.368C106.519 60.1733 106.647 59 106.69 57.848C104.514 58.744 102.274 59.0853 99.97 58.872C97.7087 58.616 95.6393 57.912 93.762 56.76C91.9273 55.5653 90.434 53.9867 89.282 52.024C88.1727 50.0187 87.7033 47.7573 87.874 45.24C88.002 43.064 88.45 41.016 89.218 39.096C90.0287 37.176 91.3513 35.576 93.186 34.296C94.6793 33.272 96.3647 32.6107 98.242 32.312C100.119 31.9707 101.933 31.8 103.682 31.8C104.706 31.8 105.709 31.8 106.69 31.8C107.714 31.8 108.653 31.928 109.506 32.184C110.359 32.44 111.127 32.8667 111.81 33.464C112.493 34.0613 113.005 34.936 113.346 36.088C113.901 37.88 114.199 39.6507 114.242 41.4C114.327 43.1493 114.37 44.984 114.37 46.904ZM102.018 52.216C102.445 52.216 102.85 52.1733 103.234 52.088C103.661 52.0027 104.066 51.896 104.45 51.768C105.175 51.512 105.709 51.1707 106.05 50.744C106.434 50.3173 106.69 49.848 106.818 49.336C106.946 48.7813 106.989 48.184 106.946 47.544C106.946 46.904 106.946 46.2427 106.946 45.56C106.946 45.0053 106.925 44.3867 106.882 43.704C106.882 43.0213 106.839 42.3813 106.754 41.784C106.669 41.144 106.541 40.5893 106.37 40.12C106.199 39.6507 105.943 39.352 105.602 39.224C105.005 39.0533 104.322 38.9467 103.554 38.904C102.786 38.8187 102.018 38.8187 101.25 38.904C100.482 38.9467 99.7353 39.096 99.01 39.352C98.3273 39.5653 97.7513 39.864 97.282 40.248C96.642 40.8027 96.1513 41.4853 95.81 42.296C95.4687 43.1067 95.2553 43.96 95.17 44.856C95.1273 45.752 95.1913 46.6267 95.362 47.48C95.5753 48.3333 95.938 49.1013 96.45 49.784C97.0473 50.6373 97.858 51.256 98.882 51.64C99.906 52.024 100.951 52.216 102.018 52.216ZM139.528 14.264C140.339 14.0507 141.043 14.0293 141.64 14.2C142.28 14.328 142.813 14.6053 143.24 15.032C143.709 15.4587 144.051 15.992 144.264 16.632C144.52 17.272 144.648 17.976 144.648 18.744C144.691 20.8773 144.691 22.5413 144.648 23.736C144.648 24.9307 144.648 25.976 144.648 26.872V46.52C144.648 48.824 144.648 50.744 144.648 52.28C144.648 53.816 144.563 55.0747 144.392 56.056C144.264 56.9947 144.008 57.6987 143.624 58.168C143.283 58.6373 142.749 58.9573 142.024 59.128C141.299 59.3413 140.339 59.448 139.144 59.448C137.992 59.448 136.541 59.448 134.792 59.448C130.184 59.448 126.536 58.36 123.848 56.184C121.203 54.008 119.795 50.552 119.624 45.816C119.539 43.768 119.795 41.8907 120.392 40.184C120.989 38.4773 121.864 37.0267 123.016 35.832C124.211 34.5947 125.661 33.656 127.368 33.016C129.117 32.3333 131.101 32.0133 133.32 32.056H136.84V20.6C136.84 19.9173 136.84 19.256 136.84 18.616C136.84 17.9333 136.904 17.3147 137.032 16.76C137.16 16.1627 137.416 15.6507 137.8 15.224C138.184 14.7973 138.76 14.4773 139.528 14.264ZM128.392 49.784C129.288 51.0213 130.909 51.704 133.256 51.832C133.725 51.8747 134.173 51.896 134.6 51.896C135.027 51.8533 135.411 51.7893 135.752 51.704C136.136 51.6613 136.499 51.5973 136.84 51.512V39.672C135.347 39.416 133.981 39.2667 132.744 39.224C131.549 39.1387 130.355 39.5653 129.16 40.504C128.52 41.016 128.029 41.6773 127.688 42.488C127.347 43.256 127.155 44.088 127.112 44.984C127.069 45.8373 127.155 46.6907 127.368 47.544C127.581 48.3973 127.923 49.144 128.392 49.784ZM158.066 30.072C159.474 29.3893 160.946 28.8987 162.482 28.6C164.018 28.3013 165.533 28.2373 167.026 28.408C168.562 28.5787 170.034 28.984 171.442 29.624C172.893 30.264 174.215 31.16 175.41 32.312C176.391 33.2933 177.245 34.488 177.97 35.896C178.695 37.2613 179.229 38.6053 179.57 39.928C180.295 42.2747 180.402 44.6427 179.89 47.032C179.378 49.4213 178.503 51.64 177.266 53.688C176.669 54.6267 175.922 55.48 175.026 56.248C174.173 56.9733 173.255 57.5707 172.274 58.04C170.994 58.6373 169.607 59.0427 168.114 59.256C166.621 59.512 165.17 59.576 163.762 59.448C161.202 59.32 158.941 58.68 156.978 57.528C155.058 56.376 153.501 54.904 152.306 53.112C151.154 51.32 150.386 49.2933 150.002 47.032C149.661 44.728 149.81 42.3813 150.45 39.992C151.133 37.432 152.114 35.3627 153.394 33.784C154.717 32.1627 156.274 30.9253 158.066 30.072ZM159.986 38.648C159.346 39.2453 158.855 39.992 158.514 40.888C158.173 41.784 157.959 42.7227 157.874 43.704C157.789 44.6427 157.853 45.6027 158.066 46.584C158.322 47.5227 158.706 48.376 159.218 49.144C159.645 49.784 160.413 50.3173 161.522 50.744C162.631 51.1707 163.783 51.4267 164.978 51.512C166.343 51.5973 167.538 51.2347 168.562 50.424C169.586 49.5707 170.354 48.5253 170.866 47.288C171.421 46.0507 171.677 44.7067 171.634 43.256C171.591 41.8053 171.207 40.4827 170.482 39.288C169.97 38.4347 169.245 37.816 168.306 37.432C167.41 37.0053 166.45 36.792 165.426 36.792C164.445 36.7493 163.463 36.8987 162.482 37.24C161.501 37.5387 160.669 38.008 159.986 38.648ZM219.998 44.088C220.083 45.4533 220.126 46.7547 220.126 47.992C220.126 49.1867 220.083 50.4667 219.998 51.832C219.998 52.344 219.998 52.92 219.998 53.56C219.998 54.2 219.955 54.8187 219.87 55.416C219.785 56.0133 219.635 56.568 219.422 57.08C219.209 57.592 218.889 57.9973 218.462 58.296C217.95 58.6373 217.374 58.872 216.734 59C216.094 59.0853 215.497 59.0427 214.942 58.872C214.387 58.7013 213.897 58.3813 213.47 57.912C213.086 57.4427 212.873 56.7813 212.83 55.928C212.702 53.9653 212.638 52.0027 212.638 50.04C212.638 49.0587 212.617 48.12 212.574 47.224C212.574 46.328 212.595 45.0693 212.638 43.448C212.638 42.6373 212.574 41.72 212.446 40.696C212.318 39.6293 211.998 38.8827 211.486 38.456C211.102 38.1147 210.675 37.9227 210.206 37.88C209.737 37.7947 209.267 37.8373 208.798 38.008C208.371 38.1787 207.987 38.4987 207.646 38.968C207.305 39.3947 207.07 39.9493 206.942 40.632C206.942 41.1867 206.921 41.7627 206.878 42.36C206.878 42.9147 206.899 43.448 206.942 43.96C206.985 45.3253 207.006 46.6267 207.006 47.864C207.006 49.0587 206.985 50.3387 206.942 51.704C206.899 52.2587 206.878 52.856 206.878 53.496C206.921 54.136 206.921 54.776 206.878 55.416C206.835 56.0133 206.707 56.568 206.494 57.08C206.323 57.592 206.003 57.9973 205.534 58.296C205.022 58.6373 204.467 58.8507 203.87 58.936C203.315 58.9787 202.782 58.8933 202.27 58.68C201.801 58.424 201.374 58.04 200.99 57.528C200.649 57.016 200.457 56.3333 200.414 55.48C200.329 54.4987 200.265 53.6027 200.222 52.792C200.222 51.9387 200.222 51.0427 200.222 50.104C200.222 49.1227 200.243 48.12 200.286 47.096C200.329 46.0293 200.307 45.0053 200.222 44.024C200.222 43.7253 200.201 43.384 200.158 43C200.158 42.5733 200.137 42.1467 200.094 41.72C200.094 41.2933 200.051 40.888 199.966 40.504C199.923 40.0773 199.838 39.736 199.71 39.48C199.369 38.8827 198.75 38.4987 197.854 38.328C197.001 38.1573 196.275 38.2213 195.678 38.52C195.081 38.8187 194.633 39.2027 194.334 39.672C194.035 40.1413 193.822 40.6533 193.694 41.208C193.566 41.7627 193.502 42.36 193.502 43C193.502 43.5973 193.502 44.1733 193.502 44.728C193.502 47.5013 193.502 49.912 193.502 51.96C193.545 53.9653 193.331 55.5867 192.862 56.824C192.649 57.464 192.201 57.9547 191.518 58.296C190.878 58.6373 190.174 58.808 189.406 58.808C188.681 58.808 187.998 58.6373 187.358 58.296C186.718 57.9547 186.291 57.4213 186.078 56.696C185.95 56.2267 185.822 55.5653 185.694 54.712C185.609 53.816 185.545 52.8347 185.502 51.768C185.459 50.7013 185.438 49.6347 185.438 48.568C185.438 47.4587 185.438 46.456 185.438 45.56V36.344C185.395 35.3627 185.374 34.296 185.374 33.144C185.374 31.992 185.545 30.9467 185.886 30.008C186.185 29.1973 186.654 28.6853 187.294 28.472C187.934 28.216 188.595 28.1093 189.278 28.152C190.046 28.152 190.643 28.3653 191.07 28.792C191.539 29.176 191.881 29.6667 192.094 30.264C192.307 30.8187 192.435 31.4587 192.478 32.184C192.521 32.8667 192.563 33.528 192.606 34.168C193.075 33.1013 193.63 32.2267 194.27 31.544C194.953 30.8187 195.913 30.3493 197.15 30.136C200.307 29.5387 202.825 30.3493 204.702 32.568C205.555 31.7147 206.643 31.0107 207.966 30.456C208.99 30.072 210.035 29.9013 211.102 29.944C212.169 29.944 213.171 30.136 214.11 30.52C215.091 30.904 215.966 31.4587 216.734 32.184C217.545 32.9093 218.185 33.784 218.654 34.808C219.294 36.1733 219.657 37.688 219.742 39.352C219.827 41.016 219.913 42.5947 219.998 44.088ZM245.6 29.112C246.325 28.9413 247.05 28.984 247.776 29.24C248.544 29.496 249.248 29.9227 249.888 30.52C250.186 30.8187 250.4 31.1813 250.528 31.608C250.698 32.0347 250.784 32.4827 250.784 32.952C250.784 33.464 250.698 34.0187 250.528 34.616C250.4 35.1707 250.208 35.5973 249.952 35.896C249.61 36.28 249.162 36.5787 248.608 36.792C248.053 37.0053 247.52 37.1547 247.008 37.24C246.496 37.2827 246.048 37.304 245.664 37.304C245.322 37.304 245.13 37.304 245.088 37.304L232.544 37.368C232.032 37.4107 231.498 37.4533 230.944 37.496C230.432 37.496 229.92 37.4747 229.408 37.432C228.896 37.3467 228.405 37.2187 227.936 37.048C227.509 36.8347 227.104 36.5573 226.72 36.216C226.25 35.7467 225.888 35.2987 225.632 34.872C225.376 34.4027 225.248 33.8693 225.248 33.272C225.248 32.5467 225.44 31.8427 225.824 31.16C226.25 30.4347 226.826 29.944 227.552 29.688C228.448 29.304 229.365 29.1333 230.304 29.176C231.285 29.176 232.266 29.1547 233.248 29.112H245.6ZM295.048 54.648C295.091 54.904 295.112 55.16 295.112 55.416C295.155 55.6293 295.176 55.8853 295.176 56.184C295.176 56.696 295.027 57.1653 294.728 57.592C294.6 57.8053 294.429 58.0187 294.216 58.232C294.003 58.4027 293.747 58.552 293.448 58.68C292.381 59.2773 291.251 59.4907 290.056 59.32C289.459 59.1493 288.925 58.872 288.456 58.488C288.371 58.4027 288.307 58.36 288.264 58.36C288.221 58.3173 288.179 58.2533 288.136 58.168C288.093 58.1253 288.051 58.0827 288.008 58.04C287.965 57.9547 287.901 57.8907 287.816 57.848C287.603 57.6347 287.432 57.4427 287.304 57.272C287.176 57.0587 287.048 56.8453 286.92 56.632C286.835 56.4187 286.728 56.2267 286.6 56.056C286.515 55.8427 286.408 55.6293 286.28 55.416C286.195 55.2453 286.109 55.096 286.024 54.968C285.939 54.7973 285.875 54.6267 285.832 54.456C285.661 54.072 285.555 53.7307 285.512 53.432L284.168 50.296C281.224 50.296 278.28 50.3173 275.336 50.36C272.435 50.36 269.512 50.3387 266.568 50.296L265.224 53.432C265.139 53.6027 265.075 53.7733 265.032 53.944C265.032 54.1147 264.989 54.2853 264.904 54.456C264.819 54.6267 264.733 54.7973 264.648 54.968C264.605 55.096 264.541 55.2453 264.456 55.416C264.328 55.6293 264.2 55.8427 264.072 56.056C263.987 56.2267 263.88 56.4187 263.752 56.632C263.667 56.8453 263.56 57.0587 263.432 57.272C263.304 57.4427 263.133 57.6347 262.92 57.848C262.835 57.8907 262.771 57.9547 262.728 58.04C262.685 58.0827 262.643 58.1253 262.6 58.168C262.557 58.2533 262.515 58.3173 262.472 58.36C262.429 58.36 262.365 58.4027 262.28 58.488C261.811 58.872 261.277 59.1493 260.68 59.32C259.485 59.4907 258.355 59.2773 257.288 58.68C256.989 58.552 256.733 58.4027 256.52 58.232C256.307 58.0187 256.136 57.8053 256.008 57.592C255.709 57.1653 255.56 56.696 255.56 56.184C255.56 55.8853 255.56 55.6293 255.56 55.416C255.603 55.16 255.645 54.904 255.688 54.648C255.773 54.264 255.88 53.88 256.008 53.496C256.136 53.112 256.2 52.92 256.2 52.92L269.512 20.152L269.896 19.128C269.981 18.872 270.088 18.6373 270.216 18.424C270.344 18.2107 270.451 17.9547 270.536 17.656C270.749 17.1013 270.984 16.6107 271.24 16.184C271.368 15.928 271.517 15.6933 271.688 15.48C271.859 15.2667 272.029 15.0533 272.2 14.84C272.456 14.4987 272.819 14.2213 273.288 14.008C273.885 13.7947 274.568 13.688 275.336 13.688C276.147 13.688 276.851 13.7947 277.448 14.008C277.917 14.2213 278.28 14.4987 278.536 14.84C278.835 15.224 279.155 15.672 279.496 16.184C279.752 16.6107 279.987 17.1013 280.2 17.656C280.285 17.9547 280.392 18.2107 280.52 18.424C280.648 18.6373 280.755 18.872 280.84 19.128L281.224 20.152L294.536 52.92C294.536 52.92 294.6 53.112 294.728 53.496C294.856 53.88 294.963 54.264 295.048 54.648ZM279.88 38.968C279.325 37.7307 278.749 36.4507 278.152 35.128C277.597 33.8053 277 32.4613 276.36 31.096C276.189 30.712 276.019 30.328 275.848 29.944C275.677 29.5173 275.507 29.112 275.336 28.728C275.208 29.112 275.059 29.5173 274.888 29.944C274.717 30.328 274.547 30.712 274.376 31.096C273.736 32.4613 273.117 33.8053 272.52 35.128C271.965 36.4507 271.411 37.7307 270.856 38.968L269.704 41.784H281.032L279.88 38.968ZM328.022 17.72C329.643 19.2133 330.838 21.0053 331.606 23.096C332.374 25.144 332.673 27.192 332.502 29.24C332.331 31.2027 331.713 33.016 330.646 34.68C329.579 36.3013 327.958 37.5387 325.782 38.392C324.075 39.1173 322.39 39.6293 320.726 39.928C319.062 40.2267 317.227 40.4613 315.222 40.632C314.326 40.7173 313.558 40.7813 312.918 40.824C312.321 40.824 311.617 40.8453 310.806 40.888C310.635 40.888 310.337 40.888 309.91 40.888C309.526 40.888 309.249 40.9093 309.078 40.952V54.2C308.95 55.0107 308.779 55.8427 308.566 56.696C308.395 57.5493 307.905 58.2107 307.094 58.68C306.625 58.936 306.049 59.0853 305.366 59.128C304.683 59.1707 304.065 59.1493 303.51 59.064C302.913 58.9787 302.401 58.8293 301.974 58.616C301.59 58.36 301.27 57.9333 301.014 57.336C300.843 56.952 300.673 56.5253 300.502 56.056C300.374 55.544 300.31 54.9253 300.31 54.2V18.808C300.31 18.5093 300.331 18.232 300.374 17.976C300.417 17.72 300.459 17.464 300.502 17.208C300.587 16.9947 300.651 16.76 300.694 16.504C300.737 16.248 300.801 16.0133 300.886 15.8C300.971 15.5867 301.057 15.3947 301.142 15.224C301.27 15.0533 301.419 14.904 301.59 14.776C301.803 14.5627 302.123 14.3707 302.55 14.2C303.019 14.0293 303.702 13.944 304.598 13.944H304.726C306.049 13.8587 307.521 13.7947 309.142 13.752C310.763 13.6667 312.107 13.688 313.174 13.816C313.771 13.9013 314.326 13.9653 314.838 14.008C315.35 14.008 315.841 14.0293 316.31 14.072C316.822 14.1147 317.334 14.1573 317.846 14.2C318.358 14.2427 318.87 14.3067 319.382 14.392C319.809 14.4773 320.193 14.5413 320.534 14.584C320.918 14.6267 321.302 14.6907 321.686 14.776C322.027 14.8613 322.39 14.9467 322.774 15.032C323.201 15.1173 323.585 15.2667 323.926 15.48C324.822 15.736 325.569 16.056 326.166 16.44C326.763 16.824 327.382 17.2507 328.022 17.72ZM324.182 28.28C324.225 27.256 324.011 26.36 323.542 25.592C323.115 24.824 322.497 24.184 321.686 23.672C320.875 23.16 319.958 22.7547 318.934 22.456C317.91 22.1573 316.886 21.944 315.862 21.816C315.606 21.816 315.243 21.816 314.774 21.816C314.347 21.7733 313.878 21.752 313.366 21.752C312.854 21.7093 312.363 21.688 311.894 21.688C311.467 21.6453 311.126 21.624 310.87 21.624C310.657 21.5813 310.401 21.56 310.102 21.56C309.803 21.56 309.462 21.56 309.078 21.56C309.121 22.8827 309.142 24.1627 309.142 25.4C309.142 26.5947 309.142 27.896 309.142 29.304C309.099 30.072 309.078 30.84 309.078 31.608C309.078 32.376 309.078 33.1227 309.078 33.848L313.046 33.784C314.07 33.784 315.201 33.72 316.438 33.592C317.675 33.464 318.849 33.208 319.958 32.824C321.067 32.44 322.006 31.8853 322.774 31.16C323.585 30.4347 324.054 29.4747 324.182 28.28ZM339.732 52.216L339.796 47.16L339.86 37.752C339.902 36.3867 339.924 34.9787 339.924 33.528C339.924 32.0773 339.924 30.584 339.924 29.048C339.924 27.512 339.924 26.1467 339.924 24.952C339.924 23.7573 339.966 22.4133 340.052 20.92V20.664C340.094 20.2373 340.116 19.8107 340.116 19.384C340.158 18.9147 340.18 18.4453 340.18 17.976C340.222 17.208 340.457 16.376 340.884 15.48C341.182 14.8827 341.63 14.3707 342.228 13.944C342.91 13.6027 343.572 13.432 344.212 13.432C344.553 13.432 344.852 13.4533 345.108 13.496C345.406 13.496 345.684 13.5173 345.94 13.56C346.494 13.6453 346.985 13.9013 347.412 14.328C347.668 14.5413 347.902 14.8827 348.116 15.352C348.201 15.608 348.265 15.864 348.308 16.12C348.393 16.3333 348.457 16.568 348.5 16.824C348.542 17.1227 348.564 17.4 348.564 17.656C348.606 17.912 348.628 18.168 348.628 18.424C348.628 18.7227 348.606 19 348.564 19.256C348.564 19.4693 348.564 19.704 348.564 19.96V21.048L348.18 54.264V54.904C348.18 55.032 348.158 55.2027 348.116 55.416C348.116 55.5867 348.094 55.8 348.052 56.056C347.966 56.2693 347.881 56.504 347.796 56.76C347.753 56.9733 347.689 57.208 347.604 57.464C347.476 57.6773 347.326 57.8907 347.156 58.104C347.028 58.2747 346.857 58.4453 346.644 58.616C346.302 58.9573 345.748 59.192 344.98 59.32C343.828 59.576 342.74 59.4693 341.716 59C341.204 58.6587 340.841 58.232 340.628 57.72C340.5 57.592 340.436 57.464 340.436 57.336C340.393 57.2507 340.35 57.1867 340.308 57.144C340.265 57.1013 340.222 57.0373 340.18 56.952C340.094 56.7387 340.03 56.5253 339.988 56.312C339.945 56.056 339.924 55.8 339.924 55.544C339.881 55.3307 339.838 55.1173 339.796 54.904C339.796 54.6907 339.774 54.4773 339.732 54.264C339.689 53.9227 339.689 53.56 339.732 53.176V52.216Z" fill="white"/>
<circle cx="107.5" cy="89.5" r="8" stroke="white" stroke-width="3"/>
<circle cx="9.5" cy="89.5" r="8" stroke="white" stroke-width="3"/>
<circle cx="213.5" cy="90.5" r="8" stroke="white" stroke-width="3"/>
<path fill-rule="evenodd" clip-rule="evenodd" d="M219.686 92.5C219.89 91.8699 220 91.1978 220 90.5C220 89.4179 219.735 88.3975 219.268 87.5H345C346.38 87.5 347.5 88.6193 347.5 90C347.5 91.3807 346.38 92.5 345 92.5H219.686ZM207.313 92.5H113.268C113.735 91.6025 114 90.5821 114 89.5C114 88.8022 113.89 88.1301 113.686 87.5H207.732C207.264 88.3975 207 89.4179 207 90.5C207 91.1978 207.11 91.8699 207.313 92.5ZM15.2676 92.5H101.732C101.264 91.6025 101 90.5821 101 89.5C101 88.8022 101.11 88.1301 101.313 87.5H15.6863C15.8898 88.1301 15.9998 88.8022 15.9998 89.5C15.9998 90.5821 15.7354 91.6025 15.2676 92.5Z" fill="white"/>
</svg>
