<svg width="452" height="143" viewBox="0 0 452 143" fill="none" xmlns="http://www.w3.org/2000/svg">
<path d="M33.536 117.392C33.8773 118.032 33.8987 118.672 33.6 119.312C33.3867 119.995 33.024 120.507 32.512 120.848C32.256 121.061 32.0213 121.253 31.808 121.424C31.5947 121.552 31.36 121.659 31.104 121.744C30.6347 122 30.08 122.085 29.44 122C29.184 122 28.9493 121.957 28.736 121.872C28.5227 121.787 28.3093 121.68 28.096 121.552C27.8827 121.424 27.648 121.296 27.392 121.168C27.1787 120.997 26.9653 120.827 26.752 120.656C26.496 120.443 26.2613 120.251 26.048 120.08C25.8347 119.909 25.6427 119.717 25.472 119.504C25.2587 119.291 25.0667 119.077 24.896 118.864C24.7253 118.651 24.5547 118.459 24.384 118.288L23.616 117.456L11.328 104.592L11.52 117.456V118.032C11.52 118.203 11.4987 118.395 11.456 118.608C11.4133 118.779 11.3707 118.971 11.328 119.184C11.2 119.739 11.0507 120.229 10.88 120.656C10.7947 120.912 10.6667 121.125 10.496 121.296C10.368 121.467 10.2187 121.637 10.048 121.808C9.57867 122.235 9.024 122.469 8.384 122.512C7.744 122.725 7.14667 122.789 6.592 122.704C6.08 122.661 5.54667 122.512 4.992 122.256C4.56533 122 4.18133 121.573 3.84 120.976C3.75467 120.805 3.69067 120.699 3.648 120.656C3.648 120.613 3.60533 120.464 3.52 120.208C3.264 119.781 3.136 119.355 3.136 118.928C3.09333 118.672 3.05067 118.437 3.008 118.224C3.008 118.011 2.98667 117.776 2.944 117.52C2.90133 117.349 2.88 117.179 2.88 117.008C2.88 116.837 2.88 116.667 2.88 116.496C2.92267 116.283 2.944 116.112 2.944 115.984C2.944 115.813 2.944 115.621 2.944 115.408L2.88 110.352L2.816 100.944C2.816 98.2133 2.752 95.2693 2.624 92.112C2.58133 90.576 2.56 89.2107 2.56 88.016C2.56 86.8213 2.58133 85.4773 2.624 83.984V83.728C2.70933 83.2587 2.752 82.8107 2.752 82.384C2.752 81.9147 2.77333 81.4667 2.816 81.04C2.816 80.1867 3.008 79.3333 3.392 78.48C3.648 77.84 4.096 77.328 4.736 76.944C5.07733 76.7307 5.39733 76.6027 5.696 76.56C6.03733 76.4747 6.4 76.3893 6.784 76.304C7.08267 76.304 7.36 76.3253 7.616 76.368C7.91467 76.4107 8.192 76.4533 8.448 76.496C9.00267 76.5813 9.51467 76.816 9.984 77.2C10.112 77.328 10.2187 77.4773 10.304 77.648C10.432 77.8187 10.5387 78.032 10.624 78.288C10.8373 78.6293 10.9867 79.12 11.072 79.76C11.1147 80.016 11.136 80.272 11.136 80.528C11.1787 80.784 11.2 81.0613 11.2 81.36V83.984L11.264 91.792C11.9467 91.1947 12.608 90.576 13.248 89.936C13.9307 89.296 14.592 88.6133 15.232 87.888C16.384 86.6933 17.5147 85.5413 18.624 84.432C19.776 83.28 20.928 82.1493 22.08 81.04L22.272 80.848C22.6133 80.5067 22.9547 80.1867 23.296 79.888C23.68 79.5467 24.0427 79.2267 24.384 78.928C25.024 78.2027 25.8133 77.6907 26.752 77.392C27.3493 77.008 28.0533 76.8587 28.864 76.944C29.248 76.9867 29.5893 77.072 29.888 77.2C30.2293 77.328 30.5493 77.4987 30.848 77.712C31.0613 77.9253 31.2747 78.1173 31.488 78.288C31.7013 78.416 31.872 78.5867 32 78.8C32.3413 79.0987 32.5547 79.5467 32.64 80.144C32.64 80.6133 32.5547 81.04 32.384 81.424C32.256 81.6373 32.128 81.8507 32 82.064C31.872 82.2773 31.7227 82.4907 31.552 82.704C31.3387 82.96 31.1467 83.1947 30.976 83.408C30.8053 83.6213 30.6133 83.8347 30.4 84.048C30.2293 84.2613 30.0373 84.4533 29.824 84.624C29.6533 84.7947 29.4827 84.9867 29.312 85.2L28.48 86.032L16.512 98.256C17.152 98.896 17.8133 99.5787 18.496 100.304C19.2213 100.987 19.904 101.669 20.544 102.352C21.184 102.992 21.7813 103.611 22.336 104.208C22.8907 104.763 23.36 105.232 23.744 105.616C24.896 106.811 26.0053 108.005 27.072 109.2C28.1387 110.352 29.184 111.525 30.208 112.72L30.4 112.912C30.7413 113.253 31.0613 113.616 31.36 114C31.6587 114.341 31.936 114.683 32.192 115.024C32.832 115.749 33.28 116.539 33.536 117.392ZM47.0615 97.744C47.0615 98.9387 47.0615 100.283 47.0615 101.776C47.1042 103.269 47.1255 104.827 47.1255 106.448C47.1255 108.027 47.1255 109.605 47.1255 111.184C47.1255 112.72 47.1042 114.149 47.0615 115.472C47.0188 116.112 46.9548 116.816 46.8695 117.584C46.7842 118.309 46.6135 118.992 46.3575 119.632C46.1015 120.272 45.6962 120.805 45.1415 121.232C44.6295 121.616 43.9255 121.787 43.0295 121.744C41.7068 121.659 40.7468 121.083 40.1495 120.016C39.5948 118.949 39.2748 117.456 39.1895 115.536C39.1895 114.555 39.1682 113.424 39.1255 112.144C39.1255 110.864 39.1042 109.563 39.0615 108.24C39.0615 106.917 39.0615 105.637 39.0615 104.4C39.0615 103.12 39.0615 101.968 39.0615 100.944C39.0615 100.347 39.0402 99.6213 38.9975 98.768C38.9975 97.9147 39.0188 97.04 39.0615 96.144C39.1042 95.248 39.2108 94.3947 39.3815 93.584C39.5522 92.7307 39.8295 92.0267 40.2135 91.472C40.5122 91.1307 40.9388 90.8747 41.4935 90.704C42.0482 90.4907 42.6242 90.384 43.2215 90.384C43.8615 90.384 44.4588 90.4907 45.0135 90.704C45.6108 90.9173 46.0375 91.216 46.2935 91.6C46.4642 91.856 46.5922 92.2187 46.6775 92.688C46.7628 93.1573 46.8268 93.6907 46.8695 94.288C46.9548 94.8427 46.9975 95.44 46.9975 96.08C47.0402 96.6773 47.0615 97.232 47.0615 97.744ZM44.6295 84.816C43.3068 85.1573 42.1975 85.0293 41.3015 84.432C40.4482 83.792 39.9148 82.8533 39.7015 81.616C39.5308 80.72 39.5948 79.9307 39.8935 79.248C40.1922 78.5653 40.6402 78.0533 41.2375 77.712C41.8348 77.328 42.5175 77.1573 43.2855 77.2C44.0535 77.2427 44.8215 77.5413 45.5895 78.096C46.3148 78.608 46.8268 79.2053 47.1255 79.888C47.4668 80.5707 47.5735 81.232 47.4455 81.872C47.3602 82.512 47.0828 83.1093 46.6135 83.664C46.1442 84.176 45.4828 84.56 44.6295 84.816ZM53.4365 99.152C53.4365 98.1707 53.4152 97.1253 53.3725 96.016C53.3725 94.9067 53.5645 93.904 53.9485 93.008C54.2898 92.1973 54.8445 91.6213 55.6125 91.28C56.4232 90.896 57.2125 90.8107 57.9805 91.024C58.7485 91.152 59.3458 91.3867 59.7725 91.728C60.1992 92.0693 60.4978 92.4747 60.6685 92.944C60.8818 93.3707 61.0098 93.8827 61.0525 94.48C61.0952 95.0347 61.1378 95.5893 61.1805 96.144C61.6072 95.376 62.1405 94.7573 62.7805 94.288C63.4205 93.8187 64.0818 93.4347 64.7645 93.136C65.4472 92.8373 66.0872 92.624 66.6845 92.496C67.3245 92.368 67.8152 92.304 68.1565 92.304C69.7778 92.304 71.3778 92.6667 72.9565 93.392C74.5778 94.0747 75.9218 95.056 76.9885 96.336C77.5858 97.104 78.0338 97.9147 78.3325 98.768C78.6738 99.5787 78.9085 100.432 79.0365 101.328C79.2072 102.224 79.3138 103.141 79.3565 104.08C79.3992 104.976 79.4418 105.893 79.4845 106.832C79.6978 109.563 79.6978 112.272 79.4845 114.96C79.4418 115.515 79.4205 116.155 79.4205 116.88C79.4205 117.605 79.3565 118.331 79.2285 119.056C79.1432 119.739 78.9512 120.357 78.6525 120.912C78.3965 121.424 77.9485 121.744 77.3085 121.872C76.4125 122.085 75.6658 122.128 75.0685 122C74.5138 121.915 74.0658 121.723 73.7245 121.424C73.3832 121.125 73.1272 120.741 72.9565 120.272C72.7858 119.803 72.6365 119.269 72.5085 118.672C72.4232 118.203 72.3378 117.669 72.2525 117.072C72.2098 116.432 72.1672 115.792 72.1245 115.152C72.1245 114.512 72.1032 113.893 72.0605 113.296C72.0605 112.656 72.0605 112.08 72.0605 111.568C72.0605 110.757 72.0392 109.861 71.9965 108.88C71.9538 107.899 71.9538 106.981 71.9965 106.128C71.9965 104.123 71.4632 102.608 70.3965 101.584C69.3725 100.517 67.9645 100.069 66.1725 100.24C64.8072 100.411 63.6125 100.965 62.5885 101.904C61.5645 102.8 61.0738 103.973 61.1165 105.424C61.1165 105.979 61.1165 106.491 61.1165 106.96C61.1165 107.429 61.0952 107.899 61.0525 108.368C61.0525 108.837 61.0525 109.349 61.0525 109.904C61.0525 110.459 61.0525 111.077 61.0525 111.76C61.0525 113.168 61.0525 114.661 61.0525 116.24C61.0525 117.776 60.8605 119.035 60.4765 120.016C60.1352 121.04 59.5592 121.744 58.7485 122.128C57.9378 122.512 56.9778 122.405 55.8685 121.808C55.3992 121.552 55.0152 121.211 54.7165 120.784C54.4605 120.315 54.2472 119.824 54.0765 119.312C53.9485 118.8 53.8632 118.288 53.8205 117.776C53.7778 117.221 53.7352 116.709 53.6925 116.24C53.5645 114.832 53.4792 113.531 53.4365 112.336C53.4365 111.099 53.4365 109.776 53.4365 108.368V99.152ZM111.37 109.904C111.37 111.269 111.327 112.741 111.242 114.32C111.199 115.899 111.135 117.371 111.05 118.736C111.05 120.016 110.986 121.296 110.858 122.576C110.773 123.685 110.602 124.88 110.346 126.16C110.09 127.483 109.727 128.699 109.258 129.808C108.661 131.259 107.85 132.496 106.826 133.52C105.802 134.587 104.479 135.355 102.858 135.824C101.493 136.165 100.213 136.379 99.018 136.464C97.8233 136.592 96.5433 136.571 95.178 136.4C94.282 136.272 93.322 136.016 92.298 135.632C91.274 135.291 90.314 134.843 89.418 134.288C88.522 133.733 87.7327 133.072 87.05 132.304C86.3673 131.579 85.898 130.747 85.642 129.808C85.3433 128.656 85.322 127.653 85.578 126.8C85.8767 125.947 86.3247 125.328 86.922 124.944C87.5193 124.56 88.2233 124.496 89.034 124.752C89.8447 125.008 90.6127 125.669 91.338 126.736C91.85 127.504 92.5967 128.123 93.578 128.592C94.5593 129.061 95.6047 129.339 96.714 129.424C97.8233 129.509 98.89 129.36 99.914 128.976C100.981 128.635 101.813 128.016 102.41 127.12C102.837 126.48 103.135 125.563 103.306 124.368C103.519 123.173 103.647 122 103.69 120.848C101.514 121.744 99.274 122.085 96.97 121.872C94.7087 121.616 92.6393 120.912 90.762 119.76C88.9273 118.565 87.434 116.987 86.282 115.024C85.1727 113.019 84.7033 110.757 84.874 108.24C85.002 106.064 85.45 104.016 86.218 102.096C87.0287 100.176 88.3513 98.576 90.186 97.296C91.6793 96.272 93.3647 95.6107 95.242 95.312C97.1193 94.9707 98.9327 94.8 100.682 94.8C101.706 94.8 102.709 94.8 103.69 94.8C104.714 94.8 105.653 94.928 106.506 95.184C107.359 95.44 108.127 95.8667 108.81 96.464C109.493 97.0613 110.005 97.936 110.346 99.088C110.901 100.88 111.199 102.651 111.242 104.4C111.327 106.149 111.37 107.984 111.37 109.904ZM99.018 115.216C99.4447 115.216 99.85 115.173 100.234 115.088C100.661 115.003 101.066 114.896 101.45 114.768C102.175 114.512 102.709 114.171 103.05 113.744C103.434 113.317 103.69 112.848 103.818 112.336C103.946 111.781 103.989 111.184 103.946 110.544C103.946 109.904 103.946 109.243 103.946 108.56C103.946 108.005 103.925 107.387 103.882 106.704C103.882 106.021 103.839 105.381 103.754 104.784C103.669 104.144 103.541 103.589 103.37 103.12C103.199 102.651 102.943 102.352 102.602 102.224C102.005 102.053 101.322 101.947 100.554 101.904C99.786 101.819 99.018 101.819 98.25 101.904C97.482 101.947 96.7353 102.096 96.01 102.352C95.3273 102.565 94.7513 102.864 94.282 103.248C93.642 103.803 93.1513 104.485 92.81 105.296C92.4687 106.107 92.2553 106.96 92.17 107.856C92.1273 108.752 92.1913 109.627 92.362 110.48C92.5753 111.333 92.938 112.101 93.45 112.784C94.0473 113.637 94.858 114.256 95.882 114.64C96.906 115.024 97.9513 115.216 99.018 115.216ZM136.528 77.264C137.339 77.0507 138.043 77.0293 138.64 77.2C139.28 77.328 139.813 77.6053 140.24 78.032C140.709 78.4587 141.051 78.992 141.264 79.632C141.52 80.272 141.648 80.976 141.648 81.744C141.691 83.8773 141.691 85.5413 141.648 86.736C141.648 87.9307 141.648 88.976 141.648 89.872V109.52C141.648 111.824 141.648 113.744 141.648 115.28C141.648 116.816 141.563 118.075 141.392 119.056C141.264 119.995 141.008 120.699 140.624 121.168C140.283 121.637 139.749 121.957 139.024 122.128C138.299 122.341 137.339 122.448 136.144 122.448C134.992 122.448 133.541 122.448 131.792 122.448C127.184 122.448 123.536 121.36 120.848 119.184C118.203 117.008 116.795 113.552 116.624 108.816C116.539 106.768 116.795 104.891 117.392 103.184C117.989 101.477 118.864 100.027 120.016 98.832C121.211 97.5947 122.661 96.656 124.368 96.016C126.117 95.3333 128.101 95.0133 130.32 95.056H133.84V83.6C133.84 82.9173 133.84 82.256 133.84 81.616C133.84 80.9333 133.904 80.3147 134.032 79.76C134.16 79.1627 134.416 78.6507 134.8 78.224C135.184 77.7973 135.76 77.4773 136.528 77.264ZM125.392 112.784C126.288 114.021 127.909 114.704 130.256 114.832C130.725 114.875 131.173 114.896 131.6 114.896C132.027 114.853 132.411 114.789 132.752 114.704C133.136 114.661 133.499 114.597 133.84 114.512V102.672C132.347 102.416 130.981 102.267 129.744 102.224C128.549 102.139 127.355 102.565 126.16 103.504C125.52 104.016 125.029 104.677 124.688 105.488C124.347 106.256 124.155 107.088 124.112 107.984C124.069 108.837 124.155 109.691 124.368 110.544C124.581 111.397 124.923 112.144 125.392 112.784ZM155.066 93.072C156.474 92.3893 157.946 91.8987 159.482 91.6C161.018 91.3013 162.533 91.2373 164.026 91.408C165.562 91.5787 167.034 91.984 168.442 92.624C169.893 93.264 171.215 94.16 172.41 95.312C173.391 96.2933 174.245 97.488 174.97 98.896C175.695 100.261 176.229 101.605 176.57 102.928C177.295 105.275 177.402 107.643 176.89 110.032C176.378 112.421 175.503 114.64 174.266 116.688C173.669 117.627 172.922 118.48 172.026 119.248C171.173 119.973 170.255 120.571 169.274 121.04C167.994 121.637 166.607 122.043 165.114 122.256C163.621 122.512 162.17 122.576 160.762 122.448C158.202 122.32 155.941 121.68 153.978 120.528C152.058 119.376 150.501 117.904 149.306 116.112C148.154 114.32 147.386 112.293 147.002 110.032C146.661 107.728 146.81 105.381 147.45 102.992C148.133 100.432 149.114 98.3627 150.394 96.784C151.717 95.1627 153.274 93.9253 155.066 93.072ZM156.986 101.648C156.346 102.245 155.855 102.992 155.514 103.888C155.173 104.784 154.959 105.723 154.874 106.704C154.789 107.643 154.853 108.603 155.066 109.584C155.322 110.523 155.706 111.376 156.218 112.144C156.645 112.784 157.413 113.317 158.522 113.744C159.631 114.171 160.783 114.427 161.978 114.512C163.343 114.597 164.538 114.235 165.562 113.424C166.586 112.571 167.354 111.525 167.866 110.288C168.421 109.051 168.677 107.707 168.634 106.256C168.591 104.805 168.207 103.483 167.482 102.288C166.97 101.435 166.245 100.816 165.306 100.432C164.41 100.005 163.45 99.792 162.426 99.792C161.445 99.7493 160.463 99.8987 159.482 100.24C158.501 100.539 157.669 101.008 156.986 101.648ZM216.998 107.088C217.083 108.453 217.126 109.755 217.126 110.992C217.126 112.187 217.083 113.467 216.998 114.832C216.998 115.344 216.998 115.92 216.998 116.56C216.998 117.2 216.955 117.819 216.87 118.416C216.785 119.013 216.635 119.568 216.422 120.08C216.209 120.592 215.889 120.997 215.462 121.296C214.95 121.637 214.374 121.872 213.734 122C213.094 122.085 212.497 122.043 211.942 121.872C211.387 121.701 210.897 121.381 210.47 120.912C210.086 120.443 209.873 119.781 209.83 118.928C209.702 116.965 209.638 115.003 209.638 113.04C209.638 112.059 209.617 111.12 209.574 110.224C209.574 109.328 209.595 108.069 209.638 106.448C209.638 105.637 209.574 104.72 209.446 103.696C209.318 102.629 208.998 101.883 208.486 101.456C208.102 101.115 207.675 100.923 207.206 100.88C206.737 100.795 206.267 100.837 205.798 101.008C205.371 101.179 204.987 101.499 204.646 101.968C204.305 102.395 204.07 102.949 203.942 103.632C203.942 104.187 203.921 104.763 203.878 105.36C203.878 105.915 203.899 106.448 203.942 106.96C203.985 108.325 204.006 109.627 204.006 110.864C204.006 112.059 203.985 113.339 203.942 114.704C203.899 115.259 203.878 115.856 203.878 116.496C203.921 117.136 203.921 117.776 203.878 118.416C203.835 119.013 203.707 119.568 203.494 120.08C203.323 120.592 203.003 120.997 202.534 121.296C202.022 121.637 201.467 121.851 200.87 121.936C200.315 121.979 199.782 121.893 199.27 121.68C198.801 121.424 198.374 121.04 197.99 120.528C197.649 120.016 197.457 119.333 197.414 118.48C197.329 117.499 197.265 116.603 197.222 115.792C197.222 114.939 197.222 114.043 197.222 113.104C197.222 112.123 197.243 111.12 197.286 110.096C197.329 109.029 197.307 108.005 197.222 107.024C197.222 106.725 197.201 106.384 197.158 106C197.158 105.573 197.137 105.147 197.094 104.72C197.094 104.293 197.051 103.888 196.966 103.504C196.923 103.077 196.838 102.736 196.71 102.48C196.369 101.883 195.75 101.499 194.854 101.328C194.001 101.157 193.275 101.221 192.678 101.52C192.081 101.819 191.633 102.203 191.334 102.672C191.035 103.141 190.822 103.653 190.694 104.208C190.566 104.763 190.502 105.36 190.502 106C190.502 106.597 190.502 107.173 190.502 107.728C190.502 110.501 190.502 112.912 190.502 114.96C190.545 116.965 190.331 118.587 189.862 119.824C189.649 120.464 189.201 120.955 188.518 121.296C187.878 121.637 187.174 121.808 186.406 121.808C185.681 121.808 184.998 121.637 184.358 121.296C183.718 120.955 183.291 120.421 183.078 119.696C182.95 119.227 182.822 118.565 182.694 117.712C182.609 116.816 182.545 115.835 182.502 114.768C182.459 113.701 182.438 112.635 182.438 111.568C182.438 110.459 182.438 109.456 182.438 108.56V99.344C182.395 98.3627 182.374 97.296 182.374 96.144C182.374 94.992 182.545 93.9467 182.886 93.008C183.185 92.1973 183.654 91.6853 184.294 91.472C184.934 91.216 185.595 91.1093 186.278 91.152C187.046 91.152 187.643 91.3653 188.07 91.792C188.539 92.176 188.881 92.6667 189.094 93.264C189.307 93.8187 189.435 94.4587 189.478 95.184C189.521 95.8667 189.563 96.528 189.606 97.168C190.075 96.1013 190.63 95.2267 191.27 94.544C191.953 93.8187 192.913 93.3493 194.15 93.136C197.307 92.5387 199.825 93.3493 201.702 95.568C202.555 94.7147 203.643 94.0107 204.966 93.456C205.99 93.072 207.035 92.9013 208.102 92.944C209.169 92.944 210.171 93.136 211.11 93.52C212.091 93.904 212.966 94.4587 213.734 95.184C214.545 95.9093 215.185 96.784 215.654 97.808C216.294 99.1733 216.657 100.688 216.742 102.352C216.827 104.016 216.913 105.595 216.998 107.088ZM242.6 92.112C243.325 91.9413 244.05 91.984 244.776 92.24C245.544 92.496 246.248 92.9227 246.888 93.52C247.186 93.8187 247.4 94.1813 247.528 94.608C247.698 95.0347 247.784 95.4827 247.784 95.952C247.784 96.464 247.698 97.0187 247.528 97.616C247.4 98.1707 247.208 98.5973 246.952 98.896C246.61 99.28 246.162 99.5787 245.608 99.792C245.053 100.005 244.52 100.155 244.008 100.24C243.496 100.283 243.048 100.304 242.664 100.304C242.322 100.304 242.13 100.304 242.088 100.304L229.544 100.368C229.032 100.411 228.498 100.453 227.944 100.496C227.432 100.496 226.92 100.475 226.408 100.432C225.896 100.347 225.405 100.219 224.936 100.048C224.509 99.8347 224.104 99.5573 223.72 99.216C223.25 98.7467 222.888 98.2987 222.632 97.872C222.376 97.4027 222.248 96.8693 222.248 96.272C222.248 95.5467 222.44 94.8427 222.824 94.16C223.25 93.4347 223.826 92.944 224.552 92.688C225.448 92.304 226.365 92.1333 227.304 92.176C228.285 92.176 229.266 92.1547 230.248 92.112H242.6ZM285.712 103.376C285.925 103.973 286.075 104.656 286.16 105.424C286.288 106.149 286.352 106.896 286.352 107.664C286.352 108.432 286.288 109.2 286.16 109.968C286.075 110.693 285.947 111.333 285.776 111.888C285.093 114.277 283.728 116.283 281.68 117.904C279.632 119.483 277.285 120.635 274.64 121.36C272.037 122.085 269.328 122.341 266.512 122.128C263.739 121.915 261.264 121.211 259.088 120.016C257.723 119.248 256.549 118.309 255.568 117.2C254.587 116.091 253.755 114.853 253.072 113.488C252.816 113.019 252.645 112.485 252.56 111.888C252.517 111.248 252.581 110.651 252.752 110.096C252.923 109.499 253.2 108.987 253.584 108.56C253.968 108.091 254.501 107.771 255.184 107.6C255.611 107.515 256.08 107.472 256.592 107.472C257.147 107.472 257.68 107.557 258.192 107.728C258.704 107.856 259.173 108.091 259.6 108.432C260.027 108.731 260.368 109.157 260.624 109.712C261.093 110.608 261.755 111.44 262.608 112.208C263.504 112.933 264.443 113.531 265.424 114C266.832 114.469 268.24 114.661 269.648 114.576C271.099 114.491 272.4 114.171 273.552 113.616C274.747 113.061 275.707 112.315 276.432 111.376C277.157 110.395 277.52 109.285 277.52 108.048C277.52 107.024 277.371 106.192 277.072 105.552C276.773 104.869 276.347 104.315 275.792 103.888C275.28 103.419 274.64 103.035 273.872 102.736C273.147 102.437 272.336 102.181 271.44 101.968C270.416 101.755 269.371 101.605 268.304 101.52C267.28 101.435 266.235 101.328 265.168 101.2C264.101 101.072 263.056 100.901 262.032 100.688C261.008 100.475 260.005 100.155 259.024 99.728C257.061 98.9173 255.568 97.68 254.544 96.016C253.52 94.352 252.901 92.56 252.688 90.64C252.517 88.72 252.752 86.8213 253.392 84.944C254.032 83.024 255.056 81.3813 256.464 80.016C257.829 78.7787 259.451 77.904 261.328 77.392C263.248 76.8373 265.36 76.5173 267.664 76.432C268.944 76.3893 270.224 76.432 271.504 76.56C272.827 76.688 274.085 76.9013 275.28 77.2C276.517 77.4987 277.648 77.8827 278.672 78.352C279.739 78.8213 280.656 79.376 281.424 80.016C281.979 80.4427 282.533 81.0187 283.088 81.744C283.643 82.4267 284.069 83.1733 284.368 83.984C284.667 84.752 284.752 85.4987 284.624 86.224C284.539 86.9493 284.091 87.568 283.28 88.08C282.597 88.5067 281.936 88.6987 281.296 88.656C280.699 88.5707 280.123 88.3787 279.568 88.08C279.013 87.7387 278.48 87.3547 277.968 86.928C277.456 86.5013 276.987 86.1173 276.56 85.776C275.408 84.9227 273.979 84.3467 272.272 84.048C270.565 83.7493 268.965 83.6853 267.472 83.856C266.533 83.984 265.659 84.1973 264.848 84.496C264.037 84.7947 263.333 85.2 262.736 85.712C262.181 86.224 261.733 86.864 261.392 87.632C261.093 88.3573 260.987 89.1893 261.072 90.128C261.115 90.8107 261.307 91.3867 261.648 91.856C262.032 92.3253 262.48 92.7093 262.992 93.008C263.547 93.3067 264.144 93.5413 264.784 93.712C265.424 93.8827 266.064 94.0107 266.704 94.096C268.624 94.352 270.544 94.544 272.464 94.672C274.384 94.8 276.261 95.2267 278.096 95.952C279.973 96.6773 281.573 97.6587 282.896 98.896C284.219 100.133 285.157 101.627 285.712 103.376ZM320.874 93.456C321.258 94.0533 321.428 94.6933 321.386 95.376C321.386 96.3573 321.215 97.2107 320.874 97.936C320.788 98.1493 320.66 98.4267 320.49 98.768C320.362 99.1093 320.212 99.472 320.042 99.856C319.914 100.24 319.764 100.603 319.594 100.944C319.423 101.285 319.295 101.541 319.21 101.712L319.082 102.032C318.484 103.355 317.908 104.635 317.354 105.872C316.799 107.109 316.18 108.432 315.498 109.84C314.815 111.205 314.154 112.549 313.514 113.872C312.916 115.152 312.319 116.411 311.722 117.648C311.551 117.989 311.402 118.331 311.274 118.672C311.146 118.971 310.975 119.291 310.762 119.632L307.69 126.224C307.135 127.333 306.602 128.421 306.09 129.488C305.62 130.555 305.087 131.621 304.49 132.688C304.362 132.901 304.234 133.093 304.106 133.264C304.02 133.477 303.935 133.691 303.85 133.904C303.551 134.416 303.103 134.907 302.506 135.376C301.951 135.888 301.354 136.165 300.714 136.208C299.562 136.293 298.559 135.952 297.706 135.184C297.194 134.885 296.788 134.459 296.49 133.904C296.319 133.52 296.234 133.029 296.234 132.432C296.276 132.176 296.298 131.92 296.298 131.664C296.34 131.451 296.383 131.237 296.426 131.024C296.511 130.811 296.575 130.597 296.618 130.384C296.66 130.171 296.724 130 296.81 129.872C296.938 129.531 297.044 129.36 297.13 129.36L301.802 119.248C301.588 118.779 301.375 118.309 301.162 117.84C300.948 117.328 300.756 116.88 300.586 116.496C300.031 115.173 299.434 113.787 298.794 112.336C298.196 110.843 297.578 109.371 296.938 107.92C296.298 106.427 295.636 104.976 294.954 103.568C294.271 102.16 293.588 100.816 292.906 99.536C292.65 99.1093 292.415 98.6613 292.202 98.192C291.988 97.68 291.818 97.1893 291.69 96.72C291.562 96.208 291.519 95.696 291.562 95.184C291.604 94.672 291.796 94.16 292.138 93.648C292.479 93.008 292.927 92.56 293.482 92.304C294.036 92.0053 294.612 91.8773 295.21 91.92C295.85 91.92 296.447 92.048 297.002 92.304C297.556 92.56 298.004 92.9013 298.345 93.328C299.071 94.096 299.647 94.9493 300.074 95.888C300.5 96.8267 300.906 97.7867 301.29 98.768C302.1 100.475 302.932 102.267 303.786 104.144C304.639 106.021 305.492 107.856 306.346 109.648L309.674 102.608C310.015 101.925 310.314 101.264 310.57 100.624C310.868 99.984 311.167 99.3653 311.466 98.768C311.807 98.0427 312.127 97.296 312.426 96.528C312.767 95.76 313.151 95.056 313.578 94.416C313.663 94.2453 313.748 94.096 313.834 93.968C313.919 93.84 314.004 93.6907 314.09 93.52C314.474 93.008 314.815 92.6027 315.114 92.304C315.327 92.1333 315.498 92.0053 315.626 91.92C315.796 91.792 315.988 91.7067 316.202 91.664C316.5 91.5787 316.778 91.536 317.034 91.536C317.332 91.4933 317.61 91.4933 317.866 91.536C318.292 91.664 318.804 91.856 319.402 92.112C320.042 92.368 320.532 92.816 320.874 93.456ZM340.606 110.736C339.795 110.224 338.878 109.819 337.854 109.52C336.873 109.221 335.849 108.944 334.782 108.688C333.758 108.432 332.755 108.155 331.774 107.856C330.793 107.515 329.897 107.045 329.086 106.448C327.337 105.125 326.313 103.504 326.014 101.584C325.758 99.6213 326.185 97.6587 327.294 95.696C327.891 94.672 328.681 93.84 329.662 93.2C330.643 92.5173 331.71 92.0053 332.862 91.664C334.057 91.28 335.273 91.0667 336.51 91.024C337.747 90.9813 338.921 91.0453 340.03 91.216C340.755 91.344 341.523 91.536 342.334 91.792C343.145 92.0053 343.891 92.304 344.574 92.688C345.299 93.072 345.939 93.5627 346.494 94.16C347.091 94.7147 347.518 95.4187 347.774 96.272C347.945 96.8267 347.966 97.36 347.838 97.872C347.753 98.384 347.539 98.8107 347.198 99.152C346.899 99.4933 346.494 99.7493 345.982 99.92C345.513 100.091 345.001 100.133 344.446 100.048C343.806 99.92 343.209 99.728 342.654 99.472C342.099 99.216 341.545 98.9387 340.99 98.64C340.435 98.3413 339.859 98.0853 339.262 97.872C338.707 97.6587 338.11 97.552 337.47 97.552C336.489 97.5093 335.678 97.68 335.038 98.064C334.398 98.448 333.95 98.9173 333.694 99.472C333.481 100.027 333.502 100.624 333.758 101.264C334.057 101.904 334.654 102.459 335.55 102.928C336.361 103.355 337.257 103.696 338.238 103.952C339.219 104.208 340.179 104.464 341.118 104.72C342.099 104.976 343.038 105.275 343.934 105.616C344.873 105.957 345.705 106.427 346.43 107.024C347.838 108.176 348.691 109.52 348.99 111.056C349.331 112.592 349.246 114.107 348.734 115.6C348.222 117.093 347.326 118.416 346.046 119.568C344.809 120.72 343.337 121.488 341.63 121.872C340.393 122.128 339.049 122.256 337.598 122.256C336.19 122.256 334.782 122.107 333.374 121.808C332.009 121.509 330.686 121.04 329.406 120.4C328.169 119.76 327.123 118.949 326.27 117.968C325.673 117.285 325.353 116.517 325.31 115.664C325.31 114.768 325.481 114 325.822 113.36C326.206 112.677 326.739 112.208 327.422 111.952C328.105 111.696 328.873 111.845 329.726 112.4C330.409 112.869 331.219 113.339 332.158 113.808C333.097 114.235 334.035 114.576 334.974 114.832C335.913 115.088 336.809 115.216 337.662 115.216C338.558 115.216 339.326 115.024 339.966 114.64C340.905 114.043 341.395 113.36 341.438 112.592C341.481 111.781 341.203 111.163 340.606 110.736ZM378.951 93.776C379.292 94.5867 379.313 95.4827 379.015 96.464C378.759 97.4453 378.268 98.0853 377.543 98.384C377.159 98.5547 376.647 98.704 376.007 98.832C375.367 98.9173 374.663 99.0027 373.895 99.088C373.169 99.1733 372.444 99.2373 371.719 99.28C370.993 99.3227 370.375 99.344 369.863 99.344C369.905 100.624 369.948 101.947 369.991 103.312C370.033 104.635 370.076 105.936 370.119 107.216C370.161 108.496 370.183 109.733 370.183 110.928C370.183 112.08 370.161 113.125 370.119 114.064C370.119 114.704 370.119 115.451 370.119 116.304C370.119 117.115 370.055 117.904 369.927 118.672C369.841 119.44 369.692 120.123 369.479 120.72C369.265 121.275 368.945 121.637 368.519 121.808C367.196 122.363 365.98 122.512 364.871 122.256C363.804 122.043 363.036 121.595 362.567 120.912C362.225 120.357 361.969 119.717 361.799 118.992C361.628 118.224 361.5 117.456 361.415 116.688C361.372 115.877 361.351 115.109 361.351 114.384C361.393 113.616 361.415 112.955 361.415 112.4C361.457 110.608 361.479 108.581 361.479 106.32C361.521 104.016 361.543 101.712 361.543 99.408H360.583C360.071 99.408 359.409 99.408 358.599 99.408C357.831 99.3653 357.041 99.3013 356.231 99.216C355.463 99.088 354.737 98.9387 354.055 98.768C353.372 98.5547 352.881 98.256 352.583 97.872C352.113 97.3173 351.815 96.72 351.687 96.08C351.601 95.44 351.644 94.8427 351.815 94.288C352.028 93.6907 352.348 93.1787 352.775 92.752C353.201 92.2827 353.692 91.984 354.247 91.856C355.015 91.6427 356.103 91.536 357.51 91.536C358.919 91.4933 360.241 91.4933 361.479 91.536C361.436 91.1093 361.415 90.704 361.415 90.32C361.415 89.8933 361.393 89.488 361.351 89.104C361.308 88.592 361.287 87.952 361.287 87.184C361.287 86.3733 361.329 85.584 361.415 84.816C361.543 84.0053 361.735 83.2587 361.991 82.576C362.247 81.8507 362.609 81.296 363.079 80.912C363.719 80.4 364.359 80.1227 364.999 80.08C365.681 79.9947 366.3 80.08 366.855 80.336C367.452 80.592 367.943 80.976 368.327 81.488C368.753 81.9573 369.052 82.4907 369.223 83.088C369.351 83.6 369.457 84.2187 369.543 84.944C369.628 85.6267 369.671 86.352 369.671 87.12C369.713 87.888 369.735 88.656 369.735 89.424C369.735 90.192 369.735 90.896 369.735 91.536H370.375C371.015 91.536 371.761 91.5147 372.615 91.472C373.468 91.4293 374.3 91.4507 375.111 91.536C375.964 91.6213 376.732 91.8347 377.415 92.176C378.097 92.4747 378.609 93.008 378.951 93.776ZM403.954 113.232C404.466 113.104 404.978 113.019 405.49 112.976C406.045 112.933 406.535 112.997 406.962 113.168C407.431 113.339 407.815 113.637 408.114 114.064C408.413 114.448 408.562 115.003 408.562 115.728C408.562 116.24 408.434 116.731 408.178 117.2C407.922 117.669 407.602 118.096 407.218 118.48C406.834 118.864 406.407 119.205 405.938 119.504C405.469 119.76 405.021 119.973 404.594 120.144C403.357 120.699 401.927 121.125 400.306 121.424C398.727 121.723 397.085 121.829 395.378 121.744C393.074 121.659 390.855 121.211 388.722 120.4C386.631 119.547 384.989 118.16 383.794 116.24C382.685 114.363 382.023 112.272 381.81 109.968C381.597 107.664 381.703 105.488 382.13 103.44C382.599 100.965 383.389 98.96 384.498 97.424C385.65 95.8453 387.015 94.5867 388.594 93.648C390.514 92.5387 392.669 91.9627 395.058 91.92C397.447 91.8773 399.73 92.3467 401.906 93.328C403.357 93.968 404.658 94.8427 405.81 95.952C406.962 97.0187 407.837 98.32 408.434 99.856C408.605 100.24 408.733 100.709 408.818 101.264C408.946 101.819 409.031 102.416 409.074 103.056C409.117 103.653 409.117 104.251 409.074 104.848C409.031 105.445 408.925 105.979 408.754 106.448C408.498 107.216 408.178 107.813 407.794 108.24C407.41 108.667 406.919 108.987 406.322 109.2C405.725 109.413 404.999 109.563 404.146 109.648C403.335 109.691 402.354 109.733 401.202 109.776C400.178 109.819 399.218 109.84 398.322 109.84C397.426 109.84 396.509 109.84 395.57 109.84C394.631 109.797 393.65 109.776 392.626 109.776C391.645 109.733 390.535 109.691 389.298 109.648C389.17 110.501 389.277 111.248 389.618 111.888C390.002 112.485 390.514 112.997 391.154 113.424C391.794 113.808 392.519 114.107 393.33 114.32C394.141 114.533 394.93 114.661 395.698 114.704C397.149 114.789 398.535 114.683 399.858 114.384C401.181 114.043 402.546 113.659 403.954 113.232ZM401.202 100.816C400.391 99.8773 399.538 99.1947 398.642 98.768C397.959 98.4693 397.234 98.3413 396.466 98.384C395.741 98.384 395.037 98.4907 394.354 98.704C393.117 99.0027 392.071 99.6427 391.218 100.624C391.133 100.709 390.983 100.923 390.77 101.264C390.557 101.563 390.343 101.883 390.13 102.224C389.959 102.565 389.831 102.885 389.746 103.184C389.661 103.483 389.703 103.632 389.874 103.632H402.418C402.375 103.035 402.269 102.544 402.098 102.16C401.927 101.733 401.629 101.285 401.202 100.816ZM448.936 107.088C449.021 108.453 449.064 109.755 449.064 110.992C449.064 112.187 449.021 113.467 448.936 114.832C448.936 115.344 448.936 115.92 448.936 116.56C448.936 117.2 448.893 117.819 448.808 118.416C448.722 119.013 448.573 119.568 448.36 120.08C448.146 120.592 447.826 120.997 447.4 121.296C446.888 121.637 446.312 121.872 445.672 122C445.032 122.085 444.434 122.043 443.88 121.872C443.325 121.701 442.834 121.381 442.408 120.912C442.024 120.443 441.81 119.781 441.768 118.928C441.64 116.965 441.576 115.003 441.576 113.04C441.576 112.059 441.554 111.12 441.512 110.224C441.512 109.328 441.533 108.069 441.576 106.448C441.576 105.637 441.512 104.72 441.384 103.696C441.256 102.629 440.936 101.883 440.424 101.456C440.04 101.115 439.613 100.923 439.144 100.88C438.674 100.795 438.205 100.837 437.736 101.008C437.309 101.179 436.925 101.499 436.584 101.968C436.242 102.395 436.008 102.949 435.88 103.632C435.88 104.187 435.858 104.763 435.816 105.36C435.816 105.915 435.837 106.448 435.88 106.96C435.922 108.325 435.944 109.627 435.944 110.864C435.944 112.059 435.922 113.339 435.88 114.704C435.837 115.259 435.816 115.856 435.816 116.496C435.858 117.136 435.858 117.776 435.816 118.416C435.773 119.013 435.645 119.568 435.432 120.08C435.261 120.592 434.941 120.997 434.472 121.296C433.96 121.637 433.405 121.851 432.808 121.936C432.253 121.979 431.72 121.893 431.208 121.68C430.738 121.424 430.312 121.04 429.928 120.528C429.586 120.016 429.394 119.333 429.352 118.48C429.266 117.499 429.202 116.603 429.16 115.792C429.16 114.939 429.16 114.043 429.16 113.104C429.16 112.123 429.181 111.12 429.224 110.096C429.266 109.029 429.245 108.005 429.16 107.024C429.16 106.725 429.138 106.384 429.096 106C429.096 105.573 429.074 105.147 429.032 104.72C429.032 104.293 428.989 103.888 428.904 103.504C428.861 103.077 428.776 102.736 428.648 102.48C428.306 101.883 427.688 101.499 426.792 101.328C425.938 101.157 425.213 101.221 424.616 101.52C424.018 101.819 423.57 102.203 423.272 102.672C422.973 103.141 422.76 103.653 422.632 104.208C422.504 104.763 422.44 105.36 422.44 106C422.44 106.597 422.44 107.173 422.44 107.728C422.44 110.501 422.44 112.912 422.44 114.96C422.482 116.965 422.269 118.587 421.8 119.824C421.586 120.464 421.138 120.955 420.456 121.296C419.816 121.637 419.112 121.808 418.344 121.808C417.618 121.808 416.936 121.637 416.296 121.296C415.656 120.955 415.229 120.421 415.016 119.696C414.888 119.227 414.76 118.565 414.632 117.712C414.546 116.816 414.482 115.835 414.44 114.768C414.397 113.701 414.376 112.635 414.376 111.568C414.376 110.459 414.376 109.456 414.376 108.56V99.344C414.333 98.3627 414.312 97.296 414.312 96.144C414.312 94.992 414.482 93.9467 414.824 93.008C415.122 92.1973 415.592 91.6853 416.232 91.472C416.872 91.216 417.533 91.1093 418.216 91.152C418.984 91.152 419.581 91.3653 420.008 91.792C420.477 92.176 420.818 92.6667 421.032 93.264C421.245 93.8187 421.373 94.4587 421.416 95.184C421.458 95.8667 421.501 96.528 421.544 97.168C422.013 96.1013 422.568 95.2267 423.208 94.544C423.89 93.8187 424.85 93.3493 426.088 93.136C429.245 92.5387 431.762 93.3493 433.64 95.568C434.493 94.7147 435.581 94.0107 436.904 93.456C437.928 93.072 438.973 92.9013 440.04 92.944C441.106 92.944 442.109 93.136 443.048 93.52C444.029 93.904 444.904 94.4587 445.672 95.184C446.482 95.9093 447.122 96.784 447.592 97.808C448.232 99.1733 448.594 100.688 448.68 102.352C448.765 104.016 448.85 105.595 448.936 107.088Z" fill="white"/>
<path d="M229 51L220.031 36.7061C217.697 32.9865 221.348 28.4035 225.495 29.8461V29.8461C229.393 31.2018 232.992 27.184 231.218 23.4581L221 2" stroke="white" stroke-width="5" stroke-linecap="round"/>
<path d="M240.5 49L231.531 34.7061C229.197 30.9865 232.848 26.4035 236.995 27.8461V27.8461C240.893 29.2018 244.492 25.184 242.718 21.4581L232.5 0" stroke="white" stroke-width="5" stroke-linecap="round"/>
</svg>
