<svg width="548" height="135" viewBox="0 0 548 135" fill="none" xmlns="http://www.w3.org/2000/svg">
<path d="M33.536 75.392C33.8773 76.032 33.8987 76.672 33.6 77.312C33.3867 77.9947 33.024 78.5067 32.512 78.848C32.256 79.0613 32.0213 79.2533 31.808 79.424C31.5947 79.552 31.36 79.6587 31.104 79.744C30.6347 80 30.08 80.0853 29.44 80C29.184 80 28.9493 79.9573 28.736 79.872C28.5227 79.7867 28.3093 79.68 28.096 79.552C27.8827 79.424 27.648 79.296 27.392 79.168C27.1787 78.9973 26.9653 78.8267 26.752 78.656C26.496 78.4427 26.2613 78.2507 26.048 78.08C25.8347 77.9093 25.6427 77.7173 25.472 77.504C25.2587 77.2907 25.0667 77.0773 24.896 76.864C24.7253 76.6507 24.5547 76.4587 24.384 76.288L23.616 75.456L11.328 62.592L11.52 75.456V76.032C11.52 76.2027 11.4987 76.3947 11.456 76.608C11.4133 76.7787 11.3707 76.9707 11.328 77.184C11.2 77.7387 11.0507 78.2293 10.88 78.656C10.7947 78.912 10.6667 79.1253 10.496 79.296C10.368 79.4667 10.2187 79.6373 10.048 79.808C9.57867 80.2347 9.024 80.4693 8.384 80.512C7.744 80.7253 7.14667 80.7893 6.592 80.704C6.08 80.6613 5.54667 80.512 4.992 80.256C4.56533 80 4.18133 79.5733 3.84 78.976C3.75467 78.8053 3.69067 78.6987 3.648 78.656C3.648 78.6133 3.60533 78.464 3.52 78.208C3.264 77.7813 3.136 77.3547 3.136 76.928C3.09333 76.672 3.05067 76.4373 3.008 76.224C3.008 76.0107 2.98667 75.776 2.944 75.52C2.90133 75.3493 2.88 75.1787 2.88 75.008C2.88 74.8373 2.88 74.6667 2.88 74.496C2.92267 74.2827 2.944 74.112 2.944 73.984C2.944 73.8133 2.944 73.6213 2.944 73.408L2.88 68.352L2.816 58.944C2.816 56.2133 2.752 53.2693 2.624 50.112C2.58133 48.576 2.56 47.2107 2.56 46.016C2.56 44.8213 2.58133 43.4773 2.624 41.984V41.728C2.70933 41.2587 2.752 40.8107 2.752 40.384C2.752 39.9147 2.77333 39.4667 2.816 39.04C2.816 38.1867 3.008 37.3333 3.392 36.48C3.648 35.84 4.096 35.328 4.736 34.944C5.07733 34.7307 5.39733 34.6027 5.696 34.56C6.03733 34.4747 6.4 34.3893 6.784 34.304C7.08267 34.304 7.36 34.3253 7.616 34.368C7.91467 34.4107 8.192 34.4533 8.448 34.496C9.00267 34.5813 9.51467 34.816 9.984 35.2C10.112 35.328 10.2187 35.4773 10.304 35.648C10.432 35.8187 10.5387 36.032 10.624 36.288C10.8373 36.6293 10.9867 37.12 11.072 37.76C11.1147 38.016 11.136 38.272 11.136 38.528C11.1787 38.784 11.2 39.0613 11.2 39.36V41.984L11.264 49.792C11.9467 49.1947 12.608 48.576 13.248 47.936C13.9307 47.296 14.592 46.6133 15.232 45.888C16.384 44.6933 17.5147 43.5413 18.624 42.432C19.776 41.28 20.928 40.1493 22.08 39.04L22.272 38.848C22.6133 38.5067 22.9547 38.1867 23.296 37.888C23.68 37.5467 24.0427 37.2267 24.384 36.928C25.024 36.2027 25.8133 35.6907 26.752 35.392C27.3493 35.008 28.0533 34.8587 28.864 34.944C29.248 34.9867 29.5893 35.072 29.888 35.2C30.2293 35.328 30.5493 35.4987 30.848 35.712C31.0613 35.9253 31.2747 36.1173 31.488 36.288C31.7013 36.416 31.872 36.5867 32 36.8C32.3413 37.0987 32.5547 37.5467 32.64 38.144C32.64 38.6133 32.5547 39.04 32.384 39.424C32.256 39.6373 32.128 39.8507 32 40.064C31.872 40.2773 31.7227 40.4907 31.552 40.704C31.3387 40.96 31.1467 41.1947 30.976 41.408C30.8053 41.6213 30.6133 41.8347 30.4 42.048C30.2293 42.2613 30.0373 42.4533 29.824 42.624C29.6533 42.7947 29.4827 42.9867 29.312 43.2L28.48 44.032L16.512 56.256C17.152 56.896 17.8133 57.5787 18.496 58.304C19.2213 58.9867 19.904 59.6693 20.544 60.352C21.184 60.992 21.7813 61.6107 22.336 62.208C22.8907 62.7627 23.36 63.232 23.744 63.616C24.896 64.8107 26.0053 66.0053 27.072 67.2C28.1387 68.352 29.184 69.5253 30.208 70.72L30.4 70.912C30.7413 71.2533 31.0613 71.616 31.36 72C31.6587 72.3413 31.936 72.6827 32.192 73.024C32.832 73.7493 33.28 74.5387 33.536 75.392ZM47.0615 55.744C47.0615 56.9387 47.0615 58.2827 47.0615 59.776C47.1042 61.2693 47.1255 62.8267 47.1255 64.448C47.1255 66.0267 47.1255 67.6053 47.1255 69.184C47.1255 70.72 47.1042 72.1493 47.0615 73.472C47.0188 74.112 46.9548 74.816 46.8695 75.584C46.7842 76.3093 46.6135 76.992 46.3575 77.632C46.1015 78.272 45.6962 78.8053 45.1415 79.232C44.6295 79.616 43.9255 79.7867 43.0295 79.744C41.7068 79.6587 40.7468 79.0827 40.1495 78.016C39.5948 76.9493 39.2748 75.456 39.1895 73.536C39.1895 72.5547 39.1682 71.424 39.1255 70.144C39.1255 68.864 39.1042 67.5627 39.0615 66.24C39.0615 64.9173 39.0615 63.6373 39.0615 62.4C39.0615 61.12 39.0615 59.968 39.0615 58.944C39.0615 58.3467 39.0402 57.6213 38.9975 56.768C38.9975 55.9147 39.0188 55.04 39.0615 54.144C39.1042 53.248 39.2108 52.3947 39.3815 51.584C39.5522 50.7307 39.8295 50.0267 40.2135 49.472C40.5122 49.1307 40.9388 48.8747 41.4935 48.704C42.0482 48.4907 42.6242 48.384 43.2215 48.384C43.8615 48.384 44.4588 48.4907 45.0135 48.704C45.6108 48.9173 46.0375 49.216 46.2935 49.6C46.4642 49.856 46.5922 50.2187 46.6775 50.688C46.7628 51.1573 46.8268 51.6907 46.8695 52.288C46.9548 52.8427 46.9975 53.44 46.9975 54.08C47.0402 54.6773 47.0615 55.232 47.0615 55.744ZM44.6295 42.816C43.3068 43.1573 42.1975 43.0293 41.3015 42.432C40.4482 41.792 39.9148 40.8533 39.7015 39.616C39.5308 38.72 39.5948 37.9307 39.8935 37.248C40.1922 36.5653 40.6402 36.0533 41.2375 35.712C41.8348 35.328 42.5175 35.1573 43.2855 35.2C44.0535 35.2427 44.8215 35.5413 45.5895 36.096C46.3148 36.608 46.8268 37.2053 47.1255 37.888C47.4668 38.5707 47.5735 39.232 47.4455 39.872C47.3602 40.512 47.0828 41.1093 46.6135 41.664C46.1442 42.176 45.4828 42.56 44.6295 42.816ZM53.4365 57.152C53.4365 56.1707 53.4152 55.1253 53.3725 54.016C53.3725 52.9067 53.5645 51.904 53.9485 51.008C54.2898 50.1973 54.8445 49.6213 55.6125 49.28C56.4232 48.896 57.2125 48.8107 57.9805 49.024C58.7485 49.152 59.3458 49.3867 59.7725 49.728C60.1992 50.0693 60.4978 50.4747 60.6685 50.944C60.8818 51.3707 61.0098 51.8827 61.0525 52.48C61.0952 53.0347 61.1378 53.5893 61.1805 54.144C61.6072 53.376 62.1405 52.7573 62.7805 52.288C63.4205 51.8187 64.0818 51.4347 64.7645 51.136C65.4472 50.8373 66.0872 50.624 66.6845 50.496C67.3245 50.368 67.8152 50.304 68.1565 50.304C69.7778 50.304 71.3778 50.6667 72.9565 51.392C74.5778 52.0747 75.9218 53.056 76.9885 54.336C77.5858 55.104 78.0338 55.9147 78.3325 56.768C78.6738 57.5787 78.9085 58.432 79.0365 59.328C79.2072 60.224 79.3138 61.1413 79.3565 62.08C79.3992 62.976 79.4418 63.8933 79.4845 64.832C79.6978 67.5627 79.6978 70.272 79.4845 72.96C79.4418 73.5147 79.4205 74.1547 79.4205 74.88C79.4205 75.6053 79.3565 76.3307 79.2285 77.056C79.1432 77.7387 78.9512 78.3573 78.6525 78.912C78.3965 79.424 77.9485 79.744 77.3085 79.872C76.4125 80.0853 75.6658 80.128 75.0685 80C74.5138 79.9147 74.0658 79.7227 73.7245 79.424C73.3832 79.1253 73.1272 78.7413 72.9565 78.272C72.7858 77.8027 72.6365 77.2693 72.5085 76.672C72.4232 76.2027 72.3378 75.6693 72.2525 75.072C72.2098 74.432 72.1672 73.792 72.1245 73.152C72.1245 72.512 72.1032 71.8933 72.0605 71.296C72.0605 70.656 72.0605 70.08 72.0605 69.568C72.0605 68.7573 72.0392 67.8613 71.9965 66.88C71.9538 65.8987 71.9538 64.9813 71.9965 64.128C71.9965 62.1227 71.4632 60.608 70.3965 59.584C69.3725 58.5173 67.9645 58.0693 66.1725 58.24C64.8072 58.4107 63.6125 58.9653 62.5885 59.904C61.5645 60.8 61.0738 61.9733 61.1165 63.424C61.1165 63.9787 61.1165 64.4907 61.1165 64.96C61.1165 65.4293 61.0952 65.8987 61.0525 66.368C61.0525 66.8373 61.0525 67.3493 61.0525 67.904C61.0525 68.4587 61.0525 69.0773 61.0525 69.76C61.0525 71.168 61.0525 72.6613 61.0525 74.24C61.0525 75.776 60.8605 77.0347 60.4765 78.016C60.1352 79.04 59.5592 79.744 58.7485 80.128C57.9378 80.512 56.9778 80.4053 55.8685 79.808C55.3992 79.552 55.0152 79.2107 54.7165 78.784C54.4605 78.3147 54.2472 77.824 54.0765 77.312C53.9485 76.8 53.8632 76.288 53.8205 75.776C53.7778 75.2213 53.7352 74.7093 53.6925 74.24C53.5645 72.832 53.4792 71.5307 53.4365 70.336C53.4365 69.0987 53.4365 67.776 53.4365 66.368V57.152ZM111.37 67.904C111.37 69.2693 111.327 70.7413 111.242 72.32C111.199 73.8987 111.135 75.3707 111.05 76.736C111.05 78.016 110.986 79.296 110.858 80.576C110.773 81.6853 110.602 82.88 110.346 84.16C110.09 85.4827 109.727 86.6987 109.258 87.808C108.661 89.2587 107.85 90.496 106.826 91.52C105.802 92.5867 104.479 93.3547 102.858 93.824C101.493 94.1653 100.213 94.3787 99.018 94.464C97.8233 94.592 96.5433 94.5707 95.178 94.4C94.282 94.272 93.322 94.016 92.298 93.632C91.274 93.2907 90.314 92.8427 89.418 92.288C88.522 91.7333 87.7327 91.072 87.05 90.304C86.3673 89.5787 85.898 88.7467 85.642 87.808C85.3433 86.656 85.322 85.6533 85.578 84.8C85.8767 83.9467 86.3247 83.328 86.922 82.944C87.5193 82.56 88.2233 82.496 89.034 82.752C89.8447 83.008 90.6127 83.6693 91.338 84.736C91.85 85.504 92.5967 86.1227 93.578 86.592C94.5593 87.0613 95.6047 87.3387 96.714 87.424C97.8233 87.5093 98.89 87.36 99.914 86.976C100.981 86.6347 101.813 86.016 102.41 85.12C102.837 84.48 103.135 83.5627 103.306 82.368C103.519 81.1733 103.647 80 103.69 78.848C101.514 79.744 99.274 80.0853 96.97 79.872C94.7087 79.616 92.6393 78.912 90.762 77.76C88.9273 76.5653 87.434 74.9867 86.282 73.024C85.1727 71.0187 84.7033 68.7573 84.874 66.24C85.002 64.064 85.45 62.016 86.218 60.096C87.0287 58.176 88.3513 56.576 90.186 55.296C91.6793 54.272 93.3647 53.6107 95.242 53.312C97.1193 52.9707 98.9327 52.8 100.682 52.8C101.706 52.8 102.709 52.8 103.69 52.8C104.714 52.8 105.653 52.928 106.506 53.184C107.359 53.44 108.127 53.8667 108.81 54.464C109.493 55.0613 110.005 55.936 110.346 57.088C110.901 58.88 111.199 60.6507 111.242 62.4C111.327 64.1493 111.37 65.984 111.37 67.904ZM99.018 73.216C99.4447 73.216 99.85 73.1733 100.234 73.088C100.661 73.0027 101.066 72.896 101.45 72.768C102.175 72.512 102.709 72.1707 103.05 71.744C103.434 71.3173 103.69 70.848 103.818 70.336C103.946 69.7813 103.989 69.184 103.946 68.544C103.946 67.904 103.946 67.2427 103.946 66.56C103.946 66.0053 103.925 65.3867 103.882 64.704C103.882 64.0213 103.839 63.3813 103.754 62.784C103.669 62.144 103.541 61.5893 103.37 61.12C103.199 60.6507 102.943 60.352 102.602 60.224C102.005 60.0533 101.322 59.9467 100.554 59.904C99.786 59.8187 99.018 59.8187 98.25 59.904C97.482 59.9467 96.7353 60.096 96.01 60.352C95.3273 60.5653 94.7513 60.864 94.282 61.248C93.642 61.8027 93.1513 62.4853 92.81 63.296C92.4687 64.1067 92.2553 64.96 92.17 65.856C92.1273 66.752 92.1913 67.6267 92.362 68.48C92.5753 69.3333 92.938 70.1013 93.45 70.784C94.0473 71.6373 94.858 72.256 95.882 72.64C96.906 73.024 97.9513 73.216 99.018 73.216ZM136.528 35.264C137.339 35.0507 138.043 35.0293 138.64 35.2C139.28 35.328 139.813 35.6053 140.24 36.032C140.709 36.4587 141.051 36.992 141.264 37.632C141.52 38.272 141.648 38.976 141.648 39.744C141.691 41.8773 141.691 43.5413 141.648 44.736C141.648 45.9307 141.648 46.976 141.648 47.872V67.52C141.648 69.824 141.648 71.744 141.648 73.28C141.648 74.816 141.563 76.0747 141.392 77.056C141.264 77.9947 141.008 78.6987 140.624 79.168C140.283 79.6373 139.749 79.9573 139.024 80.128C138.299 80.3413 137.339 80.448 136.144 80.448C134.992 80.448 133.541 80.448 131.792 80.448C127.184 80.448 123.536 79.36 120.848 77.184C118.203 75.008 116.795 71.552 116.624 66.816C116.539 64.768 116.795 62.8907 117.392 61.184C117.989 59.4773 118.864 58.0267 120.016 56.832C121.211 55.5947 122.661 54.656 124.368 54.016C126.117 53.3333 128.101 53.0133 130.32 53.056H133.84V41.6C133.84 40.9173 133.84 40.256 133.84 39.616C133.84 38.9333 133.904 38.3147 134.032 37.76C134.16 37.1627 134.416 36.6507 134.8 36.224C135.184 35.7973 135.76 35.4773 136.528 35.264ZM125.392 70.784C126.288 72.0213 127.909 72.704 130.256 72.832C130.725 72.8747 131.173 72.896 131.6 72.896C132.027 72.8533 132.411 72.7893 132.752 72.704C133.136 72.6613 133.499 72.5973 133.84 72.512V60.672C132.347 60.416 130.981 60.2667 129.744 60.224C128.549 60.1387 127.355 60.5653 126.16 61.504C125.52 62.016 125.029 62.6773 124.688 63.488C124.347 64.256 124.155 65.088 124.112 65.984C124.069 66.8373 124.155 67.6907 124.368 68.544C124.581 69.3973 124.923 70.144 125.392 70.784ZM155.066 51.072C156.474 50.3893 157.946 49.8987 159.482 49.6C161.018 49.3013 162.533 49.2373 164.026 49.408C165.562 49.5787 167.034 49.984 168.442 50.624C169.893 51.264 171.215 52.16 172.41 53.312C173.391 54.2933 174.245 55.488 174.97 56.896C175.695 58.2613 176.229 59.6053 176.57 60.928C177.295 63.2747 177.402 65.6427 176.89 68.032C176.378 70.4213 175.503 72.64 174.266 74.688C173.669 75.6267 172.922 76.48 172.026 77.248C171.173 77.9733 170.255 78.5707 169.274 79.04C167.994 79.6373 166.607 80.0427 165.114 80.256C163.621 80.512 162.17 80.576 160.762 80.448C158.202 80.32 155.941 79.68 153.978 78.528C152.058 77.376 150.501 75.904 149.306 74.112C148.154 72.32 147.386 70.2933 147.002 68.032C146.661 65.728 146.81 63.3813 147.45 60.992C148.133 58.432 149.114 56.3627 150.394 54.784C151.717 53.1627 153.274 51.9253 155.066 51.072ZM156.986 59.648C156.346 60.2453 155.855 60.992 155.514 61.888C155.173 62.784 154.959 63.7227 154.874 64.704C154.789 65.6427 154.853 66.6027 155.066 67.584C155.322 68.5227 155.706 69.376 156.218 70.144C156.645 70.784 157.413 71.3173 158.522 71.744C159.631 72.1707 160.783 72.4267 161.978 72.512C163.343 72.5973 164.538 72.2347 165.562 71.424C166.586 70.5707 167.354 69.5253 167.866 68.288C168.421 67.0507 168.677 65.7067 168.634 64.256C168.591 62.8053 168.207 61.4827 167.482 60.288C166.97 59.4347 166.245 58.816 165.306 58.432C164.41 58.0053 163.45 57.792 162.426 57.792C161.445 57.7493 160.463 57.8987 159.482 58.24C158.501 58.5387 157.669 59.008 156.986 59.648ZM216.998 65.088C217.083 66.4533 217.126 67.7547 217.126 68.992C217.126 70.1867 217.083 71.4667 216.998 72.832C216.998 73.344 216.998 73.92 216.998 74.56C216.998 75.2 216.955 75.8187 216.87 76.416C216.785 77.0133 216.635 77.568 216.422 78.08C216.209 78.592 215.889 78.9973 215.462 79.296C214.95 79.6373 214.374 79.872 213.734 80C213.094 80.0853 212.497 80.0427 211.942 79.872C211.387 79.7013 210.897 79.3813 210.47 78.912C210.086 78.4427 209.873 77.7813 209.83 76.928C209.702 74.9653 209.638 73.0027 209.638 71.04C209.638 70.0587 209.617 69.12 209.574 68.224C209.574 67.328 209.595 66.0693 209.638 64.448C209.638 63.6373 209.574 62.72 209.446 61.696C209.318 60.6293 208.998 59.8827 208.486 59.456C208.102 59.1147 207.675 58.9227 207.206 58.88C206.737 58.7947 206.267 58.8373 205.798 59.008C205.371 59.1787 204.987 59.4987 204.646 59.968C204.305 60.3947 204.07 60.9493 203.942 61.632C203.942 62.1867 203.921 62.7627 203.878 63.36C203.878 63.9147 203.899 64.448 203.942 64.96C203.985 66.3253 204.006 67.6267 204.006 68.864C204.006 70.0587 203.985 71.3387 203.942 72.704C203.899 73.2587 203.878 73.856 203.878 74.496C203.921 75.136 203.921 75.776 203.878 76.416C203.835 77.0133 203.707 77.568 203.494 78.08C203.323 78.592 203.003 78.9973 202.534 79.296C202.022 79.6373 201.467 79.8507 200.87 79.936C200.315 79.9787 199.782 79.8933 199.27 79.68C198.801 79.424 198.374 79.04 197.99 78.528C197.649 78.016 197.457 77.3333 197.414 76.48C197.329 75.4987 197.265 74.6027 197.222 73.792C197.222 72.9387 197.222 72.0427 197.222 71.104C197.222 70.1227 197.243 69.12 197.286 68.096C197.329 67.0293 197.307 66.0053 197.222 65.024C197.222 64.7253 197.201 64.384 197.158 64C197.158 63.5733 197.137 63.1467 197.094 62.72C197.094 62.2933 197.051 61.888 196.966 61.504C196.923 61.0773 196.838 60.736 196.71 60.48C196.369 59.8827 195.75 59.4987 194.854 59.328C194.001 59.1573 193.275 59.2213 192.678 59.52C192.081 59.8187 191.633 60.2027 191.334 60.672C191.035 61.1413 190.822 61.6533 190.694 62.208C190.566 62.7627 190.502 63.36 190.502 64C190.502 64.5973 190.502 65.1733 190.502 65.728C190.502 68.5013 190.502 70.912 190.502 72.96C190.545 74.9653 190.331 76.5867 189.862 77.824C189.649 78.464 189.201 78.9547 188.518 79.296C187.878 79.6373 187.174 79.808 186.406 79.808C185.681 79.808 184.998 79.6373 184.358 79.296C183.718 78.9547 183.291 78.4213 183.078 77.696C182.95 77.2267 182.822 76.5653 182.694 75.712C182.609 74.816 182.545 73.8347 182.502 72.768C182.459 71.7013 182.438 70.6347 182.438 69.568C182.438 68.4587 182.438 67.456 182.438 66.56V57.344C182.395 56.3627 182.374 55.296 182.374 54.144C182.374 52.992 182.545 51.9467 182.886 51.008C183.185 50.1973 183.654 49.6853 184.294 49.472C184.934 49.216 185.595 49.1093 186.278 49.152C187.046 49.152 187.643 49.3653 188.07 49.792C188.539 50.176 188.881 50.6667 189.094 51.264C189.307 51.8187 189.435 52.4587 189.478 53.184C189.521 53.8667 189.563 54.528 189.606 55.168C190.075 54.1013 190.63 53.2267 191.27 52.544C191.953 51.8187 192.913 51.3493 194.15 51.136C197.307 50.5387 199.825 51.3493 201.702 53.568C202.555 52.7147 203.643 52.0107 204.966 51.456C205.99 51.072 207.035 50.9013 208.102 50.944C209.169 50.944 210.171 51.136 211.11 51.52C212.091 51.904 212.966 52.4587 213.734 53.184C214.545 53.9093 215.185 54.784 215.654 55.808C216.294 57.1733 216.657 58.688 216.742 60.352C216.827 62.016 216.913 63.5947 216.998 65.088ZM242.6 50.112C243.325 49.9413 244.05 49.984 244.776 50.24C245.544 50.496 246.248 50.9227 246.888 51.52C247.186 51.8187 247.4 52.1813 247.528 52.608C247.698 53.0347 247.784 53.4827 247.784 53.952C247.784 54.464 247.698 55.0187 247.528 55.616C247.4 56.1707 247.208 56.5973 246.952 56.896C246.61 57.28 246.162 57.5787 245.608 57.792C245.053 58.0053 244.52 58.1547 244.008 58.24C243.496 58.2827 243.048 58.304 242.664 58.304C242.322 58.304 242.13 58.304 242.088 58.304L229.544 58.368C229.032 58.4107 228.498 58.4533 227.944 58.496C227.432 58.496 226.92 58.4747 226.408 58.432C225.896 58.3467 225.405 58.2187 224.936 58.048C224.509 57.8347 224.104 57.5573 223.72 57.216C223.25 56.7467 222.888 56.2987 222.632 55.872C222.376 55.4027 222.248 54.8693 222.248 54.272C222.248 53.5467 222.44 52.8427 222.824 52.16C223.25 51.4347 223.826 50.944 224.552 50.688C225.448 50.304 226.365 50.1333 227.304 50.176C228.285 50.176 229.266 50.1547 230.248 50.112H242.6ZM285.712 61.376C285.925 61.9733 286.075 62.656 286.16 63.424C286.288 64.1493 286.352 64.896 286.352 65.664C286.352 66.432 286.288 67.2 286.16 67.968C286.075 68.6933 285.947 69.3333 285.776 69.888C285.093 72.2773 283.728 74.2827 281.68 75.904C279.632 77.4827 277.285 78.6347 274.64 79.36C272.037 80.0853 269.328 80.3413 266.512 80.128C263.739 79.9147 261.264 79.2107 259.088 78.016C257.723 77.248 256.549 76.3093 255.568 75.2C254.587 74.0907 253.755 72.8533 253.072 71.488C252.816 71.0187 252.645 70.4853 252.56 69.888C252.517 69.248 252.581 68.6507 252.752 68.096C252.923 67.4987 253.2 66.9867 253.584 66.56C253.968 66.0907 254.501 65.7707 255.184 65.6C255.611 65.5147 256.08 65.472 256.592 65.472C257.147 65.472 257.68 65.5573 258.192 65.728C258.704 65.856 259.173 66.0907 259.6 66.432C260.027 66.7307 260.368 67.1573 260.624 67.712C261.093 68.608 261.755 69.44 262.608 70.208C263.504 70.9333 264.443 71.5307 265.424 72C266.832 72.4693 268.24 72.6613 269.648 72.576C271.099 72.4907 272.4 72.1707 273.552 71.616C274.747 71.0613 275.707 70.3147 276.432 69.376C277.157 68.3947 277.52 67.2853 277.52 66.048C277.52 65.024 277.371 64.192 277.072 63.552C276.773 62.8693 276.347 62.3147 275.792 61.888C275.28 61.4187 274.64 61.0347 273.872 60.736C273.147 60.4373 272.336 60.1813 271.44 59.968C270.416 59.7547 269.371 59.6053 268.304 59.52C267.28 59.4347 266.235 59.328 265.168 59.2C264.101 59.072 263.056 58.9013 262.032 58.688C261.008 58.4747 260.005 58.1547 259.024 57.728C257.061 56.9173 255.568 55.68 254.544 54.016C253.52 52.352 252.901 50.56 252.688 48.64C252.517 46.72 252.752 44.8213 253.392 42.944C254.032 41.024 255.056 39.3813 256.464 38.016C257.829 36.7787 259.451 35.904 261.328 35.392C263.248 34.8373 265.36 34.5173 267.664 34.432C268.944 34.3893 270.224 34.432 271.504 34.56C272.827 34.688 274.085 34.9013 275.28 35.2C276.517 35.4987 277.648 35.8827 278.672 36.352C279.739 36.8213 280.656 37.376 281.424 38.016C281.979 38.4427 282.533 39.0187 283.088 39.744C283.643 40.4267 284.069 41.1733 284.368 41.984C284.667 42.752 284.752 43.4987 284.624 44.224C284.539 44.9493 284.091 45.568 283.28 46.08C282.597 46.5067 281.936 46.6987 281.296 46.656C280.699 46.5707 280.123 46.3787 279.568 46.08C279.013 45.7387 278.48 45.3547 277.968 44.928C277.456 44.5013 276.987 44.1173 276.56 43.776C275.408 42.9227 273.979 42.3467 272.272 42.048C270.565 41.7493 268.965 41.6853 267.472 41.856C266.533 41.984 265.659 42.1973 264.848 42.496C264.037 42.7947 263.333 43.2 262.736 43.712C262.181 44.224 261.733 44.864 261.392 45.632C261.093 46.3573 260.987 47.1893 261.072 48.128C261.115 48.8107 261.307 49.3867 261.648 49.856C262.032 50.3253 262.48 50.7093 262.992 51.008C263.547 51.3067 264.144 51.5413 264.784 51.712C265.424 51.8827 266.064 52.0107 266.704 52.096C268.624 52.352 270.544 52.544 272.464 52.672C274.384 52.8 276.261 53.2267 278.096 53.952C279.973 54.6773 281.573 55.6587 282.896 56.896C284.219 58.1333 285.157 59.6267 285.712 61.376ZM315.306 55.36C315.647 55.9573 315.818 56.5973 315.818 57.28C315.86 57.9627 315.711 58.6027 315.37 59.2C314.986 59.968 314.431 60.5013 313.706 60.8C313.023 61.056 312.255 61.0773 311.402 60.864C311.018 60.7787 310.676 60.6293 310.378 60.416C310.079 60.2027 309.759 59.9893 309.418 59.776C309.119 59.52 308.756 59.2853 308.33 59.072C307.946 58.8587 307.434 58.7093 306.794 58.624C306.154 58.5387 305.45 58.5387 304.682 58.624C303.956 58.7093 303.295 58.88 302.698 59.136C301.759 59.6053 301.012 60.3307 300.458 61.312C299.903 62.2507 299.54 63.2747 299.37 64.384C299.199 65.4507 299.22 66.5387 299.434 67.648C299.69 68.7573 300.159 69.696 300.842 70.464C301.354 71.0613 302.015 71.552 302.826 71.936C303.679 72.32 304.49 72.5547 305.258 72.64C305.983 72.7253 306.708 72.7253 307.434 72.64C308.159 72.512 308.863 72.3413 309.546 72.128C310.058 71.9147 310.634 71.6373 311.274 71.296C311.914 70.912 312.532 70.6773 313.13 70.592C313.898 70.592 314.495 70.8053 314.922 71.232C315.348 71.616 315.647 72.1067 315.818 72.704C315.988 73.2587 316.01 73.856 315.882 74.496C315.796 75.136 315.562 75.6907 315.178 76.16C314.666 76.8 313.94 77.4187 313.002 78.016C312.063 78.5707 311.167 78.976 310.314 79.232C309.29 79.5733 308.138 79.7653 306.858 79.808C305.62 79.8507 304.447 79.808 303.338 79.68C302.826 79.5947 302.292 79.488 301.738 79.36C301.183 79.232 300.65 79.0827 300.138 78.912C298.26 78.2293 296.682 77.2693 295.402 76.032C294.164 74.752 293.204 73.3227 292.522 71.744C291.882 70.1653 291.519 68.48 291.434 66.688C291.348 64.896 291.562 63.1253 292.074 61.376C292.543 59.712 293.119 58.304 293.802 57.152C294.527 56 295.359 55.0613 296.298 54.336C297.279 53.568 298.367 52.9707 299.562 52.544C300.756 52.0747 302.079 51.6693 303.53 51.328C305.023 51.0293 306.602 51.0293 308.266 51.328C309.93 51.6267 311.423 52.1813 312.746 52.992C313.77 53.5467 314.623 54.336 315.306 55.36ZM346.02 67.392C346.063 68.2453 346.084 69.1413 346.084 70.08C346.084 70.976 346.063 71.808 346.02 72.576C345.977 73.728 345.913 74.7947 345.828 75.776C345.743 76.7147 345.572 77.5253 345.316 78.208C345.06 78.848 344.655 79.3387 344.1 79.68C343.588 79.9787 342.863 80.064 341.924 79.936C340.943 79.808 340.239 79.3387 339.812 78.528C339.385 77.7173 339.087 76.8 338.916 75.776C338.788 74.7093 338.745 73.6427 338.788 72.576C338.831 71.5093 338.831 70.6773 338.788 70.08C338.745 69.1413 338.703 68.0747 338.66 66.88C338.66 65.6427 338.532 64.4907 338.276 63.424C338.063 62.3147 337.679 61.376 337.124 60.608C336.569 59.84 335.737 59.4347 334.628 59.392C333.22 59.3067 332.132 59.4133 331.364 59.712C330.639 60.0107 330.105 60.4587 329.764 61.056C329.423 61.6107 329.209 62.2933 329.124 63.104C329.081 63.9147 328.996 64.7893 328.868 65.728L328.804 68.224V72.896C328.804 73.664 328.783 74.4747 328.74 75.328C328.74 76.1387 328.612 76.8853 328.356 77.568C328.1 78.2507 327.695 78.8267 327.14 79.296C326.628 79.7653 325.86 80 324.836 80C323.556 80 322.596 79.5947 321.956 78.784C321.359 77.9307 321.06 76.8853 321.06 75.648V38.848C321.06 38.592 321.06 38.3573 321.06 38.144C321.103 37.888 321.145 37.632 321.188 37.376C321.273 37.12 321.337 36.8853 321.38 36.672C321.423 36.416 321.487 36.1813 321.572 35.968C321.7 35.5413 321.913 35.2213 322.212 35.008C322.425 34.7947 322.639 34.624 322.852 34.496C323.065 34.368 323.3 34.2827 323.556 34.24C323.769 34.1973 324.004 34.176 324.26 34.176C324.516 34.1333 324.772 34.112 325.028 34.112C325.668 34.112 326.287 34.304 326.884 34.688C327.14 34.8587 327.375 35.0507 327.588 35.264C327.801 35.4347 327.972 35.6907 328.1 36.032C328.441 36.8427 328.612 37.6107 328.612 38.336C328.655 38.5493 328.676 38.8693 328.676 39.296C328.719 39.68 328.74 40.0853 328.74 40.512C328.74 40.9387 328.74 41.3653 328.74 41.792C328.783 42.176 328.804 42.4747 328.804 42.688V43.008C328.847 44.3733 328.868 45.76 328.868 47.168C328.868 48.576 328.868 50.0053 328.868 51.456V52.544C330.66 51.9467 332.537 51.6693 334.5 51.712C336.463 51.712 338.212 52.096 339.748 52.864C341.327 53.6747 342.521 54.592 343.332 55.616C344.185 56.64 344.804 57.7707 345.188 59.008C345.572 60.2453 345.785 61.568 345.828 62.976C345.913 64.384 345.977 65.856 346.02 67.392ZM373.329 71.232C373.841 71.104 374.353 71.0187 374.865 70.976C375.42 70.9333 375.91 70.9973 376.337 71.168C376.806 71.3387 377.19 71.6373 377.489 72.064C377.788 72.448 377.937 73.0027 377.937 73.728C377.937 74.24 377.809 74.7307 377.553 75.2C377.297 75.6693 376.977 76.096 376.593 76.48C376.209 76.864 375.782 77.2053 375.313 77.504C374.844 77.76 374.396 77.9733 373.969 78.144C372.732 78.6987 371.302 79.1253 369.681 79.424C368.102 79.7227 366.46 79.8293 364.753 79.744C362.449 79.6587 360.23 79.2107 358.097 78.4C356.006 77.5467 354.364 76.16 353.169 74.24C352.06 72.3627 351.398 70.272 351.185 67.968C350.972 65.664 351.078 63.488 351.505 61.44C351.974 58.9653 352.764 56.96 353.873 55.424C355.025 53.8453 356.39 52.5867 357.969 51.648C359.889 50.5387 362.044 49.9627 364.433 49.92C366.822 49.8773 369.105 50.3467 371.281 51.328C372.732 51.968 374.033 52.8427 375.185 53.952C376.337 55.0187 377.212 56.32 377.809 57.856C377.98 58.24 378.108 58.7093 378.193 59.264C378.321 59.8187 378.406 60.416 378.449 61.056C378.492 61.6533 378.492 62.2507 378.449 62.848C378.406 63.4453 378.3 63.9787 378.129 64.448C377.873 65.216 377.553 65.8133 377.169 66.24C376.785 66.6667 376.294 66.9867 375.697 67.2C375.1 67.4133 374.374 67.5627 373.521 67.648C372.71 67.6907 371.729 67.7333 370.577 67.776C369.553 67.8187 368.593 67.84 367.697 67.84C366.801 67.84 365.884 67.84 364.945 67.84C364.006 67.7973 363.025 67.776 362.001 67.776C361.02 67.7333 359.91 67.6907 358.673 67.648C358.545 68.5013 358.652 69.248 358.993 69.888C359.377 70.4853 359.889 70.9973 360.529 71.424C361.169 71.808 361.894 72.1067 362.705 72.32C363.516 72.5333 364.305 72.6613 365.073 72.704C366.524 72.7893 367.91 72.6827 369.233 72.384C370.556 72.0427 371.921 71.6587 373.329 71.232ZM370.577 58.816C369.766 57.8773 368.913 57.1947 368.017 56.768C367.334 56.4693 366.609 56.3413 365.841 56.384C365.116 56.384 364.412 56.4907 363.729 56.704C362.492 57.0027 361.446 57.6427 360.593 58.624C360.508 58.7093 360.358 58.9227 360.145 59.264C359.932 59.5627 359.718 59.8827 359.505 60.224C359.334 60.5653 359.206 60.8853 359.121 61.184C359.036 61.4827 359.078 61.632 359.249 61.632H371.793C371.75 61.0347 371.644 60.544 371.473 60.16C371.302 59.7333 371.004 59.2853 370.577 58.816ZM403.591 35.264C404.401 35.0507 405.105 35.0293 405.703 35.2C406.343 35.328 406.876 35.6053 407.303 36.032C407.772 36.4587 408.113 36.992 408.327 37.632C408.583 38.272 408.711 38.976 408.711 39.744C408.753 41.8773 408.753 43.5413 408.711 44.736C408.711 45.9307 408.711 46.976 408.711 47.872V67.52C408.711 69.824 408.711 71.744 408.711 73.28C408.711 74.816 408.625 76.0747 408.455 77.056C408.327 77.9947 408.071 78.6987 407.687 79.168C407.345 79.6373 406.812 79.9573 406.087 80.128C405.361 80.3413 404.401 80.448 403.207 80.448C402.055 80.448 400.604 80.448 398.855 80.448C394.247 80.448 390.599 79.36 387.911 77.184C385.265 75.008 383.857 71.552 383.687 66.816C383.601 64.768 383.857 62.8907 384.455 61.184C385.052 59.4773 385.927 58.0267 387.079 56.832C388.273 55.5947 389.724 54.656 391.431 54.016C393.18 53.3333 395.164 53.0133 397.383 53.056H400.903V41.6C400.903 40.9173 400.903 40.256 400.903 39.616C400.903 38.9333 400.967 38.3147 401.095 37.76C401.223 37.1627 401.479 36.6507 401.863 36.224C402.247 35.7973 402.823 35.4773 403.591 35.264ZM392.455 70.784C393.351 72.0213 394.972 72.704 397.319 72.832C397.788 72.8747 398.236 72.896 398.663 72.896C399.089 72.8533 399.473 72.7893 399.815 72.704C400.199 72.6613 400.561 72.5973 400.903 72.512V60.672C399.409 60.416 398.044 60.2667 396.807 60.224C395.612 60.1387 394.417 60.5653 393.223 61.504C392.583 62.016 392.092 62.6773 391.751 63.488C391.409 64.256 391.217 65.088 391.175 65.984C391.132 66.8373 391.217 67.6907 391.431 68.544C391.644 69.3973 391.985 70.144 392.455 70.784ZM440.177 64.768C440.091 66.176 440.006 67.6053 439.921 69.056C439.835 70.464 439.601 71.8293 439.217 73.152C438.875 74.4747 438.321 75.6693 437.553 76.736C436.827 77.8027 435.782 78.656 434.417 79.296C433.222 79.8933 431.942 80.2987 430.577 80.512C429.211 80.768 427.846 80.8747 426.481 80.832C425.115 80.7893 423.793 80.576 422.513 80.192C421.233 79.8507 420.081 79.36 419.057 78.72C418.033 78.08 417.201 77.248 416.561 76.224C415.921 75.2 415.409 74.0907 415.025 72.896C414.683 71.7013 414.449 70.464 414.321 69.184C414.193 67.904 414.107 66.7093 414.065 65.6C413.894 62.656 413.894 59.7547 414.065 56.896C414.065 56.3413 414.065 55.7227 414.065 55.04C414.065 54.3147 414.107 53.6107 414.193 52.928C414.321 52.2453 414.513 51.6267 414.769 51.072C415.025 50.4747 415.451 50.0267 416.049 49.728C417.329 49.0453 418.502 49.0027 419.569 49.6C420.678 50.1973 421.339 51.4347 421.553 53.312C421.681 54.2933 421.723 55.3813 421.681 56.576C421.681 57.7707 421.723 58.8587 421.809 59.84C421.851 61.2907 421.894 62.8693 421.937 64.576C421.979 66.24 422.214 67.7333 422.641 69.056C423.11 70.3787 423.857 71.3813 424.881 72.064C425.947 72.704 427.526 72.7253 429.617 72.128C430.598 71.8293 431.238 71.0827 431.537 69.888C431.878 68.6933 432.049 66.9227 432.049 64.576C432.049 63.552 432.027 62.4213 431.985 61.184C431.942 59.9467 431.921 58.7307 431.921 57.536C431.921 56.2987 431.942 55.168 431.985 54.144C432.07 53.0773 432.198 52.2667 432.369 51.712C432.582 50.944 433.03 50.368 433.713 49.984C434.395 49.6 435.121 49.408 435.889 49.408C436.657 49.3653 437.382 49.5147 438.065 49.856C438.747 50.1973 439.217 50.752 439.473 51.52C439.729 52.2027 439.899 53.0773 439.985 54.144C440.113 55.168 440.198 56.2987 440.241 57.536C440.283 58.7307 440.283 59.968 440.241 61.248C440.241 62.4853 440.219 63.6587 440.177 64.768ZM455.322 74.88C455.279 75.0933 455.237 75.3067 455.194 75.52C455.194 75.6907 455.194 75.8827 455.194 76.096L454.81 77.44C454.725 77.6107 454.661 77.7173 454.618 77.76L454.426 78.144C454.213 78.6133 453.829 78.9973 453.274 79.296C452.25 79.808 451.162 79.936 450.01 79.68C449.285 79.5947 448.709 79.3813 448.282 79.04C447.855 78.7413 447.557 78.3787 447.386 77.952C447.215 77.5253 447.087 77.0987 447.002 76.672C446.874 76.2453 446.81 75.8613 446.81 75.52V39.68C446.81 39.3813 446.81 39.1253 446.81 38.912C446.853 38.656 446.895 38.4213 446.938 38.208C446.981 37.9093 447.023 37.6533 447.066 37.44C447.151 37.2267 447.237 36.992 447.322 36.736C447.45 36.3093 447.685 35.968 448.026 35.712C448.538 35.328 449.029 35.1147 449.498 35.072C449.797 34.9867 450.074 34.944 450.33 34.944C450.586 34.9013 450.885 34.88 451.226 34.88C451.823 34.88 452.506 35.0507 453.274 35.392C453.871 35.7333 454.298 36.2027 454.554 36.8C454.981 37.6533 455.194 38.4427 455.194 39.168C455.237 39.5947 455.258 40.2347 455.258 41.088C455.301 41.9413 455.322 42.5813 455.322 43.008V43.264C455.407 44.6293 455.45 45.952 455.45 47.232C455.45 48.4693 455.429 49.8347 455.386 51.328C455.386 52.7787 455.365 54.1867 455.322 55.552C455.322 56.8747 455.322 58.1973 455.322 59.52V72.96C455.322 73.1307 455.322 73.3013 455.322 73.472C455.365 73.6 455.386 73.7493 455.386 73.92C455.386 74.3467 455.365 74.6667 455.322 74.88ZM482.704 71.232C483.216 71.104 483.728 71.0187 484.24 70.976C484.795 70.9333 485.285 70.9973 485.712 71.168C486.181 71.3387 486.565 71.6373 486.864 72.064C487.163 72.448 487.312 73.0027 487.312 73.728C487.312 74.24 487.184 74.7307 486.928 75.2C486.672 75.6693 486.352 76.096 485.968 76.48C485.584 76.864 485.157 77.2053 484.688 77.504C484.219 77.76 483.771 77.9733 483.344 78.144C482.107 78.6987 480.677 79.1253 479.056 79.424C477.477 79.7227 475.835 79.8293 474.128 79.744C471.824 79.6587 469.605 79.2107 467.472 78.4C465.381 77.5467 463.739 76.16 462.544 74.24C461.435 72.3627 460.773 70.272 460.56 67.968C460.347 65.664 460.453 63.488 460.88 61.44C461.349 58.9653 462.139 56.96 463.248 55.424C464.4 53.8453 465.765 52.5867 467.344 51.648C469.264 50.5387 471.419 49.9627 473.808 49.92C476.197 49.8773 478.48 50.3467 480.656 51.328C482.107 51.968 483.408 52.8427 484.56 53.952C485.712 55.0187 486.587 56.32 487.184 57.856C487.355 58.24 487.483 58.7093 487.568 59.264C487.696 59.8187 487.781 60.416 487.824 61.056C487.867 61.6533 487.867 62.2507 487.824 62.848C487.781 63.4453 487.675 63.9787 487.504 64.448C487.248 65.216 486.928 65.8133 486.544 66.24C486.16 66.6667 485.669 66.9867 485.072 67.2C484.475 67.4133 483.749 67.5627 482.896 67.648C482.085 67.6907 481.104 67.7333 479.952 67.776C478.928 67.8187 477.968 67.84 477.072 67.84C476.176 67.84 475.259 67.84 474.32 67.84C473.381 67.7973 472.4 67.776 471.376 67.776C470.395 67.7333 469.285 67.6907 468.048 67.648C467.92 68.5013 468.027 69.248 468.368 69.888C468.752 70.4853 469.264 70.9973 469.904 71.424C470.544 71.808 471.269 72.1067 472.08 72.32C472.891 72.5333 473.68 72.6613 474.448 72.704C475.899 72.7893 477.285 72.6827 478.608 72.384C479.931 72.0427 481.296 71.6587 482.704 71.232ZM479.952 58.816C479.141 57.8773 478.288 57.1947 477.392 56.768C476.709 56.4693 475.984 56.3413 475.216 56.384C474.491 56.384 473.787 56.4907 473.104 56.704C471.867 57.0027 470.821 57.6427 469.968 58.624C469.883 58.7093 469.733 58.9227 469.52 59.264C469.307 59.5627 469.093 59.8827 468.88 60.224C468.709 60.5653 468.581 60.8853 468.496 61.184C468.411 61.4827 468.453 61.632 468.624 61.632H481.168C481.125 61.0347 481.019 60.544 480.848 60.16C480.677 59.7333 480.379 59.2853 479.952 58.816Z" fill="white"/>
<path fill-rule="evenodd" clip-rule="evenodd" d="M476.912 0.552158L474.423 0L473.92 2.49908C471.004 16.9697 467.937 28.8235 463.967 39.9928H469.265C472.803 29.7516 475.642 18.8734 478.311 5.98416L541.879 20.0873C541.679 21.9907 541.249 24.8556 540.557 28.541C539.568 33.8106 538.079 40.5806 536.084 48.2364C532.091 63.5584 526.096 82.3452 518.083 99.7091C513.371 109.92 507.987 119.585 501.937 127.75L442.022 94.3088C443.798 91.4464 445.484 88.6804 447.087 85.9928H441.255C439.712 88.5436 438.094 91.17 436.394 93.8874L435 96.1154L437.295 97.3963L501.4 133.176L503.279 134.225L504.596 132.522C511.003 124.234 516.647 114.416 521.547 104.102L543.432 114.601L547.013 116.319V112.347V18.1109V16.1048L545.055 15.6703L476.912 0.552158ZM542.013 108.375L523.643 99.5622C531.305 82.4914 537.051 64.3518 540.922 49.4973C541.304 48.0325 541.668 46.5989 542.013 45.2007V108.375Z" fill="white"/>
</svg>
