<svg width="351" height="100" viewBox="0 0 351 100" fill="none" xmlns="http://www.w3.org/2000/svg">
<path d="M33.536 54.392C33.8773 55.032 33.8987 55.672 33.6 56.312C33.3867 56.9947 33.024 57.5067 32.512 57.848C32.256 58.0613 32.0213 58.2533 31.808 58.424C31.5947 58.552 31.36 58.6587 31.104 58.744C30.6347 59 30.08 59.0853 29.44 59C29.184 59 28.9493 58.9573 28.736 58.872C28.5227 58.7867 28.3093 58.68 28.096 58.552C27.8827 58.424 27.648 58.296 27.392 58.168C27.1787 57.9973 26.9653 57.8267 26.752 57.656C26.496 57.4427 26.2613 57.2507 26.048 57.08C25.8347 56.9093 25.6427 56.7173 25.472 56.504C25.2587 56.2907 25.0667 56.0773 24.896 55.864C24.7253 55.6507 24.5547 55.4587 24.384 55.288L23.616 54.456L11.328 41.592L11.52 54.456V55.032C11.52 55.2027 11.4987 55.3947 11.456 55.608C11.4133 55.7787 11.3707 55.9707 11.328 56.184C11.2 56.7387 11.0507 57.2293 10.88 57.656C10.7947 57.912 10.6667 58.1253 10.496 58.296C10.368 58.4667 10.2187 58.6373 10.048 58.808C9.57867 59.2347 9.024 59.4693 8.384 59.512C7.744 59.7253 7.14667 59.7893 6.592 59.704C6.08 59.6613 5.54667 59.512 4.992 59.256C4.56533 59 4.18133 58.5733 3.84 57.976C3.75467 57.8053 3.69067 57.6987 3.648 57.656C3.648 57.6133 3.60533 57.464 3.52 57.208C3.264 56.7813 3.136 56.3547 3.136 55.928C3.09333 55.672 3.05067 55.4373 3.008 55.224C3.008 55.0107 2.98667 54.776 2.944 54.52C2.90133 54.3493 2.88 54.1787 2.88 54.008C2.88 53.8373 2.88 53.6667 2.88 53.496C2.92267 53.2827 2.944 53.112 2.944 52.984C2.944 52.8133 2.944 52.6213 2.944 52.408L2.88 47.352L2.816 37.944C2.816 35.2133 2.752 32.2693 2.624 29.112C2.58133 27.576 2.56 26.2107 2.56 25.016C2.56 23.8213 2.58133 22.4773 2.624 20.984V20.728C2.70933 20.2587 2.752 19.8107 2.752 19.384C2.752 18.9147 2.77333 18.4667 2.816 18.04C2.816 17.1867 3.008 16.3333 3.392 15.48C3.648 14.84 4.096 14.328 4.736 13.944C5.07733 13.7307 5.39733 13.6027 5.696 13.56C6.03733 13.4747 6.4 13.3893 6.784 13.304C7.08267 13.304 7.36 13.3253 7.616 13.368C7.91467 13.4107 8.192 13.4533 8.448 13.496C9.00267 13.5813 9.51467 13.816 9.984 14.2C10.112 14.328 10.2187 14.4773 10.304 14.648C10.432 14.8187 10.5387 15.032 10.624 15.288C10.8373 15.6293 10.9867 16.12 11.072 16.76C11.1147 17.016 11.136 17.272 11.136 17.528C11.1787 17.784 11.2 18.0613 11.2 18.36V20.984L11.264 28.792C11.9467 28.1947 12.608 27.576 13.248 26.936C13.9307 26.296 14.592 25.6133 15.232 24.888C16.384 23.6933 17.5147 22.5413 18.624 21.432C19.776 20.28 20.928 19.1493 22.08 18.04L22.272 17.848C22.6133 17.5067 22.9547 17.1867 23.296 16.888C23.68 16.5467 24.0427 16.2267 24.384 15.928C25.024 15.2027 25.8133 14.6907 26.752 14.392C27.3493 14.008 28.0533 13.8587 28.864 13.944C29.248 13.9867 29.5893 14.072 29.888 14.2C30.2293 14.328 30.5493 14.4987 30.848 14.712C31.0613 14.9253 31.2747 15.1173 31.488 15.288C31.7013 15.416 31.872 15.5867 32 15.8C32.3413 16.0987 32.5547 16.5467 32.64 17.144C32.64 17.6133 32.5547 18.04 32.384 18.424C32.256 18.6373 32.128 18.8507 32 19.064C31.872 19.2773 31.7227 19.4907 31.552 19.704C31.3387 19.96 31.1467 20.1947 30.976 20.408C30.8053 20.6213 30.6133 20.8347 30.4 21.048C30.2293 21.2613 30.0373 21.4533 29.824 21.624C29.6533 21.7947 29.4827 21.9867 29.312 22.2L28.48 23.032L16.512 35.256C17.152 35.896 17.8133 36.5787 18.496 37.304C19.2213 37.9867 19.904 38.6693 20.544 39.352C21.184 39.992 21.7813 40.6107 22.336 41.208C22.8907 41.7627 23.36 42.232 23.744 42.616C24.896 43.8107 26.0053 45.0053 27.072 46.2C28.1387 47.352 29.184 48.5253 30.208 49.72L30.4 49.912C30.7413 50.2533 31.0613 50.616 31.36 51C31.6587 51.3413 31.936 51.6827 32.192 52.024C32.832 52.7493 33.28 53.5387 33.536 54.392ZM47.0615 34.744C47.0615 35.9387 47.0615 37.2827 47.0615 38.776C47.1042 40.2693 47.1255 41.8267 47.1255 43.448C47.1255 45.0267 47.1255 46.6053 47.1255 48.184C47.1255 49.72 47.1042 51.1493 47.0615 52.472C47.0188 53.112 46.9548 53.816 46.8695 54.584C46.7842 55.3093 46.6135 55.992 46.3575 56.632C46.1015 57.272 45.6962 57.8053 45.1415 58.232C44.6295 58.616 43.9255 58.7867 43.0295 58.744C41.7068 58.6587 40.7468 58.0827 40.1495 57.016C39.5948 55.9493 39.2748 54.456 39.1895 52.536C39.1895 51.5547 39.1682 50.424 39.1255 49.144C39.1255 47.864 39.1042 46.5627 39.0615 45.24C39.0615 43.9173 39.0615 42.6373 39.0615 41.4C39.0615 40.12 39.0615 38.968 39.0615 37.944C39.0615 37.3467 39.0402 36.6213 38.9975 35.768C38.9975 34.9147 39.0188 34.04 39.0615 33.144C39.1042 32.248 39.2108 31.3947 39.3815 30.584C39.5522 29.7307 39.8295 29.0267 40.2135 28.472C40.5122 28.1307 40.9388 27.8747 41.4935 27.704C42.0482 27.4907 42.6242 27.384 43.2215 27.384C43.8615 27.384 44.4588 27.4907 45.0135 27.704C45.6108 27.9173 46.0375 28.216 46.2935 28.6C46.4642 28.856 46.5922 29.2187 46.6775 29.688C46.7628 30.1573 46.8268 30.6907 46.8695 31.288C46.9548 31.8427 46.9975 32.44 46.9975 33.08C47.0402 33.6773 47.0615 34.232 47.0615 34.744ZM44.6295 21.816C43.3068 22.1573 42.1975 22.0293 41.3015 21.432C40.4482 20.792 39.9148 19.8533 39.7015 18.616C39.5308 17.72 39.5948 16.9307 39.8935 16.248C40.1922 15.5653 40.6402 15.0533 41.2375 14.712C41.8348 14.328 42.5175 14.1573 43.2855 14.2C44.0535 14.2427 44.8215 14.5413 45.5895 15.096C46.3148 15.608 46.8268 16.2053 47.1255 16.888C47.4668 17.5707 47.5735 18.232 47.4455 18.872C47.3602 19.512 47.0828 20.1093 46.6135 20.664C46.1442 21.176 45.4828 21.56 44.6295 21.816ZM53.4365 36.152C53.4365 35.1707 53.4152 34.1253 53.3725 33.016C53.3725 31.9067 53.5645 30.904 53.9485 30.008C54.2898 29.1973 54.8445 28.6213 55.6125 28.28C56.4232 27.896 57.2125 27.8107 57.9805 28.024C58.7485 28.152 59.3458 28.3867 59.7725 28.728C60.1992 29.0693 60.4978 29.4747 60.6685 29.944C60.8818 30.3707 61.0098 30.8827 61.0525 31.48C61.0952 32.0347 61.1378 32.5893 61.1805 33.144C61.6072 32.376 62.1405 31.7573 62.7805 31.288C63.4205 30.8187 64.0818 30.4347 64.7645 30.136C65.4472 29.8373 66.0872 29.624 66.6845 29.496C67.3245 29.368 67.8152 29.304 68.1565 29.304C69.7778 29.304 71.3778 29.6667 72.9565 30.392C74.5778 31.0747 75.9218 32.056 76.9885 33.336C77.5858 34.104 78.0338 34.9147 78.3325 35.768C78.6738 36.5787 78.9085 37.432 79.0365 38.328C79.2072 39.224 79.3138 40.1413 79.3565 41.08C79.3992 41.976 79.4418 42.8933 79.4845 43.832C79.6978 46.5627 79.6978 49.272 79.4845 51.96C79.4418 52.5147 79.4205 53.1547 79.4205 53.88C79.4205 54.6053 79.3565 55.3307 79.2285 56.056C79.1432 56.7387 78.9512 57.3573 78.6525 57.912C78.3965 58.424 77.9485 58.744 77.3085 58.872C76.4125 59.0853 75.6658 59.128 75.0685 59C74.5138 58.9147 74.0658 58.7227 73.7245 58.424C73.3832 58.1253 73.1272 57.7413 72.9565 57.272C72.7858 56.8027 72.6365 56.2693 72.5085 55.672C72.4232 55.2027 72.3378 54.6693 72.2525 54.072C72.2098 53.432 72.1672 52.792 72.1245 52.152C72.1245 51.512 72.1032 50.8933 72.0605 50.296C72.0605 49.656 72.0605 49.08 72.0605 48.568C72.0605 47.7573 72.0392 46.8613 71.9965 45.88C71.9538 44.8987 71.9538 43.9813 71.9965 43.128C71.9965 41.1227 71.4632 39.608 70.3965 38.584C69.3725 37.5173 67.9645 37.0693 66.1725 37.24C64.8072 37.4107 63.6125 37.9653 62.5885 38.904C61.5645 39.8 61.0738 40.9733 61.1165 42.424C61.1165 42.9787 61.1165 43.4907 61.1165 43.96C61.1165 44.4293 61.0952 44.8987 61.0525 45.368C61.0525 45.8373 61.0525 46.3493 61.0525 46.904C61.0525 47.4587 61.0525 48.0773 61.0525 48.76C61.0525 50.168 61.0525 51.6613 61.0525 53.24C61.0525 54.776 60.8605 56.0347 60.4765 57.016C60.1352 58.04 59.5592 58.744 58.7485 59.128C57.9378 59.512 56.9778 59.4053 55.8685 58.808C55.3992 58.552 55.0152 58.2107 54.7165 57.784C54.4605 57.3147 54.2472 56.824 54.0765 56.312C53.9485 55.8 53.8632 55.288 53.8205 54.776C53.7778 54.2213 53.7352 53.7093 53.6925 53.24C53.5645 51.832 53.4792 50.5307 53.4365 49.336C53.4365 48.0987 53.4365 46.776 53.4365 45.368V36.152ZM111.37 46.904C111.37 48.2693 111.327 49.7413 111.242 51.32C111.199 52.8987 111.135 54.3707 111.05 55.736C111.05 57.016 110.986 58.296 110.858 59.576C110.773 60.6853 110.602 61.88 110.346 63.16C110.09 64.4827 109.727 65.6987 109.258 66.808C108.661 68.2587 107.85 69.496 106.826 70.52C105.802 71.5867 104.479 72.3547 102.858 72.824C101.493 73.1653 100.213 73.3787 99.018 73.464C97.8233 73.592 96.5433 73.5707 95.178 73.4C94.282 73.272 93.322 73.016 92.298 72.632C91.274 72.2907 90.314 71.8427 89.418 71.288C88.522 70.7333 87.7327 70.072 87.05 69.304C86.3673 68.5787 85.898 67.7467 85.642 66.808C85.3433 65.656 85.322 64.6533 85.578 63.8C85.8767 62.9467 86.3247 62.328 86.922 61.944C87.5193 61.56 88.2233 61.496 89.034 61.752C89.8447 62.008 90.6127 62.6693 91.338 63.736C91.85 64.504 92.5967 65.1227 93.578 65.592C94.5593 66.0613 95.6047 66.3387 96.714 66.424C97.8233 66.5093 98.89 66.36 99.914 65.976C100.981 65.6347 101.813 65.016 102.41 64.12C102.837 63.48 103.135 62.5627 103.306 61.368C103.519 60.1733 103.647 59 103.69 57.848C101.514 58.744 99.274 59.0853 96.97 58.872C94.7087 58.616 92.6393 57.912 90.762 56.76C88.9273 55.5653 87.434 53.9867 86.282 52.024C85.1727 50.0187 84.7033 47.7573 84.874 45.24C85.002 43.064 85.45 41.016 86.218 39.096C87.0287 37.176 88.3513 35.576 90.186 34.296C91.6793 33.272 93.3647 32.6107 95.242 32.312C97.1193 31.9707 98.9327 31.8 100.682 31.8C101.706 31.8 102.709 31.8 103.69 31.8C104.714 31.8 105.653 31.928 106.506 32.184C107.359 32.44 108.127 32.8667 108.81 33.464C109.493 34.0613 110.005 34.936 110.346 36.088C110.901 37.88 111.199 39.6507 111.242 41.4C111.327 43.1493 111.37 44.984 111.37 46.904ZM99.018 52.216C99.4447 52.216 99.85 52.1733 100.234 52.088C100.661 52.0027 101.066 51.896 101.45 51.768C102.175 51.512 102.709 51.1707 103.05 50.744C103.434 50.3173 103.69 49.848 103.818 49.336C103.946 48.7813 103.989 48.184 103.946 47.544C103.946 46.904 103.946 46.2427 103.946 45.56C103.946 45.0053 103.925 44.3867 103.882 43.704C103.882 43.0213 103.839 42.3813 103.754 41.784C103.669 41.144 103.541 40.5893 103.37 40.12C103.199 39.6507 102.943 39.352 102.602 39.224C102.005 39.0533 101.322 38.9467 100.554 38.904C99.786 38.8187 99.018 38.8187 98.25 38.904C97.482 38.9467 96.7353 39.096 96.01 39.352C95.3273 39.5653 94.7513 39.864 94.282 40.248C93.642 40.8027 93.1513 41.4853 92.81 42.296C92.4687 43.1067 92.2553 43.96 92.17 44.856C92.1273 45.752 92.1913 46.6267 92.362 47.48C92.5753 48.3333 92.938 49.1013 93.45 49.784C94.0473 50.6373 94.858 51.256 95.882 51.64C96.906 52.024 97.9513 52.216 99.018 52.216ZM136.528 14.264C137.339 14.0507 138.043 14.0293 138.64 14.2C139.28 14.328 139.813 14.6053 140.24 15.032C140.709 15.4587 141.051 15.992 141.264 16.632C141.52 17.272 141.648 17.976 141.648 18.744C141.691 20.8773 141.691 22.5413 141.648 23.736C141.648 24.9307 141.648 25.976 141.648 26.872V46.52C141.648 48.824 141.648 50.744 141.648 52.28C141.648 53.816 141.563 55.0747 141.392 56.056C141.264 56.9947 141.008 57.6987 140.624 58.168C140.283 58.6373 139.749 58.9573 139.024 59.128C138.299 59.3413 137.339 59.448 136.144 59.448C134.992 59.448 133.541 59.448 131.792 59.448C127.184 59.448 123.536 58.36 120.848 56.184C118.203 54.008 116.795 50.552 116.624 45.816C116.539 43.768 116.795 41.8907 117.392 40.184C117.989 38.4773 118.864 37.0267 120.016 35.832C121.211 34.5947 122.661 33.656 124.368 33.016C126.117 32.3333 128.101 32.0133 130.32 32.056H133.84V20.6C133.84 19.9173 133.84 19.256 133.84 18.616C133.84 17.9333 133.904 17.3147 134.032 16.76C134.16 16.1627 134.416 15.6507 134.8 15.224C135.184 14.7973 135.76 14.4773 136.528 14.264ZM125.392 49.784C126.288 51.0213 127.909 51.704 130.256 51.832C130.725 51.8747 131.173 51.896 131.6 51.896C132.027 51.8533 132.411 51.7893 132.752 51.704C133.136 51.6613 133.499 51.5973 133.84 51.512V39.672C132.347 39.416 130.981 39.2667 129.744 39.224C128.549 39.1387 127.355 39.5653 126.16 40.504C125.52 41.016 125.029 41.6773 124.688 42.488C124.347 43.256 124.155 44.088 124.112 44.984C124.069 45.8373 124.155 46.6907 124.368 47.544C124.581 48.3973 124.923 49.144 125.392 49.784ZM155.066 30.072C156.474 29.3893 157.946 28.8987 159.482 28.6C161.018 28.3013 162.533 28.2373 164.026 28.408C165.562 28.5787 167.034 28.984 168.442 29.624C169.893 30.264 171.215 31.16 172.41 32.312C173.391 33.2933 174.245 34.488 174.97 35.896C175.695 37.2613 176.229 38.6053 176.57 39.928C177.295 42.2747 177.402 44.6427 176.89 47.032C176.378 49.4213 175.503 51.64 174.266 53.688C173.669 54.6267 172.922 55.48 172.026 56.248C171.173 56.9733 170.255 57.5707 169.274 58.04C167.994 58.6373 166.607 59.0427 165.114 59.256C163.621 59.512 162.17 59.576 160.762 59.448C158.202 59.32 155.941 58.68 153.978 57.528C152.058 56.376 150.501 54.904 149.306 53.112C148.154 51.32 147.386 49.2933 147.002 47.032C146.661 44.728 146.81 42.3813 147.45 39.992C148.133 37.432 149.114 35.3627 150.394 33.784C151.717 32.1627 153.274 30.9253 155.066 30.072ZM156.986 38.648C156.346 39.2453 155.855 39.992 155.514 40.888C155.173 41.784 154.959 42.7227 154.874 43.704C154.789 44.6427 154.853 45.6027 155.066 46.584C155.322 47.5227 155.706 48.376 156.218 49.144C156.645 49.784 157.413 50.3173 158.522 50.744C159.631 51.1707 160.783 51.4267 161.978 51.512C163.343 51.5973 164.538 51.2347 165.562 50.424C166.586 49.5707 167.354 48.5253 167.866 47.288C168.421 46.0507 168.677 44.7067 168.634 43.256C168.591 41.8053 168.207 40.4827 167.482 39.288C166.97 38.4347 166.245 37.816 165.306 37.432C164.41 37.0053 163.45 36.792 162.426 36.792C161.445 36.7493 160.463 36.8987 159.482 37.24C158.501 37.5387 157.669 38.008 156.986 38.648ZM216.998 44.088C217.083 45.4533 217.126 46.7547 217.126 47.992C217.126 49.1867 217.083 50.4667 216.998 51.832C216.998 52.344 216.998 52.92 216.998 53.56C216.998 54.2 216.955 54.8187 216.87 55.416C216.785 56.0133 216.635 56.568 216.422 57.08C216.209 57.592 215.889 57.9973 215.462 58.296C214.95 58.6373 214.374 58.872 213.734 59C213.094 59.0853 212.497 59.0427 211.942 58.872C211.387 58.7013 210.897 58.3813 210.47 57.912C210.086 57.4427 209.873 56.7813 209.83 55.928C209.702 53.9653 209.638 52.0027 209.638 50.04C209.638 49.0587 209.617 48.12 209.574 47.224C209.574 46.328 209.595 45.0693 209.638 43.448C209.638 42.6373 209.574 41.72 209.446 40.696C209.318 39.6293 208.998 38.8827 208.486 38.456C208.102 38.1147 207.675 37.9227 207.206 37.88C206.737 37.7947 206.267 37.8373 205.798 38.008C205.371 38.1787 204.987 38.4987 204.646 38.968C204.305 39.3947 204.07 39.9493 203.942 40.632C203.942 41.1867 203.921 41.7627 203.878 42.36C203.878 42.9147 203.899 43.448 203.942 43.96C203.985 45.3253 204.006 46.6267 204.006 47.864C204.006 49.0587 203.985 50.3387 203.942 51.704C203.899 52.2587 203.878 52.856 203.878 53.496C203.921 54.136 203.921 54.776 203.878 55.416C203.835 56.0133 203.707 56.568 203.494 57.08C203.323 57.592 203.003 57.9973 202.534 58.296C202.022 58.6373 201.467 58.8507 200.87 58.936C200.315 58.9787 199.782 58.8933 199.27 58.68C198.801 58.424 198.374 58.04 197.99 57.528C197.649 57.016 197.457 56.3333 197.414 55.48C197.329 54.4987 197.265 53.6027 197.222 52.792C197.222 51.9387 197.222 51.0427 197.222 50.104C197.222 49.1227 197.243 48.12 197.286 47.096C197.329 46.0293 197.307 45.0053 197.222 44.024C197.222 43.7253 197.201 43.384 197.158 43C197.158 42.5733 197.137 42.1467 197.094 41.72C197.094 41.2933 197.051 40.888 196.966 40.504C196.923 40.0773 196.838 39.736 196.71 39.48C196.369 38.8827 195.75 38.4987 194.854 38.328C194.001 38.1573 193.275 38.2213 192.678 38.52C192.081 38.8187 191.633 39.2027 191.334 39.672C191.035 40.1413 190.822 40.6533 190.694 41.208C190.566 41.7627 190.502 42.36 190.502 43C190.502 43.5973 190.502 44.1733 190.502 44.728C190.502 47.5013 190.502 49.912 190.502 51.96C190.545 53.9653 190.331 55.5867 189.862 56.824C189.649 57.464 189.201 57.9547 188.518 58.296C187.878 58.6373 187.174 58.808 186.406 58.808C185.681 58.808 184.998 58.6373 184.358 58.296C183.718 57.9547 183.291 57.4213 183.078 56.696C182.95 56.2267 182.822 55.5653 182.694 54.712C182.609 53.816 182.545 52.8347 182.502 51.768C182.459 50.7013 182.438 49.6347 182.438 48.568C182.438 47.4587 182.438 46.456 182.438 45.56V36.344C182.395 35.3627 182.374 34.296 182.374 33.144C182.374 31.992 182.545 30.9467 182.886 30.008C183.185 29.1973 183.654 28.6853 184.294 28.472C184.934 28.216 185.595 28.1093 186.278 28.152C187.046 28.152 187.643 28.3653 188.07 28.792C188.539 29.176 188.881 29.6667 189.094 30.264C189.307 30.8187 189.435 31.4587 189.478 32.184C189.521 32.8667 189.563 33.528 189.606 34.168C190.075 33.1013 190.63 32.2267 191.27 31.544C191.953 30.8187 192.913 30.3493 194.15 30.136C197.307 29.5387 199.825 30.3493 201.702 32.568C202.555 31.7147 203.643 31.0107 204.966 30.456C205.99 30.072 207.035 29.9013 208.102 29.944C209.169 29.944 210.171 30.136 211.11 30.52C212.091 30.904 212.966 31.4587 213.734 32.184C214.545 32.9093 215.185 33.784 215.654 34.808C216.294 36.1733 216.657 37.688 216.742 39.352C216.827 41.016 216.913 42.5947 216.998 44.088ZM242.6 29.112C243.325 28.9413 244.05 28.984 244.776 29.24C245.544 29.496 246.248 29.9227 246.888 30.52C247.186 30.8187 247.4 31.1813 247.528 31.608C247.698 32.0347 247.784 32.4827 247.784 32.952C247.784 33.464 247.698 34.0187 247.528 34.616C247.4 35.1707 247.208 35.5973 246.952 35.896C246.61 36.28 246.162 36.5787 245.608 36.792C245.053 37.0053 244.52 37.1547 244.008 37.24C243.496 37.2827 243.048 37.304 242.664 37.304C242.322 37.304 242.13 37.304 242.088 37.304L229.544 37.368C229.032 37.4107 228.498 37.4533 227.944 37.496C227.432 37.496 226.92 37.4747 226.408 37.432C225.896 37.3467 225.405 37.2187 224.936 37.048C224.509 36.8347 224.104 36.5573 223.72 36.216C223.25 35.7467 222.888 35.2987 222.632 34.872C222.376 34.4027 222.248 33.8693 222.248 33.272C222.248 32.5467 222.44 31.8427 222.824 31.16C223.25 30.4347 223.826 29.944 224.552 29.688C225.448 29.304 226.365 29.1333 227.304 29.176C228.285 29.176 229.266 29.1547 230.248 29.112H242.6ZM292.048 54.648C292.091 54.904 292.112 55.16 292.112 55.416C292.155 55.6293 292.176 55.8853 292.176 56.184C292.176 56.696 292.027 57.1653 291.728 57.592C291.6 57.8053 291.429 58.0187 291.216 58.232C291.003 58.4027 290.747 58.552 290.448 58.68C289.381 59.2773 288.251 59.4907 287.056 59.32C286.459 59.1493 285.925 58.872 285.456 58.488C285.371 58.4027 285.307 58.36 285.264 58.36C285.221 58.3173 285.179 58.2533 285.136 58.168C285.093 58.1253 285.051 58.0827 285.008 58.04C284.965 57.9547 284.901 57.8907 284.816 57.848C284.603 57.6347 284.432 57.4427 284.304 57.272C284.176 57.0587 284.048 56.8453 283.92 56.632C283.835 56.4187 283.728 56.2267 283.6 56.056C283.515 55.8427 283.408 55.6293 283.28 55.416C283.195 55.2453 283.109 55.096 283.024 54.968C282.939 54.7973 282.875 54.6267 282.832 54.456C282.661 54.072 282.555 53.7307 282.512 53.432L281.168 50.296C278.224 50.296 275.28 50.3173 272.336 50.36C269.435 50.36 266.512 50.3387 263.568 50.296L262.224 53.432C262.139 53.6027 262.075 53.7733 262.032 53.944C262.032 54.1147 261.989 54.2853 261.904 54.456C261.819 54.6267 261.733 54.7973 261.648 54.968C261.605 55.096 261.541 55.2453 261.456 55.416C261.328 55.6293 261.2 55.8427 261.072 56.056C260.987 56.2267 260.88 56.4187 260.752 56.632C260.667 56.8453 260.56 57.0587 260.432 57.272C260.304 57.4427 260.133 57.6347 259.92 57.848C259.835 57.8907 259.771 57.9547 259.728 58.04C259.685 58.0827 259.643 58.1253 259.6 58.168C259.557 58.2533 259.515 58.3173 259.472 58.36C259.429 58.36 259.365 58.4027 259.28 58.488C258.811 58.872 258.277 59.1493 257.68 59.32C256.485 59.4907 255.355 59.2773 254.288 58.68C253.989 58.552 253.733 58.4027 253.52 58.232C253.307 58.0187 253.136 57.8053 253.008 57.592C252.709 57.1653 252.56 56.696 252.56 56.184C252.56 55.8853 252.56 55.6293 252.56 55.416C252.603 55.16 252.645 54.904 252.688 54.648C252.773 54.264 252.88 53.88 253.008 53.496C253.136 53.112 253.2 52.92 253.2 52.92L266.512 20.152L266.896 19.128C266.981 18.872 267.088 18.6373 267.216 18.424C267.344 18.2107 267.451 17.9547 267.536 17.656C267.749 17.1013 267.984 16.6107 268.24 16.184C268.368 15.928 268.517 15.6933 268.688 15.48C268.859 15.2667 269.029 15.0533 269.2 14.84C269.456 14.4987 269.819 14.2213 270.288 14.008C270.885 13.7947 271.568 13.688 272.336 13.688C273.147 13.688 273.851 13.7947 274.448 14.008C274.917 14.2213 275.28 14.4987 275.536 14.84C275.835 15.224 276.155 15.672 276.496 16.184C276.752 16.6107 276.987 17.1013 277.2 17.656C277.285 17.9547 277.392 18.2107 277.52 18.424C277.648 18.6373 277.755 18.872 277.84 19.128L278.224 20.152L291.536 52.92C291.536 52.92 291.6 53.112 291.728 53.496C291.856 53.88 291.963 54.264 292.048 54.648ZM276.88 38.968C276.325 37.7307 275.749 36.4507 275.152 35.128C274.597 33.8053 274 32.4613 273.36 31.096C273.189 30.712 273.019 30.328 272.848 29.944C272.677 29.5173 272.507 29.112 272.336 28.728C272.208 29.112 272.059 29.5173 271.888 29.944C271.717 30.328 271.547 30.712 271.376 31.096C270.736 32.4613 270.117 33.8053 269.52 35.128C268.965 36.4507 268.411 37.7307 267.856 38.968L266.704 41.784H278.032L276.88 38.968ZM325.022 17.72C326.643 19.2133 327.838 21.0053 328.606 23.096C329.374 25.144 329.673 27.192 329.502 29.24C329.331 31.2027 328.713 33.016 327.646 34.68C326.579 36.3013 324.958 37.5387 322.782 38.392C321.075 39.1173 319.39 39.6293 317.726 39.928C316.062 40.2267 314.227 40.4613 312.222 40.632C311.326 40.7173 310.558 40.7813 309.918 40.824C309.321 40.824 308.617 40.8453 307.806 40.888C307.635 40.888 307.337 40.888 306.91 40.888C306.526 40.888 306.249 40.9093 306.078 40.952V54.2C305.95 55.0107 305.779 55.8427 305.566 56.696C305.395 57.5493 304.905 58.2107 304.094 58.68C303.625 58.936 303.049 59.0853 302.366 59.128C301.683 59.1707 301.065 59.1493 300.51 59.064C299.913 58.9787 299.401 58.8293 298.974 58.616C298.59 58.36 298.27 57.9333 298.014 57.336C297.843 56.952 297.673 56.5253 297.502 56.056C297.374 55.544 297.31 54.9253 297.31 54.2V18.808C297.31 18.5093 297.331 18.232 297.374 17.976C297.417 17.72 297.459 17.464 297.502 17.208C297.587 16.9947 297.651 16.76 297.694 16.504C297.737 16.248 297.801 16.0133 297.886 15.8C297.971 15.5867 298.057 15.3947 298.142 15.224C298.27 15.0533 298.419 14.904 298.59 14.776C298.803 14.5627 299.123 14.3707 299.55 14.2C300.019 14.0293 300.702 13.944 301.598 13.944H301.726C303.049 13.8587 304.521 13.7947 306.142 13.752C307.763 13.6667 309.107 13.688 310.174 13.816C310.771 13.9013 311.326 13.9653 311.838 14.008C312.35 14.008 312.841 14.0293 313.31 14.072C313.822 14.1147 314.334 14.1573 314.846 14.2C315.358 14.2427 315.87 14.3067 316.382 14.392C316.809 14.4773 317.193 14.5413 317.534 14.584C317.918 14.6267 318.302 14.6907 318.686 14.776C319.027 14.8613 319.39 14.9467 319.774 15.032C320.201 15.1173 320.585 15.2667 320.926 15.48C321.822 15.736 322.569 16.056 323.166 16.44C323.763 16.824 324.382 17.2507 325.022 17.72ZM321.182 28.28C321.225 27.256 321.011 26.36 320.542 25.592C320.115 24.824 319.497 24.184 318.686 23.672C317.875 23.16 316.958 22.7547 315.934 22.456C314.91 22.1573 313.886 21.944 312.862 21.816C312.606 21.816 312.243 21.816 311.774 21.816C311.347 21.7733 310.878 21.752 310.366 21.752C309.854 21.7093 309.363 21.688 308.894 21.688C308.467 21.6453 308.126 21.624 307.87 21.624C307.657 21.5813 307.401 21.56 307.102 21.56C306.803 21.56 306.462 21.56 306.078 21.56C306.121 22.8827 306.142 24.1627 306.142 25.4C306.142 26.5947 306.142 27.896 306.142 29.304C306.099 30.072 306.078 30.84 306.078 31.608C306.078 32.376 306.078 33.1227 306.078 33.848L310.046 33.784C311.07 33.784 312.201 33.72 313.438 33.592C314.675 33.464 315.849 33.208 316.958 32.824C318.067 32.44 319.006 31.8853 319.774 31.16C320.585 30.4347 321.054 29.4747 321.182 28.28ZM336.732 52.216L336.796 47.16L336.86 37.752C336.902 36.3867 336.924 34.9787 336.924 33.528C336.924 32.0773 336.924 30.584 336.924 29.048C336.924 27.512 336.924 26.1467 336.924 24.952C336.924 23.7573 336.966 22.4133 337.052 20.92V20.664C337.094 20.2373 337.116 19.8107 337.116 19.384C337.158 18.9147 337.18 18.4453 337.18 17.976C337.222 17.208 337.457 16.376 337.884 15.48C338.182 14.8827 338.63 14.3707 339.228 13.944C339.91 13.6027 340.572 13.432 341.212 13.432C341.553 13.432 341.852 13.4533 342.108 13.496C342.406 13.496 342.684 13.5173 342.94 13.56C343.494 13.6453 343.985 13.9013 344.412 14.328C344.668 14.5413 344.902 14.8827 345.116 15.352C345.201 15.608 345.265 15.864 345.308 16.12C345.393 16.3333 345.457 16.568 345.5 16.824C345.542 17.1227 345.564 17.4 345.564 17.656C345.606 17.912 345.628 18.168 345.628 18.424C345.628 18.7227 345.606 19 345.564 19.256C345.564 19.4693 345.564 19.704 345.564 19.96V21.048L345.18 54.264V54.904C345.18 55.032 345.158 55.2027 345.116 55.416C345.116 55.5867 345.094 55.8 345.052 56.056C344.966 56.2693 344.881 56.504 344.796 56.76C344.753 56.9733 344.689 57.208 344.604 57.464C344.476 57.6773 344.326 57.8907 344.156 58.104C344.028 58.2747 343.857 58.4453 343.644 58.616C343.302 58.9573 342.748 59.192 341.98 59.32C340.828 59.576 339.74 59.4693 338.716 59C338.204 58.6587 337.841 58.232 337.628 57.72C337.5 57.592 337.436 57.464 337.436 57.336C337.393 57.2507 337.35 57.1867 337.308 57.144C337.265 57.1013 337.222 57.0373 337.18 56.952C337.094 56.7387 337.03 56.5253 336.988 56.312C336.945 56.056 336.924 55.8 336.924 55.544C336.881 55.3307 336.838 55.1173 336.796 54.904C336.796 54.6907 336.774 54.4773 336.732 54.264C336.689 53.9227 336.689 53.56 336.732 53.176V52.216Z" fill="black"/>
<circle cx="104.5" cy="89.5" r="8" stroke="black" stroke-width="3"/>
<circle cx="210.5" cy="90.5" r="8" stroke="black" stroke-width="3"/>
<path fill-rule="evenodd" clip-rule="evenodd" d="M216.686 92.5C216.89 91.8699 217 91.1978 217 90.5C217 89.4179 216.735 88.3975 216.268 87.5H342C343.38 87.5 344.5 88.6193 344.5 90C344.5 91.3807 343.38 92.5 342 92.5H216.686ZM204.313 92.5H110.268C110.735 91.6025 111 90.5821 111 89.5C111 88.8022 110.89 88.1301 110.686 87.5H204.732C204.264 88.3975 204 89.4179 204 90.5C204 91.1978 204.11 91.8699 204.313 92.5ZM12.2676 92.5H98.732C98.2642 91.6025 97.9998 90.5821 97.9998 89.5C97.9998 88.8022 98.1098 88.1301 98.3133 87.5H12.6863C12.8898 88.1301 12.9998 88.8022 12.9998 89.5C12.9998 90.5821 12.7354 91.6025 12.2676 92.5Z" fill="black"/>
</svg>
