<svg width="452" height="146" viewBox="0 0 452 146" fill="none" xmlns="http://www.w3.org/2000/svg">
<path d="M33.536 120.392C33.8773 121.032 33.8987 121.672 33.6 122.312C33.3867 122.995 33.024 123.507 32.512 123.848C32.256 124.061 32.0213 124.253 31.808 124.424C31.5947 124.552 31.36 124.659 31.104 124.744C30.6347 125 30.08 125.085 29.44 125C29.184 125 28.9493 124.957 28.736 124.872C28.5227 124.787 28.3093 124.68 28.096 124.552C27.8827 124.424 27.648 124.296 27.392 124.168C27.1787 123.997 26.9653 123.827 26.752 123.656C26.496 123.443 26.2613 123.251 26.048 123.08C25.8347 122.909 25.6427 122.717 25.472 122.504C25.2587 122.291 25.0667 122.077 24.896 121.864C24.7253 121.651 24.5547 121.459 24.384 121.288L23.616 120.456L11.328 107.592L11.52 120.456V121.032C11.52 121.203 11.4987 121.395 11.456 121.608C11.4133 121.779 11.3707 121.971 11.328 122.184C11.2 122.739 11.0507 123.229 10.88 123.656C10.7947 123.912 10.6667 124.125 10.496 124.296C10.368 124.467 10.2187 124.637 10.048 124.808C9.57867 125.235 9.024 125.469 8.384 125.512C7.744 125.725 7.14667 125.789 6.592 125.704C6.08 125.661 5.54667 125.512 4.992 125.256C4.56533 125 4.18133 124.573 3.84 123.976C3.75467 123.805 3.69067 123.699 3.648 123.656C3.648 123.613 3.60533 123.464 3.52 123.208C3.264 122.781 3.136 122.355 3.136 121.928C3.09333 121.672 3.05067 121.437 3.008 121.224C3.008 121.011 2.98667 120.776 2.944 120.52C2.90133 120.349 2.88 120.179 2.88 120.008C2.88 119.837 2.88 119.667 2.88 119.496C2.92267 119.283 2.944 119.112 2.944 118.984C2.944 118.813 2.944 118.621 2.944 118.408L2.88 113.352L2.816 103.944C2.816 101.213 2.752 98.2693 2.624 95.112C2.58133 93.576 2.56 92.2107 2.56 91.016C2.56 89.8213 2.58133 88.4773 2.624 86.984V86.728C2.70933 86.2587 2.752 85.8107 2.752 85.384C2.752 84.9147 2.77333 84.4667 2.816 84.04C2.816 83.1867 3.008 82.3333 3.392 81.48C3.648 80.84 4.096 80.328 4.736 79.944C5.07733 79.7307 5.39733 79.6027 5.696 79.56C6.03733 79.4747 6.4 79.3893 6.784 79.304C7.08267 79.304 7.36 79.3253 7.616 79.368C7.91467 79.4107 8.192 79.4533 8.448 79.496C9.00267 79.5813 9.51467 79.816 9.984 80.2C10.112 80.328 10.2187 80.4773 10.304 80.648C10.432 80.8187 10.5387 81.032 10.624 81.288C10.8373 81.6293 10.9867 82.12 11.072 82.76C11.1147 83.016 11.136 83.272 11.136 83.528C11.1787 83.784 11.2 84.0613 11.2 84.36V86.984L11.264 94.792C11.9467 94.1947 12.608 93.576 13.248 92.936C13.9307 92.296 14.592 91.6133 15.232 90.888C16.384 89.6933 17.5147 88.5413 18.624 87.432C19.776 86.28 20.928 85.1493 22.08 84.04L22.272 83.848C22.6133 83.5067 22.9547 83.1867 23.296 82.888C23.68 82.5467 24.0427 82.2267 24.384 81.928C25.024 81.2027 25.8133 80.6907 26.752 80.392C27.3493 80.008 28.0533 79.8587 28.864 79.944C29.248 79.9867 29.5893 80.072 29.888 80.2C30.2293 80.328 30.5493 80.4987 30.848 80.712C31.0613 80.9253 31.2747 81.1173 31.488 81.288C31.7013 81.416 31.872 81.5867 32 81.8C32.3413 82.0987 32.5547 82.5467 32.64 83.144C32.64 83.6133 32.5547 84.04 32.384 84.424C32.256 84.6373 32.128 84.8507 32 85.064C31.872 85.2773 31.7227 85.4907 31.552 85.704C31.3387 85.96 31.1467 86.1947 30.976 86.408C30.8053 86.6213 30.6133 86.8347 30.4 87.048C30.2293 87.2613 30.0373 87.4533 29.824 87.624C29.6533 87.7947 29.4827 87.9867 29.312 88.2L28.48 89.032L16.512 101.256C17.152 101.896 17.8133 102.579 18.496 103.304C19.2213 103.987 19.904 104.669 20.544 105.352C21.184 105.992 21.7813 106.611 22.336 107.208C22.8907 107.763 23.36 108.232 23.744 108.616C24.896 109.811 26.0053 111.005 27.072 112.2C28.1387 113.352 29.184 114.525 30.208 115.72L30.4 115.912C30.7413 116.253 31.0613 116.616 31.36 117C31.6587 117.341 31.936 117.683 32.192 118.024C32.832 118.749 33.28 119.539 33.536 120.392ZM47.0615 100.744C47.0615 101.939 47.0615 103.283 47.0615 104.776C47.1042 106.269 47.1255 107.827 47.1255 109.448C47.1255 111.027 47.1255 112.605 47.1255 114.184C47.1255 115.72 47.1042 117.149 47.0615 118.472C47.0188 119.112 46.9548 119.816 46.8695 120.584C46.7842 121.309 46.6135 121.992 46.3575 122.632C46.1015 123.272 45.6962 123.805 45.1415 124.232C44.6295 124.616 43.9255 124.787 43.0295 124.744C41.7068 124.659 40.7468 124.083 40.1495 123.016C39.5948 121.949 39.2748 120.456 39.1895 118.536C39.1895 117.555 39.1682 116.424 39.1255 115.144C39.1255 113.864 39.1042 112.563 39.0615 111.24C39.0615 109.917 39.0615 108.637 39.0615 107.4C39.0615 106.12 39.0615 104.968 39.0615 103.944C39.0615 103.347 39.0402 102.621 38.9975 101.768C38.9975 100.915 39.0188 100.04 39.0615 99.144C39.1042 98.248 39.2108 97.3947 39.3815 96.584C39.5522 95.7307 39.8295 95.0267 40.2135 94.472C40.5122 94.1307 40.9388 93.8747 41.4935 93.704C42.0482 93.4907 42.6242 93.384 43.2215 93.384C43.8615 93.384 44.4588 93.4907 45.0135 93.704C45.6108 93.9173 46.0375 94.216 46.2935 94.6C46.4642 94.856 46.5922 95.2187 46.6775 95.688C46.7628 96.1573 46.8268 96.6907 46.8695 97.288C46.9548 97.8427 46.9975 98.44 46.9975 99.08C47.0402 99.6773 47.0615 100.232 47.0615 100.744ZM44.6295 87.816C43.3068 88.1573 42.1975 88.0293 41.3015 87.432C40.4482 86.792 39.9148 85.8533 39.7015 84.616C39.5308 83.72 39.5948 82.9307 39.8935 82.248C40.1922 81.5653 40.6402 81.0533 41.2375 80.712C41.8348 80.328 42.5175 80.1573 43.2855 80.2C44.0535 80.2427 44.8215 80.5413 45.5895 81.096C46.3148 81.608 46.8268 82.2053 47.1255 82.888C47.4668 83.5707 47.5735 84.232 47.4455 84.872C47.3602 85.512 47.0828 86.1093 46.6135 86.664C46.1442 87.176 45.4828 87.56 44.6295 87.816ZM53.4365 102.152C53.4365 101.171 53.4152 100.125 53.3725 99.016C53.3725 97.9067 53.5645 96.904 53.9485 96.008C54.2898 95.1973 54.8445 94.6213 55.6125 94.28C56.4232 93.896 57.2125 93.8107 57.9805 94.024C58.7485 94.152 59.3458 94.3867 59.7725 94.728C60.1992 95.0693 60.4978 95.4747 60.6685 95.944C60.8818 96.3707 61.0098 96.8827 61.0525 97.48C61.0952 98.0347 61.1378 98.5893 61.1805 99.144C61.6072 98.376 62.1405 97.7573 62.7805 97.288C63.4205 96.8187 64.0818 96.4347 64.7645 96.136C65.4472 95.8373 66.0872 95.624 66.6845 95.496C67.3245 95.368 67.8152 95.304 68.1565 95.304C69.7778 95.304 71.3778 95.6667 72.9565 96.392C74.5778 97.0747 75.9218 98.056 76.9885 99.336C77.5858 100.104 78.0338 100.915 78.3325 101.768C78.6738 102.579 78.9085 103.432 79.0365 104.328C79.2072 105.224 79.3138 106.141 79.3565 107.08C79.3992 107.976 79.4418 108.893 79.4845 109.832C79.6978 112.563 79.6978 115.272 79.4845 117.96C79.4418 118.515 79.4205 119.155 79.4205 119.88C79.4205 120.605 79.3565 121.331 79.2285 122.056C79.1432 122.739 78.9512 123.357 78.6525 123.912C78.3965 124.424 77.9485 124.744 77.3085 124.872C76.4125 125.085 75.6658 125.128 75.0685 125C74.5138 124.915 74.0658 124.723 73.7245 124.424C73.3832 124.125 73.1272 123.741 72.9565 123.272C72.7858 122.803 72.6365 122.269 72.5085 121.672C72.4232 121.203 72.3378 120.669 72.2525 120.072C72.2098 119.432 72.1672 118.792 72.1245 118.152C72.1245 117.512 72.1032 116.893 72.0605 116.296C72.0605 115.656 72.0605 115.08 72.0605 114.568C72.0605 113.757 72.0392 112.861 71.9965 111.88C71.9538 110.899 71.9538 109.981 71.9965 109.128C71.9965 107.123 71.4632 105.608 70.3965 104.584C69.3725 103.517 67.9645 103.069 66.1725 103.24C64.8072 103.411 63.6125 103.965 62.5885 104.904C61.5645 105.8 61.0738 106.973 61.1165 108.424C61.1165 108.979 61.1165 109.491 61.1165 109.96C61.1165 110.429 61.0952 110.899 61.0525 111.368C61.0525 111.837 61.0525 112.349 61.0525 112.904C61.0525 113.459 61.0525 114.077 61.0525 114.76C61.0525 116.168 61.0525 117.661 61.0525 119.24C61.0525 120.776 60.8605 122.035 60.4765 123.016C60.1352 124.04 59.5592 124.744 58.7485 125.128C57.9378 125.512 56.9778 125.405 55.8685 124.808C55.3992 124.552 55.0152 124.211 54.7165 123.784C54.4605 123.315 54.2472 122.824 54.0765 122.312C53.9485 121.8 53.8632 121.288 53.8205 120.776C53.7778 120.221 53.7352 119.709 53.6925 119.24C53.5645 117.832 53.4792 116.531 53.4365 115.336C53.4365 114.099 53.4365 112.776 53.4365 111.368V102.152ZM111.37 112.904C111.37 114.269 111.327 115.741 111.242 117.32C111.199 118.899 111.135 120.371 111.05 121.736C111.05 123.016 110.986 124.296 110.858 125.576C110.773 126.685 110.602 127.88 110.346 129.16C110.09 130.483 109.727 131.699 109.258 132.808C108.661 134.259 107.85 135.496 106.826 136.52C105.802 137.587 104.479 138.355 102.858 138.824C101.493 139.165 100.213 139.379 99.018 139.464C97.8233 139.592 96.5433 139.571 95.178 139.4C94.282 139.272 93.322 139.016 92.298 138.632C91.274 138.291 90.314 137.843 89.418 137.288C88.522 136.733 87.7327 136.072 87.05 135.304C86.3673 134.579 85.898 133.747 85.642 132.808C85.3433 131.656 85.322 130.653 85.578 129.8C85.8767 128.947 86.3247 128.328 86.922 127.944C87.5193 127.56 88.2233 127.496 89.034 127.752C89.8447 128.008 90.6127 128.669 91.338 129.736C91.85 130.504 92.5967 131.123 93.578 131.592C94.5593 132.061 95.6047 132.339 96.714 132.424C97.8233 132.509 98.89 132.36 99.914 131.976C100.981 131.635 101.813 131.016 102.41 130.12C102.837 129.48 103.135 128.563 103.306 127.368C103.519 126.173 103.647 125 103.69 123.848C101.514 124.744 99.274 125.085 96.97 124.872C94.7087 124.616 92.6393 123.912 90.762 122.76C88.9273 121.565 87.434 119.987 86.282 118.024C85.1727 116.019 84.7033 113.757 84.874 111.24C85.002 109.064 85.45 107.016 86.218 105.096C87.0287 103.176 88.3513 101.576 90.186 100.296C91.6793 99.272 93.3647 98.6107 95.242 98.312C97.1193 97.9707 98.9327 97.8 100.682 97.8C101.706 97.8 102.709 97.8 103.69 97.8C104.714 97.8 105.653 97.928 106.506 98.184C107.359 98.44 108.127 98.8667 108.81 99.464C109.493 100.061 110.005 100.936 110.346 102.088C110.901 103.88 111.199 105.651 111.242 107.4C111.327 109.149 111.37 110.984 111.37 112.904ZM99.018 118.216C99.4447 118.216 99.85 118.173 100.234 118.088C100.661 118.003 101.066 117.896 101.45 117.768C102.175 117.512 102.709 117.171 103.05 116.744C103.434 116.317 103.69 115.848 103.818 115.336C103.946 114.781 103.989 114.184 103.946 113.544C103.946 112.904 103.946 112.243 103.946 111.56C103.946 111.005 103.925 110.387 103.882 109.704C103.882 109.021 103.839 108.381 103.754 107.784C103.669 107.144 103.541 106.589 103.37 106.12C103.199 105.651 102.943 105.352 102.602 105.224C102.005 105.053 101.322 104.947 100.554 104.904C99.786 104.819 99.018 104.819 98.25 104.904C97.482 104.947 96.7353 105.096 96.01 105.352C95.3273 105.565 94.7513 105.864 94.282 106.248C93.642 106.803 93.1513 107.485 92.81 108.296C92.4687 109.107 92.2553 109.96 92.17 110.856C92.1273 111.752 92.1913 112.627 92.362 113.48C92.5753 114.333 92.938 115.101 93.45 115.784C94.0473 116.637 94.858 117.256 95.882 117.64C96.906 118.024 97.9513 118.216 99.018 118.216ZM136.528 80.264C137.339 80.0507 138.043 80.0293 138.64 80.2C139.28 80.328 139.813 80.6053 140.24 81.032C140.709 81.4587 141.051 81.992 141.264 82.632C141.52 83.272 141.648 83.976 141.648 84.744C141.691 86.8773 141.691 88.5413 141.648 89.736C141.648 90.9307 141.648 91.976 141.648 92.872V112.52C141.648 114.824 141.648 116.744 141.648 118.28C141.648 119.816 141.563 121.075 141.392 122.056C141.264 122.995 141.008 123.699 140.624 124.168C140.283 124.637 139.749 124.957 139.024 125.128C138.299 125.341 137.339 125.448 136.144 125.448C134.992 125.448 133.541 125.448 131.792 125.448C127.184 125.448 123.536 124.36 120.848 122.184C118.203 120.008 116.795 116.552 116.624 111.816C116.539 109.768 116.795 107.891 117.392 106.184C117.989 104.477 118.864 103.027 120.016 101.832C121.211 100.595 122.661 99.656 124.368 99.016C126.117 98.3333 128.101 98.0133 130.32 98.056H133.84V86.6C133.84 85.9173 133.84 85.256 133.84 84.616C133.84 83.9333 133.904 83.3147 134.032 82.76C134.16 82.1627 134.416 81.6507 134.8 81.224C135.184 80.7973 135.76 80.4773 136.528 80.264ZM125.392 115.784C126.288 117.021 127.909 117.704 130.256 117.832C130.725 117.875 131.173 117.896 131.6 117.896C132.027 117.853 132.411 117.789 132.752 117.704C133.136 117.661 133.499 117.597 133.84 117.512V105.672C132.347 105.416 130.981 105.267 129.744 105.224C128.549 105.139 127.355 105.565 126.16 106.504C125.52 107.016 125.029 107.677 124.688 108.488C124.347 109.256 124.155 110.088 124.112 110.984C124.069 111.837 124.155 112.691 124.368 113.544C124.581 114.397 124.923 115.144 125.392 115.784ZM155.066 96.072C156.474 95.3893 157.946 94.8987 159.482 94.6C161.018 94.3013 162.533 94.2373 164.026 94.408C165.562 94.5787 167.034 94.984 168.442 95.624C169.893 96.264 171.215 97.16 172.41 98.312C173.391 99.2933 174.245 100.488 174.97 101.896C175.695 103.261 176.229 104.605 176.57 105.928C177.295 108.275 177.402 110.643 176.89 113.032C176.378 115.421 175.503 117.64 174.266 119.688C173.669 120.627 172.922 121.48 172.026 122.248C171.173 122.973 170.255 123.571 169.274 124.04C167.994 124.637 166.607 125.043 165.114 125.256C163.621 125.512 162.17 125.576 160.762 125.448C158.202 125.32 155.941 124.68 153.978 123.528C152.058 122.376 150.501 120.904 149.306 119.112C148.154 117.32 147.386 115.293 147.002 113.032C146.661 110.728 146.81 108.381 147.45 105.992C148.133 103.432 149.114 101.363 150.394 99.784C151.717 98.1627 153.274 96.9253 155.066 96.072ZM156.986 104.648C156.346 105.245 155.855 105.992 155.514 106.888C155.173 107.784 154.959 108.723 154.874 109.704C154.789 110.643 154.853 111.603 155.066 112.584C155.322 113.523 155.706 114.376 156.218 115.144C156.645 115.784 157.413 116.317 158.522 116.744C159.631 117.171 160.783 117.427 161.978 117.512C163.343 117.597 164.538 117.235 165.562 116.424C166.586 115.571 167.354 114.525 167.866 113.288C168.421 112.051 168.677 110.707 168.634 109.256C168.591 107.805 168.207 106.483 167.482 105.288C166.97 104.435 166.245 103.816 165.306 103.432C164.41 103.005 163.45 102.792 162.426 102.792C161.445 102.749 160.463 102.899 159.482 103.24C158.501 103.539 157.669 104.008 156.986 104.648ZM216.998 110.088C217.083 111.453 217.126 112.755 217.126 113.992C217.126 115.187 217.083 116.467 216.998 117.832C216.998 118.344 216.998 118.92 216.998 119.56C216.998 120.2 216.955 120.819 216.87 121.416C216.785 122.013 216.635 122.568 216.422 123.08C216.209 123.592 215.889 123.997 215.462 124.296C214.95 124.637 214.374 124.872 213.734 125C213.094 125.085 212.497 125.043 211.942 124.872C211.387 124.701 210.897 124.381 210.47 123.912C210.086 123.443 209.873 122.781 209.83 121.928C209.702 119.965 209.638 118.003 209.638 116.04C209.638 115.059 209.617 114.12 209.574 113.224C209.574 112.328 209.595 111.069 209.638 109.448C209.638 108.637 209.574 107.72 209.446 106.696C209.318 105.629 208.998 104.883 208.486 104.456C208.102 104.115 207.675 103.923 207.206 103.88C206.737 103.795 206.267 103.837 205.798 104.008C205.371 104.179 204.987 104.499 204.646 104.968C204.305 105.395 204.07 105.949 203.942 106.632C203.942 107.187 203.921 107.763 203.878 108.36C203.878 108.915 203.899 109.448 203.942 109.96C203.985 111.325 204.006 112.627 204.006 113.864C204.006 115.059 203.985 116.339 203.942 117.704C203.899 118.259 203.878 118.856 203.878 119.496C203.921 120.136 203.921 120.776 203.878 121.416C203.835 122.013 203.707 122.568 203.494 123.08C203.323 123.592 203.003 123.997 202.534 124.296C202.022 124.637 201.467 124.851 200.87 124.936C200.315 124.979 199.782 124.893 199.27 124.68C198.801 124.424 198.374 124.04 197.99 123.528C197.649 123.016 197.457 122.333 197.414 121.48C197.329 120.499 197.265 119.603 197.222 118.792C197.222 117.939 197.222 117.043 197.222 116.104C197.222 115.123 197.243 114.12 197.286 113.096C197.329 112.029 197.307 111.005 197.222 110.024C197.222 109.725 197.201 109.384 197.158 109C197.158 108.573 197.137 108.147 197.094 107.72C197.094 107.293 197.051 106.888 196.966 106.504C196.923 106.077 196.838 105.736 196.71 105.48C196.369 104.883 195.75 104.499 194.854 104.328C194.001 104.157 193.275 104.221 192.678 104.52C192.081 104.819 191.633 105.203 191.334 105.672C191.035 106.141 190.822 106.653 190.694 107.208C190.566 107.763 190.502 108.36 190.502 109C190.502 109.597 190.502 110.173 190.502 110.728C190.502 113.501 190.502 115.912 190.502 117.96C190.545 119.965 190.331 121.587 189.862 122.824C189.649 123.464 189.201 123.955 188.518 124.296C187.878 124.637 187.174 124.808 186.406 124.808C185.681 124.808 184.998 124.637 184.358 124.296C183.718 123.955 183.291 123.421 183.078 122.696C182.95 122.227 182.822 121.565 182.694 120.712C182.609 119.816 182.545 118.835 182.502 117.768C182.459 116.701 182.438 115.635 182.438 114.568C182.438 113.459 182.438 112.456 182.438 111.56V102.344C182.395 101.363 182.374 100.296 182.374 99.144C182.374 97.992 182.545 96.9467 182.886 96.008C183.185 95.1973 183.654 94.6853 184.294 94.472C184.934 94.216 185.595 94.1093 186.278 94.152C187.046 94.152 187.643 94.3653 188.07 94.792C188.539 95.176 188.881 95.6667 189.094 96.264C189.307 96.8187 189.435 97.4587 189.478 98.184C189.521 98.8667 189.563 99.528 189.606 100.168C190.075 99.1013 190.63 98.2267 191.27 97.544C191.953 96.8187 192.913 96.3493 194.15 96.136C197.307 95.5387 199.825 96.3493 201.702 98.568C202.555 97.7147 203.643 97.0107 204.966 96.456C205.99 96.072 207.035 95.9013 208.102 95.944C209.169 95.944 210.171 96.136 211.11 96.52C212.091 96.904 212.966 97.4587 213.734 98.184C214.545 98.9093 215.185 99.784 215.654 100.808C216.294 102.173 216.657 103.688 216.742 105.352C216.827 107.016 216.913 108.595 216.998 110.088ZM242.6 95.112C243.325 94.9413 244.05 94.984 244.776 95.24C245.544 95.496 246.248 95.9227 246.888 96.52C247.186 96.8187 247.4 97.1813 247.528 97.608C247.698 98.0347 247.784 98.4827 247.784 98.952C247.784 99.464 247.698 100.019 247.528 100.616C247.4 101.171 247.208 101.597 246.952 101.896C246.61 102.28 246.162 102.579 245.608 102.792C245.053 103.005 244.52 103.155 244.008 103.24C243.496 103.283 243.048 103.304 242.664 103.304C242.322 103.304 242.13 103.304 242.088 103.304L229.544 103.368C229.032 103.411 228.498 103.453 227.944 103.496C227.432 103.496 226.92 103.475 226.408 103.432C225.896 103.347 225.405 103.219 224.936 103.048C224.509 102.835 224.104 102.557 223.72 102.216C223.25 101.747 222.888 101.299 222.632 100.872C222.376 100.403 222.248 99.8693 222.248 99.272C222.248 98.5467 222.44 97.8427 222.824 97.16C223.25 96.4347 223.826 95.944 224.552 95.688C225.448 95.304 226.365 95.1333 227.304 95.176C228.285 95.176 229.266 95.1547 230.248 95.112H242.6ZM285.712 106.376C285.925 106.973 286.075 107.656 286.16 108.424C286.288 109.149 286.352 109.896 286.352 110.664C286.352 111.432 286.288 112.2 286.16 112.968C286.075 113.693 285.947 114.333 285.776 114.888C285.093 117.277 283.728 119.283 281.68 120.904C279.632 122.483 277.285 123.635 274.64 124.36C272.037 125.085 269.328 125.341 266.512 125.128C263.739 124.915 261.264 124.211 259.088 123.016C257.723 122.248 256.549 121.309 255.568 120.2C254.587 119.091 253.755 117.853 253.072 116.488C252.816 116.019 252.645 115.485 252.56 114.888C252.517 114.248 252.581 113.651 252.752 113.096C252.923 112.499 253.2 111.987 253.584 111.56C253.968 111.091 254.501 110.771 255.184 110.6C255.611 110.515 256.08 110.472 256.592 110.472C257.147 110.472 257.68 110.557 258.192 110.728C258.704 110.856 259.173 111.091 259.6 111.432C260.027 111.731 260.368 112.157 260.624 112.712C261.093 113.608 261.755 114.44 262.608 115.208C263.504 115.933 264.443 116.531 265.424 117C266.832 117.469 268.24 117.661 269.648 117.576C271.099 117.491 272.4 117.171 273.552 116.616C274.747 116.061 275.707 115.315 276.432 114.376C277.157 113.395 277.52 112.285 277.52 111.048C277.52 110.024 277.371 109.192 277.072 108.552C276.773 107.869 276.347 107.315 275.792 106.888C275.28 106.419 274.64 106.035 273.872 105.736C273.147 105.437 272.336 105.181 271.44 104.968C270.416 104.755 269.371 104.605 268.304 104.52C267.28 104.435 266.235 104.328 265.168 104.2C264.101 104.072 263.056 103.901 262.032 103.688C261.008 103.475 260.005 103.155 259.024 102.728C257.061 101.917 255.568 100.68 254.544 99.016C253.52 97.352 252.901 95.56 252.688 93.64C252.517 91.72 252.752 89.8213 253.392 87.944C254.032 86.024 255.056 84.3813 256.464 83.016C257.829 81.7787 259.451 80.904 261.328 80.392C263.248 79.8373 265.36 79.5173 267.664 79.432C268.944 79.3893 270.224 79.432 271.504 79.56C272.827 79.688 274.085 79.9013 275.28 80.2C276.517 80.4987 277.648 80.8827 278.672 81.352C279.739 81.8213 280.656 82.376 281.424 83.016C281.979 83.4427 282.533 84.0187 283.088 84.744C283.643 85.4267 284.069 86.1733 284.368 86.984C284.667 87.752 284.752 88.4987 284.624 89.224C284.539 89.9493 284.091 90.568 283.28 91.08C282.597 91.5067 281.936 91.6987 281.296 91.656C280.699 91.5707 280.123 91.3787 279.568 91.08C279.013 90.7387 278.48 90.3547 277.968 89.928C277.456 89.5013 276.987 89.1173 276.56 88.776C275.408 87.9227 273.979 87.3467 272.272 87.048C270.565 86.7493 268.965 86.6853 267.472 86.856C266.533 86.984 265.659 87.1973 264.848 87.496C264.037 87.7947 263.333 88.2 262.736 88.712C262.181 89.224 261.733 89.864 261.392 90.632C261.093 91.3573 260.987 92.1893 261.072 93.128C261.115 93.8107 261.307 94.3867 261.648 94.856C262.032 95.3253 262.48 95.7093 262.992 96.008C263.547 96.3067 264.144 96.5413 264.784 96.712C265.424 96.8827 266.064 97.0107 266.704 97.096C268.624 97.352 270.544 97.544 272.464 97.672C274.384 97.8 276.261 98.2267 278.096 98.952C279.973 99.6773 281.573 100.659 282.896 101.896C284.219 103.133 285.157 104.627 285.712 106.376ZM320.874 96.456C321.258 97.0533 321.428 97.6933 321.386 98.376C321.386 99.3573 321.215 100.211 320.874 100.936C320.788 101.149 320.66 101.427 320.49 101.768C320.362 102.109 320.212 102.472 320.042 102.856C319.914 103.24 319.764 103.603 319.594 103.944C319.423 104.285 319.295 104.541 319.21 104.712L319.082 105.032C318.484 106.355 317.908 107.635 317.354 108.872C316.799 110.109 316.18 111.432 315.498 112.84C314.815 114.205 314.154 115.549 313.514 116.872C312.916 118.152 312.319 119.411 311.722 120.648C311.551 120.989 311.402 121.331 311.274 121.672C311.146 121.971 310.975 122.291 310.762 122.632L307.69 129.224C307.135 130.333 306.602 131.421 306.09 132.488C305.62 133.555 305.087 134.621 304.49 135.688C304.362 135.901 304.234 136.093 304.106 136.264C304.02 136.477 303.935 136.691 303.85 136.904C303.551 137.416 303.103 137.907 302.506 138.376C301.951 138.888 301.354 139.165 300.714 139.208C299.562 139.293 298.559 138.952 297.706 138.184C297.194 137.885 296.788 137.459 296.49 136.904C296.319 136.52 296.234 136.029 296.234 135.432C296.276 135.176 296.298 134.92 296.298 134.664C296.34 134.451 296.383 134.237 296.426 134.024C296.511 133.811 296.575 133.597 296.618 133.384C296.66 133.171 296.724 133 296.81 132.872C296.938 132.531 297.044 132.36 297.13 132.36L301.802 122.248C301.588 121.779 301.375 121.309 301.162 120.84C300.948 120.328 300.756 119.88 300.586 119.496C300.031 118.173 299.434 116.787 298.794 115.336C298.196 113.843 297.578 112.371 296.938 110.92C296.298 109.427 295.636 107.976 294.954 106.568C294.271 105.16 293.588 103.816 292.906 102.536C292.65 102.109 292.415 101.661 292.202 101.192C291.988 100.68 291.818 100.189 291.69 99.72C291.562 99.208 291.519 98.696 291.562 98.184C291.604 97.672 291.796 97.16 292.138 96.648C292.479 96.008 292.927 95.56 293.482 95.304C294.036 95.0053 294.612 94.8773 295.21 94.92C295.85 94.92 296.447 95.048 297.002 95.304C297.556 95.56 298.004 95.9013 298.345 96.328C299.071 97.096 299.647 97.9493 300.074 98.888C300.5 99.8267 300.906 100.787 301.29 101.768C302.1 103.475 302.932 105.267 303.786 107.144C304.639 109.021 305.492 110.856 306.346 112.648L309.674 105.608C310.015 104.925 310.314 104.264 310.57 103.624C310.868 102.984 311.167 102.365 311.466 101.768C311.807 101.043 312.127 100.296 312.426 99.528C312.767 98.76 313.151 98.056 313.578 97.416C313.663 97.2453 313.748 97.096 313.834 96.968C313.919 96.84 314.004 96.6907 314.09 96.52C314.474 96.008 314.815 95.6027 315.114 95.304C315.327 95.1333 315.498 95.0053 315.626 94.92C315.796 94.792 315.988 94.7067 316.202 94.664C316.5 94.5787 316.778 94.536 317.034 94.536C317.332 94.4933 317.61 94.4933 317.866 94.536C318.292 94.664 318.804 94.856 319.402 95.112C320.042 95.368 320.532 95.816 320.874 96.456ZM340.606 113.736C339.795 113.224 338.878 112.819 337.854 112.52C336.873 112.221 335.849 111.944 334.782 111.688C333.758 111.432 332.755 111.155 331.774 110.856C330.793 110.515 329.897 110.045 329.086 109.448C327.337 108.125 326.313 106.504 326.014 104.584C325.758 102.621 326.185 100.659 327.294 98.696C327.891 97.672 328.681 96.84 329.662 96.2C330.643 95.5173 331.71 95.0053 332.862 94.664C334.057 94.28 335.273 94.0667 336.51 94.024C337.747 93.9813 338.921 94.0453 340.03 94.216C340.755 94.344 341.523 94.536 342.334 94.792C343.145 95.0053 343.891 95.304 344.574 95.688C345.299 96.072 345.939 96.5627 346.494 97.16C347.091 97.7147 347.518 98.4187 347.774 99.272C347.945 99.8267 347.966 100.36 347.838 100.872C347.753 101.384 347.539 101.811 347.198 102.152C346.899 102.493 346.494 102.749 345.982 102.92C345.513 103.091 345.001 103.133 344.446 103.048C343.806 102.92 343.209 102.728 342.654 102.472C342.099 102.216 341.545 101.939 340.99 101.64C340.435 101.341 339.859 101.085 339.262 100.872C338.707 100.659 338.11 100.552 337.47 100.552C336.489 100.509 335.678 100.68 335.038 101.064C334.398 101.448 333.95 101.917 333.694 102.472C333.481 103.027 333.502 103.624 333.758 104.264C334.057 104.904 334.654 105.459 335.55 105.928C336.361 106.355 337.257 106.696 338.238 106.952C339.219 107.208 340.179 107.464 341.118 107.72C342.099 107.976 343.038 108.275 343.934 108.616C344.873 108.957 345.705 109.427 346.43 110.024C347.838 111.176 348.691 112.52 348.99 114.056C349.331 115.592 349.246 117.107 348.734 118.6C348.222 120.093 347.326 121.416 346.046 122.568C344.809 123.72 343.337 124.488 341.63 124.872C340.393 125.128 339.049 125.256 337.598 125.256C336.19 125.256 334.782 125.107 333.374 124.808C332.009 124.509 330.686 124.04 329.406 123.4C328.169 122.76 327.123 121.949 326.27 120.968C325.673 120.285 325.353 119.517 325.31 118.664C325.31 117.768 325.481 117 325.822 116.36C326.206 115.677 326.739 115.208 327.422 114.952C328.105 114.696 328.873 114.845 329.726 115.4C330.409 115.869 331.219 116.339 332.158 116.808C333.097 117.235 334.035 117.576 334.974 117.832C335.913 118.088 336.809 118.216 337.662 118.216C338.558 118.216 339.326 118.024 339.966 117.64C340.905 117.043 341.395 116.36 341.438 115.592C341.481 114.781 341.203 114.163 340.606 113.736ZM378.951 96.776C379.292 97.5867 379.313 98.4827 379.015 99.464C378.759 100.445 378.268 101.085 377.543 101.384C377.159 101.555 376.647 101.704 376.007 101.832C375.367 101.917 374.663 102.003 373.895 102.088C373.169 102.173 372.444 102.237 371.719 102.28C370.993 102.323 370.375 102.344 369.863 102.344C369.905 103.624 369.948 104.947 369.991 106.312C370.033 107.635 370.076 108.936 370.119 110.216C370.161 111.496 370.183 112.733 370.183 113.928C370.183 115.08 370.161 116.125 370.119 117.064C370.119 117.704 370.119 118.451 370.119 119.304C370.119 120.115 370.055 120.904 369.927 121.672C369.841 122.44 369.692 123.123 369.479 123.72C369.265 124.275 368.945 124.637 368.519 124.808C367.196 125.363 365.98 125.512 364.871 125.256C363.804 125.043 363.036 124.595 362.567 123.912C362.225 123.357 361.969 122.717 361.799 121.992C361.628 121.224 361.5 120.456 361.415 119.688C361.372 118.877 361.351 118.109 361.351 117.384C361.393 116.616 361.415 115.955 361.415 115.4C361.457 113.608 361.479 111.581 361.479 109.32C361.521 107.016 361.543 104.712 361.543 102.408H360.583C360.071 102.408 359.409 102.408 358.599 102.408C357.831 102.365 357.041 102.301 356.231 102.216C355.463 102.088 354.737 101.939 354.055 101.768C353.372 101.555 352.881 101.256 352.583 100.872C352.113 100.317 351.815 99.72 351.687 99.08C351.601 98.44 351.644 97.8427 351.815 97.288C352.028 96.6907 352.348 96.1787 352.775 95.752C353.201 95.2827 353.692 94.984 354.247 94.856C355.015 94.6427 356.103 94.536 357.51 94.536C358.919 94.4933 360.241 94.4933 361.479 94.536C361.436 94.1093 361.415 93.704 361.415 93.32C361.415 92.8933 361.393 92.488 361.351 92.104C361.308 91.592 361.287 90.952 361.287 90.184C361.287 89.3733 361.329 88.584 361.415 87.816C361.543 87.0053 361.735 86.2587 361.991 85.576C362.247 84.8507 362.609 84.296 363.079 83.912C363.719 83.4 364.359 83.1227 364.999 83.08C365.681 82.9947 366.3 83.08 366.855 83.336C367.452 83.592 367.943 83.976 368.327 84.488C368.753 84.9573 369.052 85.4907 369.223 86.088C369.351 86.6 369.457 87.2187 369.543 87.944C369.628 88.6267 369.671 89.352 369.671 90.12C369.713 90.888 369.735 91.656 369.735 92.424C369.735 93.192 369.735 93.896 369.735 94.536H370.375C371.015 94.536 371.761 94.5147 372.615 94.472C373.468 94.4293 374.3 94.4507 375.111 94.536C375.964 94.6213 376.732 94.8347 377.415 95.176C378.097 95.4747 378.609 96.008 378.951 96.776ZM403.954 116.232C404.466 116.104 404.978 116.019 405.49 115.976C406.045 115.933 406.535 115.997 406.962 116.168C407.431 116.339 407.815 116.637 408.114 117.064C408.413 117.448 408.562 118.003 408.562 118.728C408.562 119.24 408.434 119.731 408.178 120.2C407.922 120.669 407.602 121.096 407.218 121.48C406.834 121.864 406.407 122.205 405.938 122.504C405.469 122.76 405.021 122.973 404.594 123.144C403.357 123.699 401.927 124.125 400.306 124.424C398.727 124.723 397.085 124.829 395.378 124.744C393.074 124.659 390.855 124.211 388.722 123.4C386.631 122.547 384.989 121.16 383.794 119.24C382.685 117.363 382.023 115.272 381.81 112.968C381.597 110.664 381.703 108.488 382.13 106.44C382.599 103.965 383.389 101.96 384.498 100.424C385.65 98.8453 387.015 97.5867 388.594 96.648C390.514 95.5387 392.669 94.9627 395.058 94.92C397.447 94.8773 399.73 95.3467 401.906 96.328C403.357 96.968 404.658 97.8427 405.81 98.952C406.962 100.019 407.837 101.32 408.434 102.856C408.605 103.24 408.733 103.709 408.818 104.264C408.946 104.819 409.031 105.416 409.074 106.056C409.117 106.653 409.117 107.251 409.074 107.848C409.031 108.445 408.925 108.979 408.754 109.448C408.498 110.216 408.178 110.813 407.794 111.24C407.41 111.667 406.919 111.987 406.322 112.2C405.725 112.413 404.999 112.563 404.146 112.648C403.335 112.691 402.354 112.733 401.202 112.776C400.178 112.819 399.218 112.84 398.322 112.84C397.426 112.84 396.509 112.84 395.57 112.84C394.631 112.797 393.65 112.776 392.626 112.776C391.645 112.733 390.535 112.691 389.298 112.648C389.17 113.501 389.277 114.248 389.618 114.888C390.002 115.485 390.514 115.997 391.154 116.424C391.794 116.808 392.519 117.107 393.33 117.32C394.141 117.533 394.93 117.661 395.698 117.704C397.149 117.789 398.535 117.683 399.858 117.384C401.181 117.043 402.546 116.659 403.954 116.232ZM401.202 103.816C400.391 102.877 399.538 102.195 398.642 101.768C397.959 101.469 397.234 101.341 396.466 101.384C395.741 101.384 395.037 101.491 394.354 101.704C393.117 102.003 392.071 102.643 391.218 103.624C391.133 103.709 390.983 103.923 390.77 104.264C390.557 104.563 390.343 104.883 390.13 105.224C389.959 105.565 389.831 105.885 389.746 106.184C389.661 106.483 389.703 106.632 389.874 106.632H402.418C402.375 106.035 402.269 105.544 402.098 105.16C401.927 104.733 401.629 104.285 401.202 103.816ZM448.936 110.088C449.021 111.453 449.064 112.755 449.064 113.992C449.064 115.187 449.021 116.467 448.936 117.832C448.936 118.344 448.936 118.92 448.936 119.56C448.936 120.2 448.893 120.819 448.808 121.416C448.722 122.013 448.573 122.568 448.36 123.08C448.146 123.592 447.826 123.997 447.4 124.296C446.888 124.637 446.312 124.872 445.672 125C445.032 125.085 444.434 125.043 443.88 124.872C443.325 124.701 442.834 124.381 442.408 123.912C442.024 123.443 441.81 122.781 441.768 121.928C441.64 119.965 441.576 118.003 441.576 116.04C441.576 115.059 441.554 114.12 441.512 113.224C441.512 112.328 441.533 111.069 441.576 109.448C441.576 108.637 441.512 107.72 441.384 106.696C441.256 105.629 440.936 104.883 440.424 104.456C440.04 104.115 439.613 103.923 439.144 103.88C438.674 103.795 438.205 103.837 437.736 104.008C437.309 104.179 436.925 104.499 436.584 104.968C436.242 105.395 436.008 105.949 435.88 106.632C435.88 107.187 435.858 107.763 435.816 108.36C435.816 108.915 435.837 109.448 435.88 109.96C435.922 111.325 435.944 112.627 435.944 113.864C435.944 115.059 435.922 116.339 435.88 117.704C435.837 118.259 435.816 118.856 435.816 119.496C435.858 120.136 435.858 120.776 435.816 121.416C435.773 122.013 435.645 122.568 435.432 123.08C435.261 123.592 434.941 123.997 434.472 124.296C433.96 124.637 433.405 124.851 432.808 124.936C432.253 124.979 431.72 124.893 431.208 124.68C430.738 124.424 430.312 124.04 429.928 123.528C429.586 123.016 429.394 122.333 429.352 121.48C429.266 120.499 429.202 119.603 429.16 118.792C429.16 117.939 429.16 117.043 429.16 116.104C429.16 115.123 429.181 114.12 429.224 113.096C429.266 112.029 429.245 111.005 429.16 110.024C429.16 109.725 429.138 109.384 429.096 109C429.096 108.573 429.074 108.147 429.032 107.72C429.032 107.293 428.989 106.888 428.904 106.504C428.861 106.077 428.776 105.736 428.648 105.48C428.306 104.883 427.688 104.499 426.792 104.328C425.938 104.157 425.213 104.221 424.616 104.52C424.018 104.819 423.57 105.203 423.272 105.672C422.973 106.141 422.76 106.653 422.632 107.208C422.504 107.763 422.44 108.36 422.44 109C422.44 109.597 422.44 110.173 422.44 110.728C422.44 113.501 422.44 115.912 422.44 117.96C422.482 119.965 422.269 121.587 421.8 122.824C421.586 123.464 421.138 123.955 420.456 124.296C419.816 124.637 419.112 124.808 418.344 124.808C417.618 124.808 416.936 124.637 416.296 124.296C415.656 123.955 415.229 123.421 415.016 122.696C414.888 122.227 414.76 121.565 414.632 120.712C414.546 119.816 414.482 118.835 414.44 117.768C414.397 116.701 414.376 115.635 414.376 114.568C414.376 113.459 414.376 112.456 414.376 111.56V102.344C414.333 101.363 414.312 100.296 414.312 99.144C414.312 97.992 414.482 96.9467 414.824 96.008C415.122 95.1973 415.592 94.6853 416.232 94.472C416.872 94.216 417.533 94.1093 418.216 94.152C418.984 94.152 419.581 94.3653 420.008 94.792C420.477 95.176 420.818 95.6667 421.032 96.264C421.245 96.8187 421.373 97.4587 421.416 98.184C421.458 98.8667 421.501 99.528 421.544 100.168C422.013 99.1013 422.568 98.2267 423.208 97.544C423.89 96.8187 424.85 96.3493 426.088 96.136C429.245 95.5387 431.762 96.3493 433.64 98.568C434.493 97.7147 435.581 97.0107 436.904 96.456C437.928 96.072 438.973 95.9013 440.04 95.944C441.106 95.944 442.109 96.136 443.048 96.52C444.029 96.904 444.904 97.4587 445.672 98.184C446.482 98.9093 447.122 99.784 447.592 100.808C448.232 102.173 448.594 103.688 448.68 105.352C448.765 107.016 448.85 108.595 448.936 110.088Z" fill="black"/>
<path d="M229 54L220.031 39.7061C217.697 35.9865 221.348 31.4035 225.495 32.8461V32.8461C229.393 34.2018 232.992 30.184 231.218 26.4581L221 5" stroke="black" stroke-width="5" stroke-linecap="round"/>
<path d="M240.5 52L231.531 37.7061C229.197 33.9865 232.848 29.4035 236.995 30.8461V30.8461C240.893 32.2018 244.492 28.184 242.718 24.4581L232.5 3" stroke="black" stroke-width="5" stroke-linecap="round"/>
</svg>
